0
SECTION
2
HEADER
9
$INSUNITS
70
4
9
$ACADVER
1
AC1014
9
$HANDSEED
5
FFFF
0
ENDSEC
0
SECTION
2
TABLES
0
TABLE
2
VPORT
5
8
100
AcDbSymbolTable
0
ENDTAB
0
TABLE
2
LTYPE
5
5
100
AcDbSymbolTable
0
LTYPE
5
14
100
AcDbSymbolTableRecord
100
AcDbLinetypeTableRecord
2
BYBLOCK
70
0
0
LTYPE
5
15
100
AcDbSymbolTableRecord
100
AcDbLinetypeTableRecord
2
BYLAYER
70
0
0
LTYPE
5
16
100
AcDbSymbolTableRecord
100
AcDbLinetypeTableRecord
2
DASHED
70
0
3
Dashed __ __ __ __ __ __ __ __ __ __ __ __ __ _
72
65
73
2
40
0.75
49
0.5
74
0
49
-0.25
74
0
0
ENDTAB
0
TABLE
2
LAYER
5
2
100
AcDbSymbolTable
70
3
0
LAYER
5
50
100
AcDbSymbolTableRecord
100
AcDbLayerTableRecord
2
1
70
0
62
7
6
DASHED
0
LAYER
5
51
100
AcDbSymbolTableRecord
100
AcDbLayerTableRecord
2
0
70
0
62
7
6
CONTINUOUS
0
ENDTAB
0
TABLE
2
STYLE
5
3
100
AcDbSymbolTable
70
1
0
STYLE
5
11
100
AcDbSymbolTableRecord
100
AcDbTextStyleTableRecord
2
STANDARD
70
0
0
ENDTAB
0
TABLE
2
VIEW
5
6
100
AcDbSymbolTable
70
0
0
ENDTAB
0
TABLE
2
UCS
5
7
100
AcDbSymbolTable
70
0
0
ENDTAB
0
TABLE
2
APPID
5
9
100
AcDbSymbolTable
70
2
0
APPID
5
12
100
AcDbSymbolTableRecord
100
AcDbRegAppTableRecord
2
ACAD
70
0
0
ENDTAB
0
TABLE
2
DIMSTYLE
5
A
100
AcDbSymbolTable
70
1
0
ENDTAB
0
TABLE
2
BLOCK_RECORD
5
1
100
AcDbSymbolTable
70
1
0
BLOCK_RECORD
5
1F
100
AcDbSymbolTableRecord
100
AcDbBlockTableRecord
2
*MODEL_SPACE
0
BLOCK_RECORD
5
1B
100
AcDbSymbolTableRecord
100
AcDbBlockTableRecord
2
*PAPER_SPACE
0
ENDTAB
0
ENDSEC
0
SECTION
2
BLOCKS
0
BLOCK
5
20
100
AcDbEntity
100
AcDbBlockBegin
2
*MODEL_SPACE
0
ENDBLK
5
21
100
AcDbEntity
100
AcDbBlockEnd
0
BLOCK
5
1C
100
AcDbEntity
100
AcDbBlockBegin
2
*PAPER_SPACE
0
ENDBLK
5
1D
100
AcDbEntity
100
AcDbBlockEnd
0
ENDSEC
0
SECTION
2
ENTITIES
0
LWPOLYLINE
5
100
100
AcDbEntity
8
0
100
AcDbPolyline
90
4
70
1
43
0.0
10
-145.3500057309866
20
-370.68316665291786
10
-145.3500057309866
20
-350.68316635489464
10
-140.35000565648079
20
-350.68316635489464
10
-140.35000565648079
20
-370.68316665291786
0
LWPOLYLINE
5
101
100
AcDbEntity
8
0
100
AcDbPolyline
90
20
70
1
43
0.0
10
-167.35000610351562
20
-350.66161408386898
10
-167.35000610351562
20
-370.68316665291786
10
-164.35000610351562
20
-370.68316665291786
10
-164.35000610351562
20
-393.64998823665871
10
-155.35000587999824
20
-393.64998823665871
10
-155.35000587999821
20
-390.68316695094109
10
-140.30633131509191
20
-390.68316695094109
10
-140.30633131509191
20
-393.64998823665871
10
-134.34062434097316
20
-393.64998823665871
10
-134.34062434097316
20
-370.68316665291786
10
-131.35000552237034
20
-370.68316665291786
10
-131.35000552237034
20
-350.66161408386898
10
-134.34062434097316
20
-350.66161408386898
10
-134.34062434097314
20
-327.64998823665871
10
-140.30633131509188
20
-327.64998823665871
10
-140.30633131509188
20
-330.68316605687141
10
-155.35000587999821
20
-330.68316605687141
10
-155.35000587999821
20
-327.64998823665871
10
-164.35000610351562
20
-327.64998823665871
10
-164.35000610351562
20
-350.66161408386898
0
LWPOLYLINE
5
102
100
AcDbEntity
8
0
100
AcDbPolyline
90
22
70
1
43
0.0
10
-184.20001183450216
20
-350.64999389648443
10
-186.20001183450216
20
-348.64999389648438
10
-202.20001213252542
20
-348.64999389648438
10
-204.20001213252539
20
-350.64999389648443
10
-204.20001213252539
20
-360.64999389648443
10
-211.70001220703119
20
-360.64999389648443
10
-211.70001220703119
20
-369.64999412000179
10
-214.70001208409661
20
-369.64999412000179
10
-214.70001208409661
20
-384.69366868490818
10
-211.70001220703119
20
-384.69366868490818
10
-211.70001220703119
20
-390.64999376237392
10
-204.20001213252539
20
-390.64999376237392
10
-204.20001213252539
20
-393.64999389648438
10
-184.20001183450216
20
-393.64999389648438
10
-184.20001183450216
20
-390.64999376237392
10
-176.70001220703119
20
-390.64999376237392
10
-176.70001220703119
20
-384.69366868490818
10
-173.70001220703119
20
-384.69366868490818
10
-173.70001220703119
20
-369.64999412000179
10
-176.70001220703119
20
-369.64999412000179
10
-176.70001220703119
20
-360.64999389648443
10
-184.20001183450216
20
-360.64999389648443
0
LWPOLYLINE
5
103
100
AcDbEntity
8
0
100
AcDbPolyline
90
4
70
1
43
0.0
10
-201.20001231133932
20
-354.64999389648438
10
-201.20001231133932
20
-351.64999385178089
10
-187.20001210272306
20
-351.64999385178089
10
-187.20001210272306
20
-354.64999389648438
0
CIRCLE
5
104
100
AcDbEntity
8
0
100
AcDbCircle
10
-222.55001773685217
20
-380.75625622272491
30
0
40
1.0000000000000009
210
0
220
-0
230
1
0
CIRCLE
5
105
100
AcDbEntity
8
0
100
AcDbCircle
10
-227.05001780390739
20
-380.75625622272491
30
0
40
2.9999999999999982
210
0
220
-0
230
1
0
CIRCLE
5
106
100
AcDbEntity
8
0
100
AcDbCircle
10
-231.55001787096262
20
-380.75625622272491
30
0
40
1.0000000000000009
210
0
220
-0
230
1
0
LWPOLYLINE
5
107
100
AcDbEntity
8
0
100
AcDbPolyline
90
12
70
1
43
0.0
10
-221.05001771450043
20
-375.75625614821911
10
-223.05001774430275
20
-375.75625614821911
10
-223.05001774430275
20
-372.75625610351562
10
-231.05001786351204
20
-372.75625610351562
10
-231.05001786351204
20
-375.75625614821911
10
-233.05001789331436
20
-375.75625614821911
10
-233.05001789331436
20
-385.75625629723072
10
-231.05001786351204
20
-385.75625629723072
10
-231.05001786351204
20
-388.7562563419342
10
-223.05001774430275
20
-388.7562563419342
10
-223.05001774430275
20
-385.75625629723072
10
-221.05001771450043
20
-385.75625629723072
0
LWPOLYLINE
5
108
100
AcDbEntity
8
0
100
AcDbPolyline
90
4
70
1
43
0.0
10
-228.55001820623875
20
-360.40625
10
-228.55001820623875
20
-363.40625004470348
10
-242.550018414855
20
-363.40625004470348
10
-242.550018414855
20
-360.40625
0
LWPOLYLINE
5
109
100
AcDbEntity
8
0
100
AcDbPolyline
90
22
70
1
43
0.0
10
-227.55001838505268
20
-366.40625
10
-225.55001838505268
20
-364.40625
10
-225.55001838505268
20
-354.40625
10
-218.05001831054688
20
-354.40625
10
-218.05001831054688
20
-345.40624977648258
10
-215.05001843348145
20
-345.40624977648258
10
-215.05001843348145
20
-330.3625752115762
10
-218.05001831054688
20
-330.3625752115762
10
-218.05001831054688
20
-324.40625013411045
10
-225.55001838505268
20
-324.40625013411045
10
-225.55001838505268
20
-321.40625
10
-245.5500186830759
20
-321.40625
10
-245.5500186830759
20
-324.40625013411045
10
-253.05001831054688
20
-324.40625013411045
10
-253.05001831054688
20
-330.3625752115762
10
-256.05001831054688
20
-330.3625752115762
10
-256.05001831054688
20
-345.40624977648258
10
-253.05001831054688
20
-345.40624977648258
10
-253.05001831054688
20
-354.40625
10
-245.5500186830759
20
-354.40625
10
-245.5500186830759
20
-364.40625
10
-243.55001868307593
20
-366.40625
0
LWPOLYLINE
5
110
100
AcDbEntity
8
0
100
AcDbPolyline
90
4
70
1
43
0.0
10
-278.40002436935902
20
-377.13618901961695
10
-281.40002445876598
20
-377.13618901961695
10
-281.40002445876598
20
-343.46643029153341
10
-278.40002436935902
20
-343.46643029153347
0
LWPOLYLINE
5
111
100
AcDbEntity
8
0
100
AcDbPolyline
90
12
70
1
43
0.0
10
-268.40895870899368
20
-388.86028559028625
10
-268.17299888938652
20
-388.86545154519303
10
-268.19987380029153
20
-390.09298822398165
10
-267.51927302288993
20
-390.10788886652097
10
-267.49505574221098
20
-389.0017419327134
10
-267.26045979708448
20
-389.00687802781584
10
-267.28467707776338
20
-390.11302496162335
10
-266.67227255698373
20
-390.12643255849457
10
-266.64641292182978
20
-388.94526954873413
10
-266.41045310222262
20
-388.95043550364096
10
-266.44210577345353
20
-390.39620085166507
10
-268.44162665597571
20
-390.35242460733855
0
SPLINE
5
112
100
AcDbEntity
8
0
100
AcDbSpline
70
0
71
3
72
10
73
6
74
0
42
0.000000001
43
0.0000000001
44
0.0000000001
40
0
40
0
40
0
40
0
40
0.013133212988499135
40
0.013133212988499135
40
0.02623772140398814
40
0.02623772140398814
40
0.02623772140398814
40
0.02623772140398814
10
-268.12961002595461
20
-387.0706097600912
30
0
10
-268.15307825858218
20
-387.10756514889709
30
0
10
-268.17393577577411
20
-387.14040944823512
30
0
10
-268.19887842760994
20
-387.21694834023771
30
0
10
-268.20222963476357
20
-387.25825475061873
30
0
10
-268.20558084191714
20
-387.29956116099976
30
0
0
SPLINE
5
113
100
AcDbEntity
8
0
100
AcDbSpline
70
0
71
3
72
10
73
6
74
0
42
0.000000001
43
0.0000000001
44
0.0000000001
40
0
40
0
40
0
40
0
40
0.017244814044255583
40
0.017244814044255583
40
0.034492517656340545
40
0.034492517656340545
40
0.034492517656340545
40
0.034492517656340545
10
-268.20558084191714
20
-387.29956116099976
30
0
10
-268.20179355456628
20
-387.3569189747974
30
0
10
-268.19800626721536
20
-387.41427678859503
30
0
10
-268.15812883315965
20
-387.51622014691839
30
0
10
-268.12239170332805
20
-387.55988725439403
30
0
10
-268.08536459406986
20
-387.60513058442945
30
0
0
SPLINE
5
114
100
AcDbEntity
8
0
100
AcDbSpline
70
0
71
3
72
10
73
6
74
0
42
0.000000001
43
0.0000000001
44
0.0000000001
40
0
40
0
40
0
40
0
40
0.022386751914768698
40
0.022386751914768698
40
0.044506347474180738
40
0.044506347474180738
40
0.044506347474180738
40
0.044506347474180738
10
-268.08536459406986
20
-387.60513058442945
30
0
10
-268.02589463507405
20
-387.65020654737941
30
0
10
-267.97894748412313
20
-387.68579069898465
30
0
10
-267.85669062848388
20
-387.73213495620087
30
0
10
-267.78973917722328
20
-387.74014868840197
30
0
10
-267.72278772596269
20
-387.74816242060308
30
0
0
LINE
5
115
100
AcDbEntity
8
0
100
AcDbLine
10
-267.72278772596269
20
-387.74816242060308
30
0
11
-267.6991378019527
21
-386.66793003302689
31
-1.0592614694129797e-32
0
SPLINE
5
116
100
AcDbEntity
8
0
100
AcDbSpline
70
0
71
3
72
10
73
6
74
0
42
0.000000001
43
0.0000000001
44
0.0000000001
40
0
40
0
40
0
40
0
40
0.0032751350877894252
40
0.0032751350877894252
40
0.0066869264414598948
40
0.0066869264414598948
40
0.0066869264414598948
40
0.0066869264414598948
10
-267.6991378019527
20
-386.66793003302689
30
0
10
-267.68822113338837
20
-386.66783108779509
30
0
10
-267.67730446482432
20
-386.6677321425633
30
0
10
-267.65501608616779
20
-386.6677348585867
30
0
10
-267.64613329325266
20
-386.66784475919599
30
0
10
-267.6336392822501
20
-386.66799933889126
30
0
0
SPLINE
5
117
100
AcDbEntity
8
0
100
AcDbSpline
70
0
71
3
72
10
73
6
74
0
42
0.000000001
43
0.0000000001
44
0.0000000001
40
0
40
0
40
0
40
0
40
0.030583173214601047
40
0.030583173214601047
40
0.061488985634795504
40
0.061488985634795504
40
0.061488985634795504
40
0.061488985634795504
10
-267.6336392822501
20
-386.66799933889126
30
0
10
-267.53192509824203
20
-386.67483934645787
30
0
10
-267.43021091423401
20
-386.68167935402448
30
0
10
-267.24416552991534
20
-386.74498344250361
30
0
10
-267.17180802481391
20
-386.79796233662626
30
0
10
-267.08118723872889
20
-386.86431328425209
30
0
0
SPLINE
5
118
100
AcDbEntity
8
0
100
AcDbSpline
70
0
71
3
72
10
73
6
74
0
42
0.000000001
43
0.0000000001
44
0.0000000001
40
0
40
0
40
0
40
0
40
0.028034269659282206
40
0.028034269659282206
40
0.056045803339300287
40
0.056045803339300287
40
0.056045803339300287
40
0.056045803339300287
10
-267.08118723872889
20
-386.86431328425209
30
0
10
-267.02166300081262
20
-386.93635016788915
30
0
10
-266.96644576943226
20
-387.00317466511848
30
0
10
-266.90465198391644
20
-387.16317241494335
30
0
10
-266.89923050383868
20
-387.25323146756909
30
0
10
-266.89380902376098
20
-387.34329052019473
30
0
0
SPLINE
5
119
100
AcDbEntity
8
0
100
AcDbSpline
70
0
71
3
72
10
73
6
74
0
42
0.000000001
43
0.0000000001
44
0.0000000001
40
0
40
0
40
0
40
0
40
0.027811268235593996
40
0.027811268235593996
40
0.055652393166871393
40
0.055652393166871393
40
0.055652393166871393
40
0.055652393166871393
10
-266.89380902376098
20
-387.34329052019473
30
0
10
-266.90324010953208
20
-387.43551377327464
30
0
10
-266.91267119530323
20
-387.5277370263546
30
0
10
-266.9827598395529
20
-387.68946914977215
30
0
10
-267.04192081392853
20
-387.75537323040953
30
0
10
-267.10636088760543
20
-387.82715811659011
30
0
0
SPLINE
5
120
100
AcDbEntity
8
0
100
AcDbSpline
70
0
71
3
72
10
73
6
74
0
42
0.000000001
43
0.0000000001
44
0.0000000001
40
0
40
0
40
0
40
0
40
0.034351697962244333
40
0.034351697962244333
40
0.068350013285911657
40
0.068350013285911657
40
0.068350013285911657
40
0.068350013285911657
10
-267.10636088760543
20
-387.82715811659011
30
0
10
-267.2015529493695
20
-387.89079786454943
30
0
10
-267.27765424836554
20
-387.94167466454451
30
0
10
-267.46997655262612
20
-387.99802740720645
30
0
10
-267.57392649127667
20
-388.00049273499718
30
0
10
-267.67787642992732
20
-388.00295806278797
30
0
0
SPLINE
5
121
100
AcDbEntity
8
0
100
AcDbSpline
70
0
71
3
72
10
73
6
74
0
42
0.000000001
43
0.0000000001
44
0.0000000001
40
0
40
0
40
0
40
0
40
0.030295534273879036
40
0.030295534273879036
40
0.060881145031157845
40
0.060881145031157845
40
0.060881145031157845
40
0.060881145031157845
10
-267.67787642992732
20
-388.00295806278797
30
0
10
-267.77861774318472
20
-387.99594513882607
30
0
10
-267.87935905644218
20
-387.98893221486429
30
0
10
-268.06299271257893
20
-387.92513975507666
30
0
10
-268.13456056969937
20
-387.87175578508243
30
0
10
-268.2234789465507
20
-387.80542969746767
30
0
0
SPLINE
5
122
100
AcDbEntity
8
0
100
AcDbSpline
70
0
71
3
72
10
73
6
74
0
42
0.000000001
43
0.0000000001
44
0.0000000001
40
0
40
0
40
0
40
0
40
0.03042644083929158
40
0.03042644083929158
40
0.060736245373886374
40
0.060736245373886374
40
0.060736245373886374
40
0.060736245373886374
10
-268.2234789465507
20
-387.80542969746767
30
0
10
-268.28569427083869
20
-387.72533245724037
30
0
10
-268.33921530794919
20
-387.65642841445481
30
0
10
-268.39912551359089
20
-387.48588726256509
30
0
10
-268.40329883994161
20
-387.3911963609446
30
0
10
-268.40747216629234
20
-387.29650545932407
30
0
0
SPLINE
5
123
100
AcDbEntity
8
0
100
AcDbSpline
70
0
71
3
72
10
73
6
74
0
42
0.000000001
43
0.0000000001
44
0.0000000001
40
0
40
0
40
0
40
0
40
0.022312796151224966
40
0.022312796151224966
40
0.044759751718647683
40
0.044759751718647683
40
0.044759751718647683
40
0.044759751718647683
10
-268.40747216629234
20
-387.29650545932407
30
0
10
-268.40223476598317
20
-387.22231410466856
30
0
10
-268.396997365674
20
-387.14812275001304
30
0
10
-268.35413469693412
20
-387.0099930962142
30
0
10
-268.31843055298339
20
-386.95293711461085
30
0
10
-268.2756409499641
20
-386.88455841867972
30
0
0
SPLINE
5
124
100
AcDbEntity
8
0
100
AcDbSpline
70
0
71
3
72
10
73
6
74
0
42
0.000000001
43
0.0000000001
44
0.0000000001
40
0
40
0
40
0
40
0
40
0.022377740103217265
40
0.022377740103217265
40
0.044708523631058567
40
0.044708523631058567
40
0.044708523631058567
40
0.044708523631058567
10
-268.2756409499641
20
-386.88455841867972
30
0
10
-268.22388813040163
20
-386.8308398762378
30
0
10
-268.17779522292801
20
-386.78299622583722
30
0
10
-268.06063213614965
20
-386.71196508852864
30
0
10
-267.99316574911211
20
-386.69087900719768
30
0
10
-267.92569936207462
20
-386.66979292586666
30
0
0
LINE
5
125
100
AcDbEntity
8
0
100
AcDbLine
10
-267.92569936207462
20
-386.66979292586666
30
0
11
-267.89988320262353
21
-386.92417051122004
31
-2.4074124304840448e-33
0
SPLINE
5
126
100
AcDbEntity
8
0
100
AcDbSpline
70
0
71
3
72
10
73
6
74
0
42
0.000000001
43
0.0000000001
44
0.0000000001
40
0
40
0
40
0
40
0
40
0.013970284877459263
40
0.013970284877459263
40
0.02811995613267778
40
0.02811995613267778
40
0.02811995613267778
40
0.02811995613267778
10
-267.89988320262353
20
-386.92417051122004
30
0
10
-267.94352985084493
20
-386.94040359419921
30
0
10
-267.98717649906638
20
-386.95663667717832
30
0
10
-268.06480953712946
20
-387.00490019046424
30
0
10
-268.09331347482851
20
-387.03380400759329
30
0
10
-268.12961002595461
20
-387.0706097600912
30
0
0
SPLINE
5
127
100
AcDbEntity
8
0
100
AcDbSpline
70
0
71
3
72
10
73
6
74
0
42
0.000000001
43
0.0000000001
44
0.0000000001
40
0
40
0
40
0
40
0
40
0.0044102376807488713
40
0.0044102376807488713
40
0.0089168423124227035
40
0.0089168423124227035
40
0.0089168423124227035
40
0.0089168423124227035
10
-268.10404511307024
20
-384.53167976544756
30
0
10
-268.10407252582593
20
-384.54638053215825
30
0
10
-268.10409993858161
20
-384.56108129886894
30
0
10
-268.09911602633429
20
-384.58978234582003
30
0
10
-268.09442431452123
20
-384.6012856189152
30
0
10
-268.08816537957171
20
-384.61663145448199
30
0
0
SPLINE
5
128
100
AcDbEntity
8
0
100
AcDbSpline
70
0
71
3
72
10
73
6
74
0
42
0.000000001
43
0.0000000001
44
0.0000000001
40
0
40
0
40
0
40
0
40
0.0032713172456092883
40
0.0032713172456092883
40
0.0065428534013140787
40
0.0065428534013140787
40
0.0065428534013140787
40
0.0065428534013140787
10
-268.08816537957171
20
-384.61663145448199
30
0
10
-268.0820037988787
20
-384.62562815734975
30
0
10
-268.0758422181857
20
-384.63462486021751
30
0
10
-268.06025038866295
20
-384.6490815166166
30
0
10
-268.05090907859284
20
-384.65445856760545
30
0
10
-268.04135353892372
20
-384.65995893357564
30
0
0
SPLINE
5
129
100
AcDbEntity
8
0
100
AcDbSpline
70
0
71
3
72
10
73
6
74
0
42
0.000000001
43
0.0000000001
44
0.0000000001
40
0
40
0
40
0
40
0
40
0.007682592066152915
40
0.007682592066152915
40
0.01470084576024689
40
0.01470084576024689
40
0.01470084576024689
40
0.01470084576024689
10
-268.04135353892372
20
-384.65995893357564
30
0
10
-268.01645411632018
20
-384.66594401569296
30
0
10
-267.99926575431067
20
-384.67007558772679
30
0
10
-267.95213233009974
20
-384.67474014458566
30
0
10
-267.92936283690489
20
-384.67496516775896
30
0
10
-267.90659334371009
20
-384.67519019093231
30
0
0
LINE
5
130
100
AcDbEntity
8
0
100
AcDbLine
10
-267.90659334371003
20
-384.67519019093231
30
0
11
-267.05959302677979
21
-384.6937338796443
31
0
0
LINE
5
131
100
AcDbEntity
8
0
100
AcDbLine
10
-267.05959302677979
20
-384.6937338796443
30
0
11
-267.05418819017598
21
-384.44686291521612
31
1.0833355937178202e-33
0
LINE
5
132
100
AcDbEntity
8
0
100
AcDbLine
10
-267.05418819017598
20
-384.44686291521612
30
1.0833355937178202e-33
11
-266.86323801614049
21
-384.45104345743795
31
0
0
LINE
5
133
100
AcDbEntity
8
0
100
AcDbLine
10
-266.86323801614049
20
-384.45104345743795
30
0
11
-266.8686428527443
21
-384.69791442186602
31
1.2037062152420224e-33
0
LINE
5
134
100
AcDbEntity
8
0
100
AcDbLine
10
-266.8686428527443
20
-384.69791442186602
30
1.2037062152420224e-33
11
-266.36262501073111
21
-384.70899285614456
31
0
0
LINE
5
135
100
AcDbEntity
8
0
100
AcDbLine
10
-266.36262501073111
20
-384.70899285614456
30
0
11
-266.51527453719359
21
-384.94991138022203
31
-3.8518598887744717e-33
0
LINE
5
136
100
AcDbEntity
8
0
100
AcDbLine
10
-266.51527453719359
20
-384.94991138022203
30
-3.8518598887744717e-33
11
-266.87398797626247
21
-384.94205793528471
31
0
0
LINE
5
137
100
AcDbEntity
8
0
100
AcDbLine
10
-266.87398797626247
20
-384.94205793528471
30
0
11
-266.87792962700252
21
-385.12209651757155
31
2.2870418089598426e-33
0
LINE
5
138
100
AcDbEntity
8
0
100
AcDbLine
10
-266.87792962700252
20
-385.12209651757155
30
2.2870418089598426e-33
11
-267.06887980103801
21
-385.11791597534972
31
0
0
LINE
5
139
100
AcDbEntity
8
0
100
AcDbLine
10
-267.06887980103801
20
-385.11791597534972
30
0
11
-267.06493815029796
21
-384.93787739306288
31
3.1296361596292583e-33
0
LINE
5
140
100
AcDbEntity
8
0
100
AcDbLine
10
-267.06493815029796
20
-384.93787739306288
30
3.1296361596292583e-33
11
-267.89829912651828
21
-384.91963231544156
31
0
0
SPLINE
5
141
100
AcDbEntity
8
0
100
AcDbSpline
70
0
71
3
72
10
73
6
74
0
42
0.000000001
43
0.0000000001
44
0.0000000001
40
0
40
0
40
0
40
0
40
0.014735730687170167
40
0.014735730687170167
40
0.030706942395253931
40
0.030706942395253931
40
0.030706942395253931
40
0.030706942395253931
10
-267.89829912651828
20
-384.91963231544156
30
0
10
-267.94741495431742
20
-384.91906515635412
30
0
10
-267.99653078211668
20
-384.91849799726674
30
0
10
-268.0974155444577
20
-384.90732853141168
30
0
10
-268.1344577084156
20
-384.89750571705463
30
0
10
-268.18815921167607
20
-384.88326519110103
30
0
0
SPLINE
5
142
100
AcDbEntity
8
0
100
AcDbSpline
70
0
71
3
72
10
73
6
74
0
42
0.000000001
43
0.0000000001
44
0.0000000001
40
0
40
0
40
0
40
0
40
0.0082580019231076416
40
0.0082580019231076416
40
0.016496878530152817
40
0.016496878530152817
40
0.016496878530152817
40
0.016496878530152817
10
-268.18815921167607
20
-384.88326519110103
30
0
10
-268.21188853427452
20
-384.86931395532389
30
0
10
-268.23291365838162
20
-384.85695260524972
30
0
10
-268.2688323091383
20
-384.82135349654618
30
0
10
-268.28260011879303
20
-384.79927065852479
30
0
10
-268.29636792844786
20
-384.7771878205034
30
0
0
SPLINE
5
143
100
AcDbEntity
8
0
100
AcDbSpline
70
0
71
3
72
10
73
6
74
0
42
0.000000001
43
0.0000000001
44
0.0000000001
40
0
40
0
40
0
40
0
40
0.012170121813439903
40
0.012170121813439903
40
0.024075688312942874
40
0.024075688312942874
40
0.024075688312942874
40
0.024075688312942874
10
-268.29636792844786
20
-384.7771878205034
30
0
10
-268.3112937962614
20
-384.7394663961083
30
0
10
-268.3224657823643
20
-384.71123197554482
30
0
10
-268.3343024485452
20
-384.64087244136266
30
0
10
-268.33420677482906
20
-384.60490865091083
30
0
10
-268.33411110111297
20
-384.56894486045894
30
0
0
SPLINE
5
144
100
AcDbEntity
8
0
100
AcDbSpline
70
0
71
3
72
10
73
6
74
0
42
0.000000001
43
0.0000000001
44
0.0000000001
40
0
40
0
40
0
40
0
40
0.010247619883579433
40
0.010247619883579433
40
0.020419876830929835
40
0.020419876830929835
40
0.020419876830929835
40
0.020419876830929835
10
-268.33411110111297
20
-384.56894486045894
30
0
10
-268.33205034456677
20
-384.53484834569741
30
0
10
-268.33035755967029
20
-384.50684015359991
30
0
10
-268.32151044981237
20
-384.4449651473509
30
0
10
-268.31486878771096
20
-384.41444685202043
30
0
10
-268.30822712560962
20
-384.38392855668997
30
0
0
LINE
5
145
100
AcDbEntity
8
0
100
AcDbLine
10
-268.30822712560962
20
-384.38392855668997
30
0
11
-268.09213853216579
21
-384.42413868754392
31
0
0
SPLINE
5
146
100
AcDbEntity
8
0
100
AcDbSpline
70
0
71
3
72
10
73
6
74
0
42
0.000000001
43
0.0000000001
44
0.0000000001
40
0
40
0
40
0
40
0
40
0.0054174376627204512
40
0.0054174376627204512
40
0.010966572882556373
40
0.010966572882556373
40
0.010966572882556373
40
0.010966572882556373
10
-268.09213853216579
20
-384.42413868754392
30
0
10
-268.09499738908551
20
-384.44196907831974
30
0
10
-268.09785624600516
20
-384.45979946909529
30
0
10
-268.10199990066769
20
-384.4960687372178
30
0
10
-268.1028714937122
20
-384.51124482576165
30
0
10
-268.10404511307024
20
-384.53167976544756
30
0
0
SPLINE
5
147
100
AcDbEntity
8
0
100
AcDbSpline
70
0
71
3
72
10
73
6
74
0
42
0.000000001
43
0.0000000001
44
0.0000000001
40
0
40
0
40
0
40
0
40
0.029297632323417727
40
0.029297632323417727
40
0.05853729730777113
40
0.05853729730777113
40
0.05853729730777113
40
0.05853729730777113
10
-268.1217126104296
20
-383.15715716193182
30
0
10
-268.18209332808095
20
-383.08040167251613
30
0
10
-268.23603163460416
20
-383.01183572503356
30
0
10
-268.29642975923127
20
-382.84571162358554
30
0
10
-268.30120217197515
20
-382.75311008128949
30
0
10
-268.30597458471902
20
-382.66050853899344
30
0
0
SPLINE
5
148
100
AcDbEntity
8
0
100
AcDbSpline
70
0
71
3
72
10
73
6
74
0
42
0.000000001
43
0.0000000001
44
0.0000000001
40
0
40
0
40
0
40
0
40
0.018355681010548144
40
0.018355681010548144
40
0.036714901596479041
40
0.036714901596479041
40
0.036714901596479041
40
0.036714901596479041
10
-268.30597458471902
20
-382.66050853899344
30
0
10
-268.30112715106088
20
-382.59951525701501
30
0
10
-268.2962797174028
20
-382.53852197503659
30
0
10
-268.26432315545088
20
-382.42272826657648
30
0
10
-268.23751746430895
20
-382.36904408670523
30
0
10
-268.20967489398743
20
-382.31328333256897
30
0
0
SPLINE
5
149
100
AcDbEntity
8
0
100
AcDbSpline
70
0
71
3
72
10
73
6
74
0
42
0.000000001
43
0.0000000001
44
0.0000000001
40
0
40
0
40
0
40
0
40
0.017855780876525396
40
0.017855780876525396
40
0.035712646912463182
40
0.035712646912463182
40
0.035712646912463182
40
0.035712646912463182
10
-268.20967489398743
20
-382.31328333256897
30
0
10
-268.17639939771135
20
-382.26393472772628
30
0
10
-268.14312390143527
20
-382.21458612288359
30
0
10
-268.0586605341677
20
-382.13494407156838
30
0
10
-268.00793208837638
20
-382.10508601008229
30
0
10
-267.95609449767915
20
-382.07457512124688
30
0
0
SPLINE
5
150
100
AcDbEntity
8
0
100
AcDbSpline
70
0
71
3
72
10
73
6
74
0
42
0.000000001
43
0.0000000001
44
0.0000000001
40
0
40
0
40
0
40
0
40
0.02567437611689815
40
0.02567437611689815
40
0.050844707957327019
40
0.050844707957327019
40
0.050844707957327019
40
0.050844707957327019
10
-267.95609449767915
20
-382.07457512124688
30
0
10
-267.87573497656399
20
-382.04513877713049
30
0
10
-267.81503338240833
20
-382.02290329104011
30
0
10
-267.66578584591531
20
-381.99934304207841
30
0
10
-267.58973988277114
20
-381.99949958855512
30
0
10
-267.51369391962703
20
-381.99965613503184
30
0
0
SPLINE
5
151
100
AcDbEntity
8
0
100
AcDbSpline
70
0
71
3
72
10
73
6
74
0
42
0.000000001
43
0.0000000001
44
0.0000000001
40
0
40
0
40
0
40
0
40
0.02994821810760262
40
0.02994821810760262
40
0.060127959385608276
40
0.060127959385608276
40
0.060127959385608276
40
0.060127959385608276
10
-267.51369391962703
20
-381.99965613503184
30
0
10
-267.41414282371534
20
-382.00707825293205
30
0
10
-267.31459172780364
20
-382.01450037083237
30
0
10
-267.13440642978065
20
-382.07974977772017
30
0
10
-267.0638751614951
20
-382.13436289292014
30
0
10
-266.97772840499471
20
-382.2010672476157
30
0
0
SPLINE
5
152
100
AcDbEntity
8
0
100
AcDbSpline
70
0
71
3
72
10
73
6
74
0
42
0.000000001
43
0.0000000001
44
0.0000000001
40
0
40
0
40
0
40
0
40
0.028833791771034539
40
0.028833791771034539
40
0.057632216888125622
40
0.057632216888125622
40
0.057632216888125622
40
0.057632216888125622
10
-266.97772840499471
20
-382.2010672476157
30
0
10
-266.91794751511065
20
-382.27632603199152
30
0
10
-266.8633613735953
20
-382.34504509358771
30
0
10
-266.80226803831948
20
-382.50966724072282
30
0
10
-266.7971404347083
20
-382.60166074993845
30
0
10
-266.79201283109705
20
-382.69365425915419
30
0
0
SPLINE
5
153
100
AcDbEntity
8
0
100
AcDbSpline
70
0
71
3
72
10
73
6
74
0
42
0.000000001
43
0.0000000001
44
0.0000000001
40
0
40
0
40
0
40
0
40
0.025093696145412549
40
0.025093696145412549
40
0.050213998531837487
40
0.050213998531837487
40
0.050213998531837487
40
0.050213998531837487
10
-266.79201283109705
20
-382.69365425915419
30
0
10
-266.79975092462064
20
-382.77694121678422
30
0
10
-266.80748901814417
20
-382.8602281744142
30
0
10
-266.86385705318105
20
-383.01122739597963
30
0
10
-266.91128990416678
20
-383.07560015459387
30
0
10
-266.96293014734243
20
-383.14568291031367
30
0
0
SPLINE
5
154
100
AcDbEntity
8
0
100
AcDbSpline
70
0
71
3
72
10
73
6
74
0
42
0.000000001
43
0.0000000001
44
0.0000000001
40
0
40
0
40
0
40
0
40
0.037281583639201726
40
0.037281583639201726
40
0.074084808301080413
40
0.074084808301080413
40
0.074084808301080413
40
0.074084808301080413
10
-266.96293014734243
20
-383.14568291031367
30
0
10
-267.06019562301651
20
-383.2230324007536
30
0
10
-267.13649913930607
20
-383.28371208244818
30
0
10
-267.33939538528551
20
-383.35093717408733
30
0
10
-267.45162994122575
20
-383.35362788701696
30
0
10
-267.56386449716609
20
-383.35631859994663
30
0
0
SPLINE
5
155
100
AcDbEntity
8
0
100
AcDbSpline
70
0
71
3
72
10
73
6
74
0
42
0.000000001
43
0.0000000001
44
0.0000000001
40
0
40
0
40
0
40
0
40
0.030948756913726585
40
0.030948756913726585
40
0.06227680180777885
40
0.06227680180777885
40
0.06227680180777885
40
0.06227680180777885
10
-267.56386449716609
20
-383.35631859994663
30
0
10
-267.66681139069658
20
-383.34965202109544
30
0
10
-267.76975828422712
20
-383.34298544224424
30
0
10
-267.95787594646953
20
-383.27892834241754
30
0
10
-268.03010421845391
20
-383.22524486442552
30
0
10
-268.1217126104296
20
-383.15715716193182
30
0
0
LINE
5
156
100
AcDbEntity
8
0
100
AcDbLine
10
-268.17938724684802
20
-378.37439444879016
30
0
11
-268.17377338182848
21
-378.11797591606995
31
3.7314892672502695e-33
0
SPLINE
5
157
100
AcDbEntity
8
0
100
AcDbSpline
70
0
71
3
72
10
73
6
74
0
42
0.000000001
43
0.0000000001
44
0.0000000001
40
0
40
0
40
0
40
0
40
0.009285189390941263
40
0.009285189390941263
40
0.018572295094417532
40
0.018572295094417532
40
0.018572295094417532
40
0.018572295094417532
10
-268.17377338182848
20
-378.11797591606995
30
0
10
-268.14650334289621
20
-378.13261444586954
30
0
10
-268.11923330396399
20
-378.14725297566901
30
0
10
-268.06196410833132
20
-378.1694808170538
30
0
10
-268.03253453782224
20
-378.17684738203377
30
0
10
-268.0019279175865
20
-378.18450857629796
30
0
0
SPLINE
5
158
100
AcDbEntity
8
0
100
AcDbSpline
70
0
71
3
72
10
73
6
74
0
42
0.000000001
43
0.0000000001
44
0.0000000001
40
0
40
0
40
0
40
0
40
0.024318455190417417
40
0.024318455190417417
40
0.046319394449080946
40
0.046319394449080946
40
0.046319394449080946
40
0.046319394449080946
10
-268.0019279175865
20
-378.18450857629796
30
0
10
-267.92131579665562
20
-378.19303239857618
30
0
10
-267.86550537016706
20
-378.1989337214934
30
0
10
-267.7133730630714
20
-378.20666478610133
30
0
10
-267.64094989867004
20
-378.20783641359583
30
0
10
-267.56852673426869
20
-378.20900804109021
30
0
0
LINE
5
159
100
AcDbEntity
8
0
100
AcDbLine
10
-267.56852673426869
20
-378.20900804109021
30
0
11
-267.24118374903748
21
-378.21617468117154
31
0
0
SPLINE
5
160
100
AcDbEntity
8
0
100
AcDbSpline
70
0
71
3
72
10
73
6
74
0
42
0.000000001
43
0.0000000001
44
0.0000000001
40
0
40
0
40
0
40
0
40
0.011364276774816006
40
0.011364276774816006
40
0.023494948756252968
40
0.023494948756252968
40
0.023494948756252968
40
0.023494948756252968
10
-267.24118374903748
20
-378.21617468117154
30
0
10
-267.20330970794168
20
-378.21689669695502
30
0
10
-267.16543566684612
20
-378.21761871273844
30
0
10
-267.08746878360694
20
-378.22304258429631
30
0
10
-267.05783079934253
20
-378.22728381981563
30
0
10
-267.01504010329427
20
-378.23340722612943
30
0
0
SPLINE
5
161
100
AcDbEntity
8
0
100
AcDbSpline
70
0
71
3
72
10
73
6
74
0
42
0.000000001
43
0.0000000001
44
0.0000000001
40
0
40
0
40
0
40
0
40
0.0093136089578804062
40
0.0093136089578804062
40
0.0186695202641015
40
0.0186695202641015
40
0.0186695202641015
40
0.0186695202641015
10
-267.01504010329427
20
-378.23340722612943
30
0
10
-266.98515649978958
20
-378.24182059747238
30
0
10
-266.95527289628478
20
-378.25023396881528
30
0
10
-266.90008592552311
20
-378.27665812492774
30
0
10
-266.87720305068876
20
-378.29356362400711
30
0
10
-266.85031291397468
20
-378.31342962357036
30
0
0
SPLINE
5
162
100
AcDbEntity
8
0
100
AcDbSpline
70
0
71
3
72
10
73
6
74
0
42
0.000000001
43
0.0000000001
44
0.0000000001
40
0
40
0
40
0
40
0
40
0.011565303845501454
40
0.011565303845501454
40
0.022960673293939766
40
0.022960673293939766
40
0.022960673293939766
40
0.022960673293939766
10
-266.85031291397468
20
-378.31342962357036
30
0
10
-266.82392755129905
20
-378.34153644170749
30
0
10
-266.80347348802866
20
-378.36332498574131
30
0
10
-266.76824607409077
20
-378.42178480185652
30
0
10
-266.7559066606139
20
-378.45406238866553
30
0
10
-266.74356724713704
20
-378.48633997547449
30
0
0
SPLINE
5
163
100
AcDbEntity
8
0
100
AcDbSpline
70
0
71
3
72
10
73
6
74
0
42
0.000000001
43
0.0000000001
44
0.0000000001
40
0
40
0
40
0
40
0
40
0.017246927069492147
40
0.017246927069492147
40
0.034201038189035485
40
0.034201038189035485
40
0.034201038189035485
40
0.034201038189035485
10
-266.74356724713704
20
-378.48633997547449
30
0
10
-266.728898094709
20
-378.54192673752516
30
0
10
-266.71767194380584
20
-378.58446671262305
30
0
10
-266.70600293765278
20
-378.68623529596556
30
0
10
-266.70626184733243
20
-378.73747957579428
30
0
10
-266.70652075701207
20
-378.78872385562295
30
0
0
SPLINE
5
164
100
AcDbEntity
8
0
100
AcDbSpline
70
0
71
3
72
10
73
6
74
0
42
0.000000001
43
0.0000000001
44
0.0000000001
40
0
40
0
40
0
40
0
40
0.016790885564924727
40
0.016790885564924727
40
0.033670945745840411
40
0.033670945745840411
40
0.033670945745840411
40
0.033670945745840411
10
-266.70652075701207
20
-378.78872385562295
30
0
10
-266.7093109652854
20
-378.84462388190559
30
0
10
-266.71210117355878
20
-378.90052390818818
30
0
10
-266.73134830504279
20
-379.01009374627915
30
0
10
-266.74697943519453
20
-379.05863632356227
30
0
10
-266.76554658913238
20
-379.116296741984
30
0
0
SPLINE
5
165
100
AcDbEntity
8
0
100
AcDbSpline
70
0
71
3
72
10
73
6
74
0
42
0.000000001
43
0.0000000001
44
0.0000000001
40
0
40
0
40
0
40
0
40
0.013382365961258198
40
0.013382365961258198
40
0.02684235243841325
40
0.02684235243841325
40
0.02684235243841325
40
0.02684235243841325
10
-266.76554658913238
20
-379.116296741984
30
0
10
-266.78319667263798
20
-379.15726426684932
30
0
10
-266.80084675614359
20
-379.19823179171465
30
0
10
-266.85069032085534
20
-379.27004299248563
30
0
10
-266.88054683730576
20
-379.29733895358834
30
0
10
-266.91623501893315
20
-379.32996644444597
30
0
0
SPLINE
5
166
100
AcDbEntity
8
0
100
AcDbSpline
70
0
71
3
72
10
73
6
74
0
42
0.000000001
43
0.0000000001
44
0.0000000001
40
0
40
0
40
0
40
0
40
0.015084545799689941
40
0.015084545799689941
40
0.030041655181876445
40
0.030041655181876445
40
0.030041655181876445
40
0.030041655181876445
10
-266.91623501893315
20
-379.32996644444597
30
0
10
-266.95871203907495
20
-379.35687302570864
30
0
10
-266.99322403792428
20
-379.37873425558007
30
0
10
-267.07736681751055
20
-379.41237300448194
30
0
10
-267.12209799295829
20
-379.42232742615795
30
0
10
-267.16682916840603
20
-379.43228184783391
30
0
0
LINE
5
167
100
AcDbEntity
8
0
100
AcDbLine
10
-267.16682916840603
20
-379.43228184783402
30
0
11
-267.1943079624042
21
-379.19151374012444
31
3.3703774026776627e-33
0
SPLINE
5
168
100
AcDbEntity
8
0
100
AcDbSpline
70
0
71
3
72
10
73
6
74
0
42
0.000000001
43
0.0000000001
44
0.0000000001
40
0
40
0
40
0
40
0
40
0.012741105554358208
40
0.012741105554358208
40
0.025780174510076886
40
0.025780174510076886
40
0.025780174510076886
40
0.025780174510076886
10
-267.1943079624042
20
-379.19151374012444
30
0
10
-267.15318916677154
20
-379.18088474996529
30
0
10
-267.11207037113894
20
-379.1702557598062
30
0
10
-267.03825252445927
20
-379.13215268525892
30
0
10
-267.01231767980119
20
-379.10766875723721
30
0
10
-266.97751338507021
20
-379.07481157770627
30
0
0
SPLINE
5
169
100
AcDbEntity
8
0
100
AcDbSpline
70
0
71
3
72
10
73
6
74
0
42
0.000000001
43
0.0000000001
44
0.0000000001
40
0
40
0
40
0
40
0
40
0.015375513913035333
40
0.015375513913035333
40
0.030318205341411393
40
0.030318205341411393
40
0.030318205341411393
40
0.030318205341411393
10
-266.97751338507021
20
-379.07481157770627
30
0
10
-266.95304937417728
20
-379.02977547817579
30
0
10
-266.93515134413781
20
-378.99682677382037
30
0
10
-266.91398616711575
20
-378.91014568635916
30
0
10
-266.91225440147383
20
-378.86494123899558
30
0
10
-266.91052263583185
20
-378.81973679163201
30
0
0
SPLINE
5
170
100
AcDbEntity
8
0
100
AcDbSpline
70
0
71
3
72
10
73
6
74
0
42
0.000000001
43
0.0000000001
44
0.0000000001
40
0
40
0
40
0
40
0
40
0.015167368431384266
40
0.015167368431384266
40
0.030615607245360981
40
0.030615607245360981
40
0.030615607245360981
40
0.030615607245360981
10
-266.91052263583185
20
-378.81973679163201
30
0
10
-266.91098700204157
20
-378.76918102947059
30
0
10
-266.91145136825122
20
-378.71862526730916
30
0
10
-266.93581529121195
20
-378.62348578899486
30
0
10
-266.95818735009033
20
-378.58668879577408
30
0
10
-266.9876009075935
20
-378.53831012477519
30
0
0
SPLINE
5
171
100
AcDbEntity
8
0
100
AcDbSpline
70
0
71
3
72
10
73
6
74
0
42
0.000000001
43
0.0000000001
44
0.0000000001
40
0
40
0
40
0
40
0
40
0.013245090588863301
40
0.013245090588863301
40
0.026124075166507343
40
0.026124075166507343
40
0.026124075166507343
40
0.026124075166507343
10
-266.9876009075935
20
-378.53831012477519
30
0
10
-267.02228642574408
20
-378.51099412224846
30
0
10
-267.04770271416447
20
-378.49097794732216
30
0
10
-267.11930191816708
20
-378.46756078541409
30
0
10
-267.15839446842148
20
-378.46584071481755
30
0
10
-267.19748701867587
20
-378.46412064422111
30
0
0
SPLINE
5
172
100
AcDbEntity
8
0
100
AcDbSpline
70
0
71
3
72
10
73
6
74
0
42
0.000000001
43
0.0000000001
44
0.0000000001
40
0
40
0
40
0
40
0
40
0.0032067409758287902
40
0.0032067409758287902
40
0.0064135255609656201
40
0.0064135255609656201
40
0.0064135255609656201
40
0.0064135255609656201
10
-267.19748701867587
20
-378.46412064422111
30
0
10
-267.20817574766329
20
-378.46402729760905
30
0
10
-267.21886482634
20
-378.46394411634975
30
0
10
-267.24024324364547
20
-378.46395137140644
30
0
10
-267.25093244493939
20
-378.46401658523411
30
0
10
-267.26162152796826
20
-378.4640817973264
30
0
0
SPLINE
5
173
100
AcDbEntity
8
0
100
AcDbSpline
70
0
71
3
72
10
73
6
74
0
42
0.000000001
43
0.0000000001
44
0.0000000001
40
0
40
0
40
0
40
0
40
0.025592118664986802
40
0.025592118664986802
40
0.050132502416397662
40
0.050132502416397662
40
0.050132502416397662
40
0.050132502416397662
10
-267.26162152796826
20
-378.4640817973264
30
0
10
-267.28613711794429
20
-378.54579030797345
30
0
10
-267.30353401868939
20
-378.60377279385898
30
0
10
-267.33461137209912
20
-378.75243002429193
30
0
10
-267.34519103605697
20
-378.82624078696472
30
0
10
-267.35577070001477
20
-378.90005154963762
30
0
0
SPLINE
5
174
100
AcDbEntity
8
0
100
AcDbSpline
70
0
71
3
72
10
73
6
74
0
42
0.000000001
43
0.0000000001
44
0.0000000001
40
0
40
0
40
0
40
0
40
0.011081976584447015
40
0.011081976584447015
40
0.022609987141746675
40
0.022609987141746675
40
0.022609987141746675
40
0.022609987141746675
10
-267.35577070001477
20
-378.90005154963762
30
0
10
-267.36108374703156
20
-378.93660738863679
30
0
10
-267.36639679404828
20
-378.97316322763595
30
0
10
-267.38024303757089
20
-379.04715487747586
30
0
10
-267.38737249876192
20
-379.07641899846828
30
0
10
-267.39737440313161
20
-379.11747356511563
30
0
0
SPLINE
5
175
100
AcDbEntity
8
0
100
AcDbSpline
70
0
71
3
72
10
73
6
74
0
42
0.000000001
43
0.0000000001
44
0.0000000001
40
0
40
0
40
0
40
0
40
0.0098104292968663621
40
0.0098104292968663621
40
0.019626366160533398
40
0.019626366160533398
40
0.019626366160533398
40
0.019626366160533398
10
-267.39737440313161
20
-379.11747356511563
30
0
10
-267.4079061495961
20
-379.14843266563821
30
0
10
-267.4184378960606
20
-379.17939176616085
30
0
10
-267.44648519449362
20
-379.23796252669467
30
0
10
-267.46355004966381
20
-379.26462293359378
30
0
10
-267.48172836158909
20
-379.29302289291547
30
0
0
SPLINE
5
176
100
AcDbEntity
8
0
100
AcDbSpline
70
0
71
3
72
10
73
6
74
0
42
0.000000001
43
0.0000000001
44
0.0000000001
40
0
40
0
40
0
40
0
40
0.0099979803340840643
40
0.0099979803340840643
40
0.019988994789567414
40
0.019988994789567414
40
0.019988994789567414
40
0.019988994789567414
10
-267.48172836158909
20
-379.29302289291547
30
0
10
-267.50284797013416
20
-379.31880320471896
30
0
10
-267.52254033741821
20
-379.34284130976482
30
0
10
-267.57085616106139
20
-379.38399700778695
30
0
10
-267.59860509958219
20
-379.40037980000284
30
0
10
-267.62635403810287
20
-379.41676259221873
30
0
0
SPLINE
5
177
100
AcDbEntity
8
0
100
AcDbSpline
70
0
71
3
72
10
73
6
74
0
42
0.000000001
43
0.0000000001
44
0.0000000001
40
0
40
0
40
0
40
0
40
0.010481898424060316
40
0.010481898424060316
40
0.020957564975662809
40
0.020957564975662809
40
0.020957564975662809
40
0.020957564975662809
10
-267.62635403810287
20
-379.41676259221873
30
0
10
-267.65839557696597
20
-379.43069527778101
30
0
10
-267.68842202509177
20
-379.44375173746221
30
0
10
-267.75338099092187
20
-379.45811361284132
30
0
10
-267.78722904705012
20
-379.45918689234497
30
0
10
-267.8210771031782
20
-379.46026017184869
30
0
0
SPLINE
5
178
100
AcDbEntity
8
0
100
AcDbSpline
70
0
71
3
72
10
73
6
74
0
42
0.000000001
43
0.0000000001
44
0.0000000001
40
0
40
0
40
0
40
0
40
0.017126853213551185
40
0.017126853213551185
40
0.034258710195527127
40
0.034258710195527127
40
0.034258710195527127
40
0.034258710195527127
10
-267.8210771031782
20
-379.46026017184869
30
0
10
-267.87782244976995
20
-379.45400094877402
30
0
10
-267.93456779636176
20
-379.44774172569936
30
0
10
-268.03333291007016
20
-379.40307922343942
30
0
10
-268.07418291455394
20
-379.36519358344731
30
0
10
-268.1169707359287
20
-379.32551074822766
30
0
0
SPLINE
5
179
100
AcDbEntity
8
0
100
AcDbSpline
70
0
71
3
72
10
73
6
74
0
42
0.000000001
43
0.0000000001
44
0.0000000001
40
0
40
0
40
0
40
0
40
0.022230600110380503
40
0.022230600110380503
40
0.044169910337028391
40
0.044169910337028391
40
0.044169910337028391
40
0.044169910337028391
10
-268.1169707359287
20
-379.32551074822766
30
0
10
-268.15686800609376
20
-379.26306625854357
30
0
10
-268.18810969325045
20
-379.21416889781432
30
0
10
-268.22251186279152
20
-379.08964686349293
30
0
10
-268.22369197203153
20
-379.02286137064141
30
0
10
-268.22487208127154
20
-378.95607587778983
30
0
0
SPLINE
5
180
100
AcDbEntity
8
0
100
AcDbSpline
70
0
71
3
72
10
73
6
74
0
42
0.000000001
43
0.0000000001
44
0.0000000001
40
0
40
0
40
0
40
0
40
0.013846534939503274
40
0.013846534939503274
40
0.027702674032518887
40
0.027702674032518887
40
0.027702674032518887
40
0.027702674032518887
10
-268.22487208127154
20
-378.95607587778983
30
0
10
-268.22206297445666
20
-378.91000632499413
30
0
10
-268.21925386764173
20
-378.86393677219826
30
0
10
-268.20151614324271
20
-378.77420430836366
30
0
10
-268.18689753547142
20
-378.73215390069061
30
0
10
-268.17122206817578
20
-378.68706343786698
30
0
0
SPLINE
5
181
100
AcDbEntity
8
0
100
AcDbSpline
70
0
71
3
72
10
73
6
74
0
42
0.000000001
43
0.0000000001
44
0.0000000001
40
0
40
0
40
0
40
0
40
0.017180877682444834
40
0.017180877682444834
40
0.034212786998407234
40
0.034212786998407234
40
0.034212786998407234
40
0.034212786998407234
10
-268.17122206817578
20
-378.68706343786698
30
0
10
-268.14645595892125
20
-378.6354257962505
30
0
10
-268.12637593660253
20
-378.59355870338226
30
0
10
-268.06917453795228
20
-378.50693484591801
30
0
10
-268.03548096005824
20
-378.46717117895946
30
0
10
-268.00178738216425
20
-378.42740751200103
30
0
0
SPLINE
5
182
100
AcDbEntity
8
0
100
AcDbSpline
70
0
71
3
72
10
73
6
74
0
42
0.000000001
43
0.0000000001
44
0.0000000001
40
0
40
0
40
0
40
0
40
0.0093532669688382551
40
0.0093532669688382551
40
0.01874514203178165
40
0.01874514203178165
40
0.01874514203178165
40
0.01874514203178165
10
-268.00178738216425
20
-378.42740751200103
30
0
10
-268.03257423234436
20
-378.42248715741891
30
0
10
-268.06336108252447
20
-378.41756680283675
30
0
10
-268.122754606733
20
-378.40009479807543
30
0
10
-268.14888016671642
20
-378.38823880804063
30
0
10
-268.17938724684802
20
-378.37439444879016
30
0
0
SPLINE
5
183
100
AcDbEntity
8
0
100
AcDbSpline
70
0
71
3
72
10
73
6
74
0
42
0.000000001
43
0.0000000001
44
0.0000000001
40
0
40
0
40
0
40
0
40
0.024600814668593568
40
0.024600814668593568
40
0.048980755968261347
40
0.048980755968261347
40
0.048980755968261347
40
0.048980755968261347
10
-268.6353109778758
20
-377.69576738882211
30
0
10
-268.67427957429351
20
-377.62361550836999
30
0
10
-268.70578548883026
20
-377.5652810753096
30
0
10
-268.74052104494831
20
-377.42381728332873
30
0
10
-268.74198132365029
20
-377.34914471545653
30
0
10
-268.74344160235228
20
-377.27447214758428
30
0
0
SPLINE
5
184
100
AcDbEntity
8
0
100
AcDbSpline
70
0
71
3
72
10
73
6
74
0
42
0.000000001
43
0.0000000001
44
0.0000000001
40
0
40
0
40
0
40
0
40
0.019151997170871685
40
0.019151997170871685
40
0.038449528051997979
40
0.038449528051997979
40
0.038449528051997979
40
0.038449528051997979
10
-268.74344160235228
20
-377.27447214758428
30
0
10
-268.73977243187477
20
-377.21073768607459
30
0
10
-268.73610326139726
20
-377.14700322456497
30
0
10
-268.70695412435191
20
-377.02460435969977
30
0
10
-268.68290614374649
20
-376.97269020472135
30
0
10
-268.65357325228058
20
-376.90936712165205
30
0
0
SPLINE
5
185
100
AcDbEntity
8
0
100
AcDbSpline
70
0
71
3
72
10
73
6
74
0
42
0.000000001
43
0.0000000001
44
0.0000000001
40
0
40
0
40
0
40
0
40
0.016083823698679053
40
0.016083823698679053
40
0.03218273399460074
40
0.03218273399460074
40
0.03218273399460074
40
0.03218273399460074
10
-268.65357325228058
20
-376.90936712165205
30
0
10
-268.62397895887915
20
-376.86466248771416
30
0
10
-268.59438466547766
20
-376.81995785377632
30
0
10
-268.51843900166114
20
-376.74855087881861
30
0
10
-268.47364804477235
20
-376.72334737712254
30
0
10
-268.42511114754615
20
-376.69603606572093
30
0
0
SPLINE
5
186
100
AcDbEntity
8
0
100
AcDbSpline
70
0
71
3
72
10
73
6
74
0
42
0.000000001
43
0.0000000001
44
0.0000000001
40
0
40
0
40
0
40
0
40
0.027998713660152875
40
0.027998713660152875
40
0.054605989060837939
40
0.054605989060837939
40
0.054605989060837939
40
0.054605989060837939
10
-268.42511114754615
20
-376.69603606572093
30
0
10
-268.33562043680013
20
-376.66954600285908
30
0
10
-268.27291433731313
20
-376.65098442810574
30
0
10
-268.10828742897178
20
-376.63324559873308
30
0
10
-268.02656817095328
20
-376.63510092742746
30
0
10
-267.94484891293473
20
-376.63695625612183
30
0
0
LINE
5
187
100
AcDbEntity
8
0
100
AcDbLine
10
-267.94484891293473
20
-376.63695625612183
30
0
11
-266.69276148790738
21
-376.66436866552215
31
0
0
LINE
5
188
100
AcDbEntity
8
0
100
AcDbLine
10
-266.69276148790738
20
-376.66436866552215
30
0
11
-266.6977184176601
21
-376.89078106581314
31
-1.8055593228630336e-33
0
LINE
5
189
100
AcDbEntity
8
0
100
AcDbLine
10
-266.6977184176601
20
-376.89078106581314
30
-1.8055593228630336e-33
11
-266.8723013530485
21
-376.88695885755237
31
0
0
SPLINE
5
190
100
AcDbEntity
8
0
100
AcDbSpline
70
0
71
3
72
10
73
6
74
0
42
0.000000001
43
0.0000000001
44
0.0000000001
40
0
40
0
40
0
40
0
40
0.025037759297123072
40
0.025037759297123072
40
0.050080910550584994
40
0.050080910550584994
40
0.050080910550584994
40
0.050080910550584994
10
-266.87230135304844
20
-376.88695885755232
30
0
10
-266.81373625045558
20
-376.94641948681112
30
0
10
-266.75517114786265
20
-377.00588011606987
30
0
10
-266.68879095655222
20
-377.14818546029869
30
0
10
-266.68166157030186
20
-377.22958864034968
30
0
10
-266.67424101358029
20
-377.31431639862615
30
0
0
SPLINE
5
191
100
AcDbEntity
8
0
100
AcDbSpline
70
0
71
3
72
10
73
6
74
0
42
0.000000001
43
0.0000000001
44
0.0000000001
40
0
40
0
40
0
40
0
40
0.017896929962310959
40
0.017896929962310959
40
0.03582339387617145
40
0.03582339387617145
40
0.03582339387617145
40
0.03582339387617145
10
-266.67424101358029
20
-377.31431639862615
30
0
10
-266.67893080776417
20
-377.37378820584246
30
0
10
-266.68362060194801
20
-377.43326001305883
30
0
10
-266.71744796752802
20
-377.54464559756593
30
0
10
-266.74570729446253
20
-377.59352208500053
30
0
10
-266.77706189298272
20
-377.64775206167832
30
0
0
SPLINE
5
192
100
AcDbEntity
8
0
100
AcDbSpline
70
0
71
3
72
10
73
6
74
0
42
0.000000001
43
0.0000000001
44
0.0000000001
40
0
40
0
40
0
40
0
40
0.01870150737173842
40
0.01870150737173842
40
0.037371732345373485
40
0.037371732345373485
40
0.037371732345373485
40
0.037371732345373485
10
-266.77706189298272
20
-377.64775206167832
30
0
10
-266.81714599723421
20
-377.69549444801106
30
0
10
-266.85324730077673
20
-377.73849309829978
30
0
10
-266.94567866673299
20
-377.80847330927156
30
0
10
-266.9994551789697
20
-377.83357393188629
30
0
10
-267.05323169120641
20
-377.85867455450102
30
0
0
SPLINE
5
193
100
AcDbEntity
8
0
100
AcDbSpline
70
0
71
3
72
10
73
6
74
0
42
0.000000001
43
0.0000000001
44
0.0000000001
40
0
40
0
40
0
40
0
40
0.020481669595151186
40
0.020481669595151186
40
0.040943594558205218
40
0.040943594558205218
40
0.040943594558205218
40
0.040943594558205218
10
-267.05323169120641
20
-377.85867455450102
30
0
10
-267.11790527385466
20
-377.88054749137507
30
0
10
-267.17752443368556
20
-377.90071099656637
30
0
10
-267.30548392123734
20
-377.9226548190918
30
0
10
-267.37112915586403
20
-377.92399210806309
30
0
10
-267.43677439049077
20
-377.92532939703437
30
0
0
SPLINE
5
194
100
AcDbEntity
8
0
100
AcDbSpline
70
0
71
3
72
10
73
6
74
0
42
0.000000001
43
0.0000000001
44
0.0000000001
40
0
40
0
40
0
40
0
40
0.027980851732655694
40
0.027980851732655694
40
0.05600666750911841
40
0.05600666750911841
40
0.05600666750911841
40
0.05600666750911841
10
-267.43677439049077
20
-377.92532939703437
30
0
10
-267.52971246659951
20
-377.91747352554756
30
0
10
-267.62265054270819
20
-377.90961765406087
30
0
10
-267.7941810847866
20
-377.85204310125835
30
0
10
-267.86815050890948
20
-377.8038010829909
30
0
10
-267.95012051725837
20
-377.75034117456215
30
0
0
SPLINE
5
195
100
AcDbEntity
8
0
100
AcDbSpline
70
0
71
3
72
10
73
6
74
0
42
0.000000001
43
0.0000000001
44
0.0000000001
40
0
40
0
40
0
40
0
40
0.028545735197136244
40
0.028545735197136244
40
0.057046306330205077
40
0.057046306330205077
40
0.057046306330205077
40
0.057046306330205077
10
-267.95012051725837
20
-377.75034117456215
30
0
10
-268.0166219593475
20
-377.68228570405375
30
0
10
-268.0766712896629
20
-377.62083312047145
30
0
10
-268.14411850484504
20
-377.46453494066287
30
0
10
-268.14980847136229
20
-377.37389285404004
30
0
10
-268.15549843787954
20
-377.2832507674172
30
0
0
SPLINE
5
196
100
AcDbEntity
8
0
100
AcDbSpline
70
0
71
3
72
10
73
6
74
0
42
0.000000001
43
0.0000000001
44
0.0000000001
40
0
40
0
40
0
40
0
40
0.023926492903824929
40
0.023926492903824929
40
0.047848123890988886
40
0.047848123890988886
40
0.047848123890988886
40
0.047848123890988886
10
-268.15549843787954
20
-377.2832507674172
30
0
10
-268.14530108323487
20
-377.20415038682256
30
0
10
-268.13549305821664
20
-377.12807001707449
30
0
10
-268.06905726831172
20
-376.9959276778298
30
0
10
-268.01309520716865
20
-376.94116681987373
30
0
10
-267.95713314602557
20
-376.88640596191772
30
0
0
SPLINE
5
197
100
AcDbEntity
8
0
100
AcDbSpline
70
0
71
3
72
10
73
6
74
0
42
0.000000001
43
0.0000000001
44
0.0000000001
40
0
40
0
40
0
40
0
40
0.015833943789184346
40
0.015833943789184346
40
0.03306411280547264
40
0.03306411280547264
40
0.03306411280547264
40
0.03306411280547264
10
-267.95713314602557
20
-376.88640596191772
30
0
10
-268.00988133588783
20
-376.88457919220593
30
0
10
-268.06262952574991
20
-376.88275242249426
30
0
10
-268.17246453490475
20
-376.88553280412873
30
0
10
-268.21333655145304
20
-376.89031173170002
30
0
10
-268.27258902081508
20
-376.89723977889241
30
0
0
SPLINE
5
198
100
AcDbEntity
8
0
100
AcDbSpline
70
0
71
3
72
10
73
6
74
0
42
0.000000001
43
0.0000000001
44
0.0000000001
40
0
40
0
40
0
40
0
40
0.011823037589264495
40
0.011823037589264495
40
0.023662223877736675
40
0.023662223877736675
40
0.023662223877736675
40
0.023662223877736675
10
-268.27258902081508
20
-376.89723977889241
30
0
10
-268.31018429677562
20
-376.909061504715
30
0
10
-268.34777957273604
20
-376.92088323053758
30
0
10
-268.41257378848746
20
-376.96105291066294
30
0
10
-268.43814976293561
20
-376.98842609239654
30
0
10
-268.46628638818197
20
-377.01853986021405
30
0
0
SPLINE
5
199
100
AcDbEntity
8
0
100
AcDbSpline
70
0
71
3
72
10
73
6
74
0
42
0.000000001
43
0.0000000001
44
0.0000000001
40
0
40
0
40
0
40
0
40
0.01569149670464378
40
0.01569149670464378
40
0.031105393763355478
40
0.031105393763355478
40
0.031105393763355478
40
0.031105393763355478
10
-268.46628638818197
20
-377.01853986021405
30
0
10
-268.49219613332542
20
-377.06397659625998
30
0
10
-268.51195159292922
20
-377.09862084299084
30
0
10
-268.53557957429871
20
-377.18703010020596
30
0
10
-268.5379127807372
20
-377.23365807869845
30
0
10
-268.54024598717575
20
-377.28028605719089
30
0
0
SPLINE
5
200
100
AcDbEntity
8
0
100
AcDbSpline
70
0
71
3
72
10
73
6
74
0
42
0.000000001
43
0.0000000001
44
0.0000000001
40
0
40
0
40
0
40
0
40
0.013339822005794784
40
0.013339822005794784
40
0.026853700279793412
40
0.026853700279793412
40
0.026853700279793412
40
0.026853700279793412
10
-268.54024598717575
20
-377.28028605719089
30
0
10
-268.5396526937505
20
-377.32474817232628
30
0
10
-268.53905940032524
20
-377.36921028746167
30
0
10
-268.51906189319033
20
-377.45373180206434
30
0
10
-268.5008002692993
20
-377.48785995212421
30
0
10
-268.47751414431372
20
-377.53137811746177
30
0
0
SPLINE
5
201
100
AcDbEntity
8
0
100
AcDbSpline
70
0
71
3
72
10
73
6
74
0
42
0.000000001
43
0.0000000001
44
0.0000000001
40
0
40
0
40
0
40
0
40
0.010460524669736671
40
0.010460524669736671
40
0.020816086614531756
40
0.020816086614531756
40
0.020816086614531756
40
0.020816086614531756
10
-268.47751414431372
20
-377.53137811746177
30
0
10
-268.45346408886252
20
-377.55662492393043
30
0
10
-268.43419719025303
20
-377.57685055964396
30
0
10
-268.38046356478435
20
-377.60515501742935
30
0
10
-268.34942773448029
20
-377.61162780561591
30
0
10
-268.31839190417622
20
-377.61810059380247
30
0
0
LINE
5
202
100
AcDbEntity
8
0
100
AcDbLine
10
-268.31839190417622
20
-377.61810059380252
30
0
11
-268.28815536222118
21
-377.85756499682947
31
-3.8518598887744717e-33
0
SPLINE
5
203
100
AcDbEntity
8
0
100
AcDbSpline
70
0
71
3
72
12
73
8
74
0
42
0.000000001
43
0.0000000001
44
0.0000000001
40
0
40
0
40
0
40
0
40
0.020604504509636634
40
0.020604504509636634
40
0.029385359394868728
40
0.029385359394868728
40
0.035681674523609867
40
0.035681674523609867
40
0.035681674523609867
40
0.035681674523609867
10
-268.28815536222118
20
-377.85756499682947
30
0
10
-268.35666199670305
20
-377.85266454451011
30
0
10
-268.42516863118499
20
-377.8477640921908
30
0
10
-268.50817781818341
20
-377.81032649780514
30
0
10
-268.53451977018716
20
-377.79372492686502
30
0
10
-268.59077794021016
20
-377.74311993018154
30
0
10
-268.61304445904301
20
-377.71944365950174
30
0
10
-268.6353109778758
20
-377.69576738882211
30
0
0
SPLINE
5
204
100
AcDbEntity
8
0
100
AcDbSpline
70
0
71
3
72
10
73
6
74
0
42
0.000000001
43
0.0000000001
44
0.0000000001
40
0
40
0
40
0
40
0
40
0.013133262119385911
40
0.013133262119385911
40
0.026237814019996211
40
0.026237814019996211
40
0.026237814019996211
40
0.026237814019996211
10
-267.84067489491821
20
-373.87322754766524
30
0
10
-267.8641433106647
20
-373.91018301418427
30
0
10
-267.88500078030717
20
-373.94302705143724
30
0
10
-267.90994339378489
20
-374.01956587466481
30
0
10
-267.91329454907122
20
-374.06087226264333
30
0
10
-267.91664570435762
20
-374.10217865062191
30
0
0
SPLINE
5
205
100
AcDbEntity
8
0
100
AcDbSpline
70
0
71
3
72
10
73
6
74
0
42
0.000000001
43
0.0000000001
44
0.0000000001
40
0
40
0
40
0
40
0
40
0.017244781657590604
40
0.017244781657590604
40
0.034492451806613589
40
0.034492451806613589
40
0.034492451806613589
40
0.034492451806613589
10
-267.91664570435762
20
-374.10217865062191
30
0
10
-267.91285836870986
20
-374.15953635303993
30
0
10
-267.90907103306211
20
-374.21689405545794
30
0
10
-267.86919355869634
20
-374.31883719732059
30
0
10
-267.83345637399827
20
-374.36250436921347
30
0
10
-267.79642944346392
20
-374.407747478148
30
0
0
SPLINE
5
206
100
AcDbEntity
8
0
100
AcDbSpline
70
0
71
3
72
10
73
6
74
0
42
0.000000001
43
0.0000000001
44
0.0000000001
40
0
40
0
40
0
40
0
40
0.02238675104290716
40
0.02238675104290716
40
0.044506341741337704
40
0.044506341741337704
40
0.044506341741337704
40
0.044506341741337704
10
-267.79642944346392
20
-374.407747478148
30
0
10
-267.73695938299232
20
-374.4528233024065
30
0
10
-267.69001221243713
20
-374.48840729866617
30
0
10
-267.56775534970473
20
-374.53475166752185
30
0
10
-267.50080396579233
20
-374.54276563989765
30
0
10
-267.43385258187993
20
-374.55077961227346
30
0
0
LINE
5
207
100
AcDbEntity
8
0
100
AcDbLine
10
-267.43385258187993
20
-374.55077961227346
30
0
11
-267.41020267743949
21
-373.47054811855276
31
-1.7333369499485123e-32
0
SPLINE
5
208
100
AcDbEntity
8
0
100
AcDbSpline
70
0
71
3
72
10
73
6
74
0
42
0.000000001
43
0.0000000001
44
0.0000000001
40
0
40
0
40
0
40
0
40
0.0032751339925472071
40
0.0032751339925472071
40
0.0066869235330232809
40
0.0066869235330232809
40
0.0066869235330232809
40
0.0066869235330232809
10
-267.41020267743949
20
-373.47054811855276
30
0
10
-267.39928600927823
20
-373.47044953230807
30
0
10
-267.388369341116
20
-373.47035094606338
30
0
10
-267.36608096074684
20
-373.4703535459098
30
0
10
-267.35719816097406
20
-373.4704629488557
30
0
10
-267.34470414469052
20
-373.47061682851341
30
0
0
SPLINE
5
209
100
AcDbEntity
8
0
100
AcDbSpline
70
0
71
3
72
10
73
6
74
0
42
0.000000001
43
0.0000000001
44
0.0000000001
40
0
40
0
40
0
40
0
40
0.030583185311773575
40
0.030583185311773575
40
0.061489007368896745
40
0.061489007368896745
40
0.061489007368896745
40
0.061489007368896745
10
-267.34470414469052
20
-373.47061682851341
30
0
10
-267.24298991142837
20
-373.47745670463672
30
0
10
-267.14127567816615
20
-373.48429658075997
30
0
10
-266.95523030058763
20
-373.54760066372506
30
0
10
-266.88287280938334
20
-373.60057969666536
30
0
10
-266.79225210116937
20
-373.66693077387424
30
0
0
SPLINE
5
210
100
AcDbEntity
8
0
100
AcDbSpline
70
0
71
3
72
10
73
6
74
0
42
0.000000001
43
0.0000000001
44
0.0000000001
40
0
40
0
40
0
40
0
40
0.028034152045472771
40
0.028034152045472771
40
0.056045574664319128
40
0.056045574664319128
40
0.056045574664319128
40
0.056045574664319128
10
-266.79225210116937
20
-373.66693077387424
30
0
10
-266.73272832919082
20
-373.73896753394689
30
0
10
-266.67751098198585
20
-373.8057925798106
30
0
10
-266.61571710675781
20
-373.96579046889343
30
0
10
-266.61029550300276
20
-374.05584953730704
30
0
10
-266.60487389924776
20
-374.14590860572054
30
0
0
SPLINE
5
211
100
AcDbEntity
8
0
100
AcDbSpline
70
0
71
3
72
10
73
6
74
0
42
0.000000001
43
0.0000000001
44
0.0000000001
40
0
40
0
40
0
40
0
40
0.027811203314132955
40
0.027811203314132955
40
0.055652258046349615
40
0.055652258046349615
40
0.055652258046349615
40
0.055652258046349615
10
-266.60487389924776
20
-374.14590860572054
30
0
10
-266.61430507009044
20
-374.23813163256727
30
0
10
-266.62373624093317
20
-374.33035465941384
30
0
10
-266.69382494212419
20
-374.49208633842949
30
0
10
-266.75298600667389
20
-374.55799051334219
30
0
10
-266.81742573699955
20
-374.62977501030866
30
0
0
SPLINE
5
212
100
AcDbEntity
8
0
100
AcDbSpline
70
0
71
3
72
10
73
6
74
0
42
0.000000001
43
0.0000000001
44
0.0000000001
40
0
40
0
40
0
40
0
40
0.034351709679110567
40
0.034351709679110567
40
0.068350039973048976
40
0.068350039973048976
40
0.068350039973048976
40
0.068350039973048976
10
-266.81742573699955
20
-374.62977501030866
30
0
10
-266.91261771174266
20
-374.69341495870606
30
0
10
-266.988719002077
20
-374.74429195966053
30
0
10
-267.18104130692689
20
-374.8006451102072
30
0
10
-267.28499130617047
20
-374.80311062926046
30
0
10
-267.38894130541405
20
-374.80557614831378
30
0
0
SPLINE
5
213
100
AcDbEntity
8
0
100
AcDbSpline
70
0
71
3
72
10
73
6
74
0
42
0.000000001
43
0.0000000001
44
0.0000000001
40
0
40
0
40
0
40
0
40
0.030295579485624897
40
0.030295579485624897
40
0.060881227328497503
40
0.060881227328497503
40
0.060881227328497503
40
0.060881227328497503
10
-267.38894130541405
20
-374.80557614831378
30
0
10
-267.48968278239215
20
-374.79856340607449
30
0
10
-267.5904242593702
20
-374.79155066383527
30
0
10
-267.77405788541989
20
-374.72775790958929
30
0
10
-267.84562569676029
20
-374.67437343894778
30
0
10
-267.93454380246794
20
-374.60804688913805
30
0
0
SPLINE
5
214
100
AcDbEntity
8
0
100
AcDbSpline
70
0
71
3
72
10
73
6
74
0
42
0.000000001
43
0.0000000001
44
0.0000000001
40
0
40
0
40
0
40
0
40
0.030426595006691742
40
0.030426595006691742
40
0.06073653416092778
40
0.06073653416092778
40
0.06073653416092778
40
0.06073653416092778
10
-267.93454380246794
20
-374.60804688913805
30
0
10
-267.99675966432557
20
-374.52794941576281
30
0
10
-268.05028060791852
20
-374.4590458881662
30
0
10
-268.11019069852455
20
-374.28850463140526
30
0
10
-268.11436386036706
20
-374.19381364119988
30
0
10
-268.11853702220958
20
-374.09912265099445
30
0
0
SPLINE
5
215
100
AcDbEntity
8
0
100
AcDbSpline
70
0
71
3
72
10
73
6
74
0
42
0.000000001
43
0.0000000001
44
0.0000000001
40
0
40
0
40
0
40
0
40
0.022312796151220459
40
0.022312796151220459
40
0.044759751718638982
40
0.044759751718638982
40
0.044759751718638982
40
0.044759751718638982
10
-268.11853702220958
20
-374.09912265099445
30
0
10
-268.11329962190041
20
-374.02493129633888
30
0
10
-268.10806222159124
20
-373.95073994168342
30
0
10
-268.06519955285137
20
-373.81261028788458
30
0
10
-268.02949540890063
20
-373.75555430628111
30
0
10
-267.98670580588134
20
-373.68717561035004
30
0
0
SPLINE
5
216
100
AcDbEntity
8
0
100
AcDbSpline
70
0
71
3
72
10
73
6
74
0
42
0.000000001
43
0.0000000001
44
0.0000000001
40
0
40
0
40
0
40
0
40
0.022377716613445814
40
0.022377716613445814
40
0.044708478191705092
40
0.044708478191705092
40
0.044708478191705092
40
0.044708478191705092
10
-267.98670580588134
20
-373.68717561035004
30
0
10
-267.93495307266886
20
-373.63345709344276
30
0
10
-267.88886016679635
20
-373.58561338761842
30
0
10
-267.7716970925257
20
-373.5145824464999
30
0
10
-267.70423066178193
20
-373.49349657997033
30
0
10
-267.63676423103823
20
-373.47241071344069
30
0
0
LINE
5
217
100
AcDbEntity
8
0
100
AcDbLine
10
-267.63676423103823
20
-373.47241071344081
30
0
11
-267.61094806506395
21
-373.7267880008423
31
1.9259299443872359e-33
0
SPLINE
5
218
100
AcDbEntity
8
0
100
AcDbSpline
70
0
71
3
72
10
73
6
74
0
42
0.000000001
43
0.0000000001
44
0.0000000001
40
0
40
0
40
0
40
0
40
0.013970305494033533
40
0.013970305494033533
40
0.028119989836125729
40
0.028119989836125729
40
0.028119989836125729
40
0.028119989836125729
10
-267.61094806506395
20
-373.7267880008423
30
0
10
-267.65459482572032
20
-373.74302097865331
30
0
10
-267.69824158637675
20
-373.75925395646436
30
0
10
-267.77587460485859
20
-373.80751755829419
30
0
10
-267.80437851464148
20
-373.83642162040786
30
0
10
-267.84067489491821
20
-373.87322754766524
30
0
0
LINE
5
219
100
AcDbEntity
8
0
100
AcDbLine
10
-271.55701240021097
20
-390.04268706799837
30
0
11
-269.85482822151482
21
-390.07995361077201
31
0
0
LINE
5
220
100
AcDbEntity
8
0
100
AcDbLine
10
-269.85482822151482
20
-390.07995361077201
30
0
11
-271.54435133106625
21
-389.46438089899351
31
0
0
LINE
5
221
100
AcDbEntity
8
0
100
AcDbLine
10
-271.54435133106625
20
-389.46438089899351
30
0
11
-271.53912565491976
21
-389.22569325593713
31
2.4074124304840448e-34
0
LINE
5
222
100
AcDbEntity
8
0
100
AcDbLine
10
-271.53912565491976
20
-389.22569325593713
30
2.4074124304840448e-34
11
-269.85286309113309
21
-388.68129865304491
31
0
0
LINE
5
223
100
AcDbEntity
8
0
100
AcDbLine
10
-269.85286309113309
20
-388.68129865304491
30
0
11
-271.52640486290466
21
-388.64465918899521
31
0
0
LINE
5
224
100
AcDbEntity
8
0
100
AcDbLine
10
-271.52640486290466
20
-388.64465918899521
30
0
11
-271.52082085442794
21
-388.38960438177963
31
1.0833355937178202e-33
0
LINE
5
225
100
AcDbEntity
8
0
100
AcDbLine
10
-271.52082085442794
20
-388.38960438177963
30
1.0833355937178202e-33
11
-269.52130012088173
21
-388.43338062284465
31
0
0
LINE
5
226
100
AcDbEntity
8
0
100
AcDbLine
10
-269.52130012088173
20
-388.43338062284465
30
0
11
-269.52909384621023
21
-388.78936631295221
31
-1.8055593228630336e-33
0
LINE
5
227
100
AcDbEntity
8
0
100
AcDbLine
10
-269.52909384621023
20
-388.78936631295221
30
-1.8055593228630336e-33
11
-270.93078304349194
21
-389.23764724667694
31
0
0
SPLINE
5
228
100
AcDbEntity
8
0
100
AcDbSpline
70
0
71
3
72
10
73
6
74
0
42
0.000000001
43
0.0000000001
44
0.0000000001
40
0
40
0
40
0
40
0
40
0.016890723076777397
40
0.016890723076777397
40
0.03444775691319131
40
0.03444775691319131
40
0.03444775691319131
40
0.03444775691319131
10
-270.93078304349194
20
-389.23764724667694
30
0
10
-270.98444860546897
20
-389.25467571866682
30
0
10
-271.03811416744679
20
-389.27170419065703
30
0
10
-271.14782806558617
20
-389.30556638570397
30
0
10
-271.19189926530538
20
-389.31866605730204
30
0
10
-271.25363566830583
20
-389.33701651315778
30
0
0
SPLINE
5
229
100
AcDbEntity
8
0
100
AcDbSpline
70
0
71
3
72
10
73
6
74
0
42
0.000000001
43
0.0000000001
44
0.0000000001
40
0
40
0
40
0
40
0
40
0.01780614070425662
40
0.01780614070425662
40
0.034877079578097242
40
0.034877079578097242
40
0.034877079578097242
40
0.034877079578097242
10
-271.25363566830583
20
-389.33701651315778
30
0
10
-271.19740003647195
20
-389.3560014431115
30
0
10
-271.15750733927473
20
-389.36946906207936
30
0
10
-271.05746126039355
20
-389.4042558998313
30
0
10
-271.00860718441891
20
-389.421613633633
30
0
10
-270.95975310844062
20
-389.43897136743601
30
0
0
LINE
5
230
100
AcDbEntity
8
0
100
AcDbLine
10
-270.95975310844062
20
-389.43897136743607
30
0
11
-269.55435626081379
21
-389.94325071578066
31
0
0
LINE
5
231
100
AcDbEntity
8
0
100
AcDbLine
10
-269.55435626081379
20
-389.94325071578066
30
0
11
-269.56307567595684
21
-390.34151815352283
31
3.009265538105056e-33
0
LINE
5
232
100
AcDbEntity
8
0
100
AcDbLine
10
-269.56307567595684
20
-390.34151815352283
30
3.009265538105056e-33
11
-271.56259640950304
21
-390.29774191245787
31
0
0
LINE
5
233
100
AcDbEntity
8
0
100
AcDbLine
10
-271.56259640950304
20
-390.29774191245787
30
0
11
-271.55701240021097
21
-390.04268706799837
31
0
0
LINE
5
234
100
AcDbEntity
8
0
100
AcDbLine
10
-271.45258844201777
20
-385.27302515992119
30
0
11
-269.45306770847156
21
-385.31680140098615
31
0
0
LINE
5
235
100
AcDbEntity
8
0
100
AcDbLine
10
-269.45306770847156
20
-385.31680140098615
30
0
11
-269.45841283198973
21
-385.56094491440484
31
-1.4444474582904269e-33
0
LINE
5
236
100
AcDbEntity
8
0
100
AcDbLine
10
-269.45841283198973
20
-385.56094491440484
30
-1.4444474582904269e-33
11
-270.17583971012743
21
-385.54523802453019
31
0
0
SPLINE
5
237
100
AcDbEntity
8
0
100
AcDbSpline
70
0
71
3
72
10
73
6
74
0
42
0.000000001
43
0.0000000001
44
0.0000000001
40
0
40
0
40
0
40
0
40
0.011453429456038946
40
0.011453429456038946
40
0.022901814350277671
40
0.022901814350277671
40
0.022901814350277671
40
0.022901814350277671
10
-270.17583971012743
20
-385.54523802453019
30
0
10
-270.14687228575269
20
-385.57010679020635
30
0
10
-270.11949266711093
20
-385.59361241195234
30
0
10
-270.07305534877412
20
-385.65021583108881
30
0
10
-270.0546627340122
20
-385.68249425193108
30
0
10
-270.03627011925028
20
-385.71477267277339
30
0
0
SPLINE
5
238
100
AcDbEntity
8
0
100
AcDbSpline
70
0
71
3
72
10
73
6
74
0
42
0.000000001
43
0.0000000001
44
0.0000000001
40
0
40
0
40
0
40
0
40
0.012845724459358568
40
0.012845724459358568
40
0.025669121122270579
40
0.025669121122270579
40
0.025669121122270579
40
0.025669121122270579
10
-270.03627011925028
20
-385.71477267277339
30
0
10
-270.01942726079892
20
-385.75414006870403
30
0
10
-270.00428553442487
20
-385.78953134976018
30
0
10
-269.98762171102362
20
-385.8678153171187
30
0
10
-269.98653848698291
20
-385.90852210623359
30
0
10
-269.9854552629422
20
-385.9492288953486
30
0
0
SPLINE
5
239
100
AcDbEntity
8
0
100
AcDbSpline
70
0
71
3
72
10
73
6
74
0
42
0.000000001
43
0.0000000001
44
0.0000000001
40
0
40
0
40
0
40
0
40
0.017252095104928252
40
0.017252095104928252
40
0.03450714976645558
40
0.03450714976645558
40
0.03450714976645558
40
0.03450714976645558
10
-269.9854552629422
20
-385.9492288953486
30
0
10
-269.99044913083128
20
-386.00651863662779
30
0
10
-269.99544299872036
20
-386.06380837790687
30
0
10
-270.02902890298412
20
-386.17092759606521
30
0
10
-270.05731960356752
20
-386.21978179715313
30
0
10
-270.08664339043304
20
-386.27041999806886
30
0
0
SPLINE
5
240
100
AcDbEntity
8
0
100
AcDbSpline
70
0
71
3
72
10
73
6
74
0
42
0.000000001
43
0.0000000001
44
0.0000000001
40
0
40
0
40
0
40
0
40
0.018703820656413534
40
0.018703820656413534
40
0.037380052028969088
40
0.037380052028969088
40
0.037380052028969088
40
0.037380052028969088
10
-270.08664339043304
20
-386.27041999806886
30
0
10
-270.12614568544348
20
-386.31865485051543
30
0
10
-270.16192919530101
20
-386.36234882620829
30
0
10
-270.25434986840315
20
-386.43232419667277
30
0
10
-270.30858167750586
20
-386.45683334052057
30
0
10
-270.36281348660856
20
-386.48134248436838
30
0
0
SPLINE
5
241
100
AcDbEntity
8
0
100
AcDbSpline
70
0
71
3
72
10
73
6
74
0
42
0.000000001
43
0.0000000001
44
0.0000000001
40
0
40
0
40
0
40
0
40
0.021336968705309906
40
0.021336968705309906
40
0.042628699752923452
40
0.042628699752923452
40
0.042628699752923452
40
0.042628699752923452
10
-270.36281348660856
20
-386.48134248436838
30
0
10
-270.43058308453863
20
-386.50292477577347
30
0
10
-270.4909089623909
20
-386.52213649776741
30
0
10
-270.62258171680531
20
-386.54297399552274
30
0
10
-270.68989473844306
20
-386.54400234425231
30
0
10
-270.75720776008092
20
-386.54503069298187
30
0
0
SPLINE
5
242
100
AcDbEntity
8
0
100
AcDbSpline
70
0
71
3
72
10
73
6
74
0
42
0.000000001
43
0.0000000001
44
0.0000000001
40
0
40
0
40
0
40
0
40
0.020380790122873405
40
0.020380790122873405
40
0.040826948770082583
40
0.040826948770082583
40
0.040826948770082583
40
0.040826948770082583
10
-270.75720776008092
20
-386.54503069298187
30
0
10
-270.8250206127031
20
-386.54094258317087
30
0
10
-270.89283346532517
20
-386.53685447335982
30
0
10
-271.02398546660578
20
-386.50812061891935
30
0
10
-271.08244994887741
20
-386.48447366596258
30
0
10
-271.14965148499374
20
-386.45729286316714
30
0
0
SPLINE
5
243
100
AcDbEntity
8
0
100
AcDbSpline
70
0
71
3
72
10
73
6
74
0
42
0.000000001
43
0.0000000001
44
0.0000000001
40
0
40
0
40
0
40
0
40
0.017809069547379711
40
0.017809069547379711
40
0.035635128193233667
40
0.035635128193233667
40
0.035635128193233667
40
0.035635128193233667
10
-271.14965148499374
20
-386.45729286316714
30
0
10
-271.20119760484931
20
-386.42784748329018
30
0
10
-271.25274372470483
20
-386.39840210341333
30
0
10
-271.34003152952732
20
-386.32167042686649
30
0
10
-271.37393190344869
20
-386.27597247538677
30
0
10
-271.41069051931942
20
-386.22642159289745
30
0
0
SPLINE
5
244
100
AcDbEntity
8
0
100
AcDbSpline
70
0
71
3
72
10
73
6
74
0
42
0.000000001
43
0.0000000001
44
0.0000000001
40
0
40
0
40
0
40
0
40
0.017072341094651545
40
0.017072341094651545
40
0.034144792746162632
40
0.034144792746162632
40
0.034144792746162632
40
0.034144792746162632
10
-271.41069051931942
20
-386.22642159289745
30
0
10
-271.43740038914166
20
-386.17617140911466
30
0
10
-271.4641102589639
20
-386.12592122533169
30
0
10
-271.49363491595983
20
-386.01884553595323
30
0
10
-271.49639661188007
20
-385.96221197014881
30
0
10
-271.49917813160562
20
-385.90517188139103
30
0
0
SPLINE
5
245
100
AcDbEntity
8
0
100
AcDbSpline
70
0
71
3
72
12
73
8
74
0
42
0.000000001
43
0.0000000001
44
0.0000000001
40
0
40
0
40
0
40
0
40
0.024821858316952491
40
0.024821858316952491
40
0.035466163957047825
40
0.035466163957047825
40
0.045485313249771925
40
0.045485313249771925
40
0.045485313249771925
40
0.045485313249771925
10
-271.49917813160562
20
-385.90517188139103
30
0
10
-271.48899867063062
20
-385.82306093192557
30
0
10
-271.47881920965568
20
-385.74094998246017
30
0
10
-271.42572939773191
20
-385.64541413976178
30
0
10
-271.40363223321162
20
-385.6173649337469
30
0
10
-271.34217192969282
20
-385.55799205017706
30
0
10
-271.30849026766469
20
-385.53139750535888
30
0
10
-271.27480860563662
20
-385.50480296054076
30
0
0
LINE
5
246
100
AcDbEntity
8
0
100
AcDbLine
10
-271.27480860563662
20
-385.50480296054076
30
0
11
-271.4575752348365
21
-385.5008015836687
31
0
0
LINE
5
247
100
AcDbEntity
8
0
100
AcDbLine
10
-271.4575752348365
20
-385.5008015836687
30
0
11
-271.45258844201777
21
-385.27302515992119
31
0
0
LWPOLYLINE
5
248
100
AcDbEntity
8
0
100
AcDbPolyline
90
4
70
1
43
0.0
10
-271.40487055021276
20
-383.09346584408831
10
-269.40534981666656
20
-383.13724208515328
10
-269.41072480325073
20
-383.38274962202837
10
-271.41024553679694
20
-383.33897338096341
0
LINE
5
249
100
AcDbEntity
8
0
100
AcDbLine
10
-271.41854688206217
20
-383.71814508621765
30
0
11
-269.97005348712497
21
-383.74985748358063
31
0
0
LINE
5
250
100
AcDbEntity
8
0
100
AcDbLine
10
-269.97005348712497
20
-383.74985748358063
30
0
11
-269.97542847370914
21
-383.99536502045584
31
-3.490748024201865e-33
0
LINE
5
251
100
AcDbEntity
8
0
100
AcDbLine
10
-269.97542847370914
20
-383.99536502045584
30
-3.490748024201865e-33
11
-270.7515044871044
21
-383.97837410354407
31
0
0
SPLINE
5
252
100
AcDbEntity
8
0
100
AcDbSpline
70
0
71
3
72
10
73
6
74
0
42
0.000000001
43
0.0000000001
44
0.0000000001
40
0
40
0
40
0
40
0
40
0.01448979157062347
40
0.01448979157062347
40
0.029419443765237537
40
0.029419443765237537
40
0.029419443765237537
40
0.029419443765237537
10
-270.7515044871044
20
-383.97837410354407
30
0
10
-270.79980010140611
20
-383.97777700603103
30
0
10
-270.84809571570776
20
-383.97717990851794
30
0
10
-270.94453946189481
20
-383.98789389755819
30
0
10
-270.98313561708557
20
-383.99851133331174
30
0
10
-271.03609782594492
20
-384.01308073399821
30
0
0
SPLINE
5
253
100
AcDbEntity
8
0
100
AcDbSpline
70
0
71
3
72
10
73
6
74
0
42
0.000000001
43
0.0000000001
44
0.0000000001
40
0
40
0
40
0
40
0
40
0.010989526593850017
40
0.010989526593850017
40
0.021970846249208285
40
0.021970846249208285
40
0.021970846249208285
40
0.021970846249208285
10
-271.03609782594492
20
-384.01308073399821
30
0
10
-271.06901908439431
20
-384.02914548545607
30
0
10
-271.0996448593786
20
-384.04409009834455
30
0
10
-271.15189241869706
20
-384.08861504282561
30
0
10
-271.17255013341247
20
-384.11735714819724
30
0
10
-271.19320784812783
20
-384.14609925356899
30
0
0
SPLINE
5
254
100
AcDbEntity
8
0
100
AcDbSpline
70
0
71
3
72
10
73
6
74
0
42
0.000000001
43
0.0000000001
44
0.0000000001
40
0
40
0
40
0
40
0
40
0.010954131135348606
40
0.010954131135348606
40
0.021908483961553496
40
0.021908483961553496
40
0.021908483961553496
40
0.021908483961553496
10
-271.19320784812783
20
-384.14609925356899
30
0
10
-271.21018182201419
20
-384.17842787313532
30
0
10
-271.22715579590056
20
-384.21075649270165
30
0
10
-271.24733865816245
20
-384.27944627597583
30
0
10
-271.25048347153984
20
-384.31559039837509
30
0
10
-271.25366810734533
20
-384.35219220984726
30
0
0
SPLINE
5
255
100
AcDbEntity
8
0
100
AcDbSpline
70
0
71
3
72
10
73
6
74
0
42
0.000000001
43
0.0000000001
44
0.0000000001
40
0
40
0
40
0
40
0
40
0.0099583240104476282
40
0.0099583240104476282
40
0.019956773082790039
40
0.019956773082790039
40
0.019956773082790039
40
0.019956773082790039
10
-271.25366810734533
20
-384.35219220984726
30
0
10
-271.25266038066582
20
-384.38537132324404
30
0
10
-271.25165265398624
20
-384.41855043664077
30
0
10
-271.2352269369303
20
-384.48102819460371
30
0
10
-271.22042692039685
20
-384.50773931538447
30
0
10
-271.20317184750968
20
-384.53888133032257
30
0
0
SPLINE
5
256
100
AcDbEntity
8
0
100
AcDbSpline
70
0
71
3
72
10
73
6
74
0
42
0.000000001
43
0.0000000001
44
0.0000000001
40
0
40
0
40
0
40
0
40
0.0097019530403456688
40
0.0097019530403456688
40
0.019398460123644101
40
0.019398460123644101
40
0.019398460123644101
40
0.019398460123644101
10
-271.20317184750968
20
-384.53888133032257
30
0
10
-271.18207202090855
20
-384.56338975322012
30
0
10
-271.16226485348051
20
-384.5863966927987
30
0
10
-271.11194517636977
20
-384.62010469775919
30
0
10
-271.08225356012775
20
-384.63026679528576
30
0
10
-271.05256194388573
20
-384.64042889281234
30
0
0
SPLINE
5
257
100
AcDbEntity
8
0
100
AcDbSpline
70
0
71
3
72
10
73
6
74
0
42
0.000000001
43
0.0000000001
44
0.0000000001
40
0
40
0
40
0
40
0
40
0.014794471587062721
40
0.014794471587062721
40
0.028526351379407518
40
0.028526351379407518
40
0.028526351379407518
40
0.028526351379407518
10
-271.05256194388573
20
-384.64042889281234
30
0
10
-271.00382466335805
20
-384.64795467320675
30
0
10
-270.97018083804892
20
-384.65314979361904
30
0
10
-270.88050742052673
20
-384.65961769126949
30
0
10
-270.83712562620633
20
-384.66036162072396
30
0
10
-270.79374383188582
20
-384.66110555017849
30
0
0
LINE
5
258
100
AcDbEntity
8
0
100
AcDbLine
10
-270.79374383188582
20
-384.66110555017855
30
0
11
-269.99038883911891
21
-384.67869369579461
31
0
0
LINE
5
259
100
AcDbEntity
8
0
100
AcDbLine
10
-269.99038883911891
20
-384.67869369579461
30
0
11
-269.99576382570302
21
-384.92420123266982
31
1.4444474582904269e-33
0
LINE
5
260
100
AcDbEntity
8
0
100
AcDbLine
10
-269.99576382570302
20
-384.92420123266982
30
1.4444474582904269e-33
11
-270.89322988203116
21
-384.90455267900876
31
0
0
SPLINE
5
261
100
AcDbEntity
8
0
100
AcDbSpline
70
0
71
3
72
10
73
6
74
0
42
0.000000001
43
0.0000000001
44
0.0000000001
40
0
40
0
40
0
40
0
40
0.011514770808382584
40
0.011514770808382584
40
0.023584711467960453
40
0.023584711467960453
40
0.023584711467960453
40
0.023584711467960453
10
-270.89322988203116
20
-384.90455267900876
30
0
10
-270.93160284994298
20
-384.90369421269622
30
0
10
-270.96997581785507
20
-384.90283574638369
30
0
10
-271.04813312069632
20
-384.89650393613101
30
0
10
-271.07867074428998
20
-384.89155748373236
30
0
10
-271.12204125265174
20
-384.88453237405213
30
0
0
SPLINE
5
262
100
AcDbEntity
8
0
100
AcDbSpline
70
0
71
3
72
10
73
6
74
0
42
0.000000001
43
0.0000000001
44
0.0000000001
40
0
40
0
40
0
40
0
40
0.010006235778434888
40
0.010006235778434888
40
0.02005123330772611
40
0.02005123330772611
40
0.02005123330772611
40
0.02005123330772611
10
-271.12204125265174
20
-384.88453237405213
30
0
10
-271.15429620455507
20
-384.87604029836808
30
0
10
-271.18655115645834
20
-384.86754822268409
30
0
10
-271.24716335166448
20
-384.84143070697576
30
0
10
-271.27305506907572
20
-384.82482568311764
30
0
10
-271.30316553063818
20
-384.80551507020311
30
0
0
SPLINE
5
263
100
AcDbEntity
8
0
100
AcDbSpline
70
0
71
3
72
10
73
6
74
0
42
0.000000001
43
0.0000000001
44
0.0000000001
40
0
40
0
40
0
40
0
40
0.01152857772396656
40
0.01152857772396656
40
0.022952956021930961
40
0.022952956021930961
40
0.022952956021930961
40
0.022952956021930961
10
-271.30316553063818
20
-384.80551507020311
30
0
10
-271.33112155930382
20
-384.77914809889228
30
0
10
-271.35371158419565
20
-384.75784212065923
30
0
10
-271.39313632676044
20
-384.70133903419486
30
0
10
-271.4077212213648
20
-384.66956554751687
30
0
10
-271.42230611596909
20
-384.63779206083893
30
0
0
SPLINE
5
264
100
AcDbEntity
8
0
100
AcDbSpline
70
0
71
3
72
10
73
6
74
0
42
0.000000001
43
0.0000000001
44
0.0000000001
40
0
40
0
40
0
40
0
40
0.012694992166887038
40
0.012694992166887038
40
0.025386110262808088
40
0.025386110262808088
40
0.025386110262808088
40
0.025386110262808088
10
-271.42230611596909
20
-384.63779206083893
30
0
10
-271.4362814239762
20
-384.59784974200193
30
0
10
-271.44961069096263
20
-384.55975384947715
30
0
10
-271.46412469750732
20
-384.47934714868586
30
0
10
-271.46513827408501
20
-384.43800638718869
30
0
10
-271.46615185066258
20
-384.39666562569158
30
0
0
SPLINE
5
265
100
AcDbEntity
8
0
100
AcDbSpline
70
0
71
3
72
12
73
8
74
0
42
0.000000001
43
0.0000000001
44
0.0000000001
40
0
40
0
40
0
40
0
40
0.02841716286026183
40
0.02841716286026183
40
0.042823301882018057
40
0.042823301882018057
40
0.05775611534599788
40
0.05775611534599788
40
0.05775611534599788
40
0.05775611534599788
10
-271.46615185066258
20
-384.39666562569158
30
0
10
-271.45331095919198
20
-384.30281614924786
30
0
10
-271.44084712639278
20
-384.21172245958007
30
0
10
-271.37642220988079
20
-384.09774349165536
30
0
10
-271.34728238647659
20
-384.06401480148634
30
0
10
-271.28325618825693
20
-384.00166573180013
30
0
10
-271.24691896807929
20
-383.97203100453419
30
0
10
-271.21058174790198
20
-383.94239627726847
30
0
0
LINE
5
266
100
AcDbEntity
8
0
100
AcDbLine
10
-271.21058174790198
20
-383.94239627726847
30
0
11
-271.42335450953112
21
-383.93773796512954
31
0
0
LINE
5
267
100
AcDbEntity
8
0
100
AcDbLine
10
-271.42335450953112
20
-383.93773796512954
30
0
11
-271.41854688206217
21
-383.71814508621765
31
0
0
SPLINE
5
268
100
AcDbEntity
8
0
100
AcDbSpline
70
0
71
3
72
10
73
6
74
0
42
0.000000001
43
0.0000000001
44
0.0000000001
40
0
40
0
40
0
40
0
40
0.02929763237704499
40
0.02929763237704499
40
0.058537296866928962
40
0.058537296866928962
40
0.058537296866928962
40
0.058537296866928962
10
-271.34776342188536
20
-387.90214321193162
30
0
10
-271.40814409481277
20
-387.82538768710583
30
0
10
-271.46208233573145
20
-387.75682174060046
30
0
10
-271.52248040745536
20
-387.59069763754957
30
0
10
-271.52725282732712
20
-387.49809611490218
30
0
10
-271.53202524719887
20
-387.40549459225485
30
0
0
SPLINE
5
269
100
AcDbEntity
8
0
100
AcDbSpline
70
0
71
3
72
10
73
6
74
0
42
0.000000001
43
0.0000000001
44
0.0000000001
40
0
40
0
40
0
40
0
40
0.018355682996150875
40
0.018355682996150875
40
0.036714906751574281
40
0.036714906751574281
40
0.036714906751574281
40
0.036714906751574281
10
-271.53202524719887
20
-387.40549459225485
30
0
10
-271.52717772138931
20
-387.34450131096071
30
0
10
-271.52233019557974
20
-387.28350802966651
30
0
10
-271.49037355715012
20
-387.16771431283246
30
0
10
-271.46356793145122
20
-387.11403030717628
30
0
10
-271.43572525851545
20
-387.05826939235351
30
0
0
SPLINE
5
270
100
AcDbEntity
8
0
100
AcDbSpline
70
0
71
3
72
10
73
6
74
0
42
0.000000001
43
0.0000000001
44
0.0000000001
40
0
40
0
40
0
40
0
40
0.017855787724753644
40
0.017855787724753644
40
0.03571266067434252
40
0.03571266067434252
40
0.03571266067434252
40
0.03571266067434252
10
-271.43572525851545
20
-387.05826939235351
30
0
10
-271.40244989321161
20
-387.00892067166512
30
0
10
-271.36917452790772
20
-386.95957195097674
30
0
10
-271.28471126021219
20
-386.87992979544231
30
0
10
-271.23398279604498
20
-386.85007175909158
30
0
10
-271.18214515363587
20
-386.81956087655647
30
0
0
SPLINE
5
271
100
AcDbEntity
8
0
100
AcDbSpline
70
0
71
3
72
10
73
6
74
0
42
0.000000001
43
0.0000000001
44
0.0000000001
40
0
40
0
40
0
40
0
40
0.025674354737976041
40
0.025674354737976041
40
0.050844674140761784
40
0.050844674140761784
40
0.050844674140761784
40
0.050844674140761784
10
-271.18214515363587
20
-386.81956087655647
30
0
10
-271.10178563370374
20
-386.79012473639659
30
0
10
-271.04108394821986
20
-386.76788937058865
30
0
10
-270.89183644593982
20
-386.74432919875881
30
0
10
-270.81579051402332
20
-386.74448569352597
30
0
10
-270.73974458210688
20
-386.7446421882932
30
0
0
SPLINE
5
272
100
AcDbEntity
8
0
100
AcDbSpline
70
0
71
3
72
10
73
6
74
0
42
0.000000001
43
0.0000000001
44
0.0000000001
40
0
40
0
40
0
40
0
40
0.029948223375749913
40
0.029948223375749913
40
0.060127968432875073
40
0.060127968432875073
40
0.060127968432875073
40
0.060127968432875073
10
-270.73974458210688
20
-386.7446421882932
30
0
10
-270.64019346932474
20
-386.75206431610172
30
0
10
-270.54064235654255
20
-386.75948644391019
30
0
10
-270.36045701663534
20
-386.82473585797675
30
0
10
-270.28992569537024
20
-386.87934897794742
30
0
10
-270.2037789184987
20
-386.94605330413873
30
0
0
SPLINE
5
273
100
AcDbEntity
8
0
100
AcDbSpline
70
0
71
3
72
10
73
6
74
0
42
0.000000001
43
0.0000000001
44
0.0000000001
40
0
40
0
40
0
40
0
40
0.028833790138247797
40
0.028833790138247797
40
0.057632213754936136
40
0.057632213754936136
40
0.057632213754936136
40
0.057632213754936136
10
-270.2037789184987
20
-386.94605330413873
30
0
10
-270.1439980233788
20
-387.02131207740479
30
0
10
-270.08941186871607
20
-387.09003113938905
30
0
10
-270.02831858283122
20
-387.25465328463719
30
0
10
-270.02319103820406
20
-387.34664679852636
30
0
10
-270.01806349357696
20
-387.43864031241549
30
0
0
SPLINE
5
274
100
AcDbEntity
8
0
100
AcDbSpline
70
0
71
3
72
10
73
6
74
0
42
0.000000001
43
0.0000000001
44
0.0000000001
40
0
40
0
40
0
40
0
40
0.025093693347203138
40
0.025093693347203138
40
0.05021399315708662
40
0.05021399315708662
40
0.05021399315708662
40
0.05021399315708662
10
-270.01806349357696
20
-387.43864031241549
30
0
10
-270.02580162036605
20
-387.52192725758738
30
0
10
-270.03353974715515
20
-387.60521420275921
30
0
10
-270.08990778079499
20
-387.75621342564074
30
0
10
-270.13734059243876
20
-387.82058618448247
30
0
10
-270.18898080982234
20
-387.89066896357502
30
0
0
SPLINE
5
275
100
AcDbEntity
8
0
100
AcDbSpline
70
0
71
3
72
10
73
6
74
0
42
0.000000001
43
0.0000000001
44
0.0000000001
40
0
40
0
40
0
40
0
40
0.037281592135826262
40
0.037281592135826262
40
0.07408482033059488
40
0.07408482033059488
40
0.07408482033059488
40
0.07408482033059488
10
-270.18898080982234
20
-387.89066896357502
30
0
10
-270.28624631031107
20
-387.96801846831397
30
0
10
-270.36254977866361
20
-388.02869810762365
30
0
10
-270.56544604126799
20
-388.09592303109571
30
0
10
-270.6776805955646
20
-388.09861361868798
30
0
10
-270.7899151498612
20
-388.10130420628019
30
0
0
SPLINE
5
276
100
AcDbEntity
8
0
100
AcDbSpline
70
0
71
3
72
10
73
6
74
0
42
0.000000001
43
0.0000000001
44
0.0000000001
40
0
40
0
40
0
40
0
40
0.030948750932857851
40
0.030948750932857851
40
0.062276798797319538
40
0.062276798797319538
40
0.062276798797319538
40
0.062276798797319538
10
-270.7899151498612
20
-388.10130420628019
30
0
10
-270.89286202347444
20
-388.09463762836543
30
0
10
-270.99580889708761
20
-388.08797105045062
30
0
10
-271.18392664701526
20
-388.02391411443267
30
0
10
-271.25615488598686
20
-387.97023081986947
30
0
10
-271.34776342188536
20
-387.90214321193162
30
0
0
SPLINE
5
277
100
AcDbEntity
8
0
100
AcDbSpline
70
0
71
3
72
10
73
6
74
0
42
0.000000001
43
0.0000000001
44
0.0000000001
40
0
40
0
40
0
40
0
40
0.0044102275936719493
40
0.0044102275936719493
40
0.0089167822455210929
40
0.0089167822455210929
40
0.0089167822455210929
40
0.0089167822455210929
10
-267.84568764812019
20
-372.73096103612835
30
0
10
-267.845714954031
20
-372.74566176941426
30
0
10
-267.84574225994174
20
-372.7603625027001
30
0
10
-267.84075828221461
20
-372.78906340256952
30
0
10
-267.83606659313563
20
-372.80056700484772
30
0
10
-267.8298079146216
20
-372.81591272516289
30
0
0
SPLINE
5
278
100
AcDbEntity
8
0
100
AcDbSpline
70
0
71
3
72
10
73
6
74
0
42
0.000000001
43
0.0000000001
44
0.0000000001
40
0
40
0
40
0
40
0
40
0.0032713057666131592
40
0.0032713057666131592
40
0.0065428308197930506
40
0.0065428308197930506
40
0.0065428308197930506
40
0.0065428308197930506
10
-267.8298079146216
20
-372.81591272516289
30
0
10
-267.82364639123261
20
-372.82490942089959
30
0
10
-267.81748486784358
20
-372.83390611663617
30
0
10
-267.8018930444066
20
-372.84836258770895
30
0
10
-267.79255176811688
20
-372.85373938528915
30
0
10
-267.78299606092736
20
-372.85923960835282
30
0
0
SPLINE
5
279
100
AcDbEntity
8
0
100
AcDbSpline
70
0
71
3
72
10
73
6
74
0
42
0.000000001
43
0.0000000001
44
0.0000000001
40
0
40
0
40
0
40
0
40
0.0076825826570113579
40
0.0076825826570113579
40
0.014700831585018127
40
0.014700831585018127
40
0.014700831585018127
40
0.014700831585018127
10
-267.78299606092736
20
-372.85923960835282
30
0
10
-267.75809675233302
20
-372.86522503056847
30
0
10
-267.7409083538389
20
-372.86935686506524
30
0
10
-267.69377493710147
20
-372.8740215792871
30
0
10
-267.67100540793081
20
-372.87424652045013
30
0
10
-267.64823587876003
20
-372.8744714616131
30
0
0
LINE
5
280
100
AcDbEntity
8
0
100
AcDbLine
10
-267.64823587876003
20
-372.8744714616131
30
0
11
-266.80123556182974
21
-372.89301515032514
31
0
0
LINE
5
281
100
AcDbEntity
8
0
100
AcDbLine
10
-266.80123556182974
20
-372.89301515032514
30
0
11
-266.79583069913326
21
-372.64614299408976
31
2.2870418089598426e-33
0
LINE
5
282
100
AcDbEntity
8
0
100
AcDbLine
10
-266.79583069913326
20
-372.64614299408976
30
2.2870418089598426e-33
11
-266.60488052509777
21
-372.65032353631148
31
0
0
LINE
5
283
100
AcDbEntity
8
0
100
AcDbLine
10
-266.60488052509777
20
-372.65032353631148
30
0
11
-266.61028538779431
21
-372.89719569254686
31
-2.2870418089598426e-33
0
LINE
5
284
100
AcDbEntity
8
0
100
AcDbLine
10
-266.61028538779431
20
-372.89719569254686
30
-2.2870418089598426e-33
11
-266.10426754578106
21
-372.90827412682546
31
0
0
LINE
5
285
100
AcDbEntity
8
0
100
AcDbLine
10
-266.10426754578106
20
-372.90827412682546
30
0
11
-266.25691705919724
21
-373.14919205499916
31
-7.7037197775489434e-33
0
LINE
5
286
100
AcDbEntity
8
0
100
AcDbLine
10
-266.25691705919724
20
-373.14919205499916
30
-7.7037197775489434e-33
11
-266.61563049826606
21
-373.14133861006189
31
0
0
LINE
5
287
100
AcDbEntity
8
0
100
AcDbLine
10
-266.61563049826606
20
-373.14133861006189
30
0
11
-266.61957216205246
21
-373.32137778825233
31
2.8287096058187527e-33
0
LINE
5
288
100
AcDbEntity
8
0
100
AcDbLine
10
-266.61957216205246
20
-373.32137778825233
30
2.8287096058187527e-33
11
-266.8105223360879
21
-373.31719724603056
31
0
0
LINE
5
289
100
AcDbEntity
8
0
100
AcDbLine
10
-266.8105223360879
20
-373.31719724603056
30
0
11
-266.80658067230149
21
-373.13715806784012
31
-5.4166779685891008e-34
0
LINE
5
290
100
AcDbEntity
8
0
100
AcDbLine
10
-266.80658067230149
20
-373.13715806784012
30
-5.4166779685891008e-34
11
-267.63994164852187
21
-373.11891299021875
31
0
0
SPLINE
5
291
100
AcDbEntity
8
0
100
AcDbSpline
70
0
71
3
72
10
73
6
74
0
42
0.000000001
43
0.0000000001
44
0.0000000001
40
0
40
0
40
0
40
0
40
0.014735719342716416
40
0.014735719342716416
40
0.030706923034651605
40
0.030706923034651605
40
0.030706923034651605
40
0.030706923034651605
10
-267.63994164852187
20
-373.11891299021875
30
0
10
-267.6890574376053
20
-373.11834575333614
30
0
10
-267.73817322668867
20
-373.11777851645354
30
0
10
-267.83905799707901
20
-373.10660921117181
30
0
10
-267.87610019441325
20
-373.0967866381045
30
0
10
-267.92980174672601
20
-373.08254646178182
30
0
0
SPLINE
5
292
100
AcDbEntity
8
0
100
AcDbSpline
70
0
71
3
72
10
73
6
74
0
42
0.000000001
43
0.0000000001
44
0.0000000001
40
0
40
0
40
0
40
0
40
0.0082579304703721598
40
0.0082579304703721598
40
0.016496741210688823
40
0.016496741210688823
40
0.016496741210688823
40
0.016496741210688823
10
-267.92980174672601
20
-373.08254646178182
30
0
10
-267.95353074151171
20
-373.06859513837395
30
0
10
-267.97455589348283
20
-373.05623352350153
30
0
10
-268.01047456587855
20
-373.02063446147906
30
0
10
-268.02424251468818
20
-372.99855177633162
30
0
10
-268.03801046349776
20
-372.97646909118419
30
0
0
SPLINE
5
293
100
AcDbEntity
8
0
100
AcDbSpline
70
0
71
3
72
10
73
6
74
0
42
0.000000001
43
0.0000000001
44
0.0000000001
40
0
40
0
40
0
40
0
40
0.012170062076459461
40
0.012170062076459461
40
0.024075613310339743
40
0.024075613310339743
40
0.024075613310339743
40
0.024075613310339743
10
-268.03801046349776
20
-372.97646909118419
30
0
10
-268.05293608194495
20
-372.93874778226353
30
0
10
-268.06410804471483
20
-372.91051303538279
30
0
10
-268.07594477483138
20
-372.84015364857402
30
0
10
-268.07584920549715
20
-372.80418988985684
30
0
10
-268.07575363616286
20
-372.76822613113978
30
0
0
SPLINE
5
294
100
AcDbEntity
8
0
100
AcDbSpline
70
0
71
3
72
10
73
6
74
0
42
0.000000001
43
0.0000000001
44
0.0000000001
40
0
40
0
40
0
40
0
40
0.010247564898296374
40
0.010247564898296374
40
0.02041979582307132
40
0.02041979582307132
40
0.02041979582307132
40
0.02041979582307132
10
-268.07575363616286
20
-372.76822613113978
30
0
10
-268.07369296340045
20
-372.73412979493332
30
0
10
-268.07200019750309
20
-372.70612092510783
30
0
10
-268.06315312039715
20
-372.64424560330673
30
0
10
-268.05651137748202
20
-372.61372711943511
30
0
10
-268.0498696345669
20
-372.58320863556349
30
0
0
LINE
5
295
100
AcDbEntity
8
0
100
AcDbLine
10
-268.0498696345669
20
-372.58320863556349
30
0
11
-267.83378104112307
21
-372.6234187664175
31
-4.1214900809886847e-31
0
SPLINE
5
296
100
AcDbEntity
8
0
100
AcDbSpline
70
0
71
3
72
10
73
6
74
0
42
0.000000001
43
0.0000000001
44
0.0000000001
40
0
40
0
40
0
40
0
40
0.0054174962911039959
40
0.0054174962911039959
40
0.010966731221011551
40
0.010966731221011551
40
0.010966731221011551
40
0.010966731221011551
10
-267.83378104112307
20
-372.6234187664175
30
0
10
-267.83663985296982
20
-372.64124936234396
30
0
10
-267.83949866481657
20
-372.6590799582703
30
0
10
-267.84364235445378
20
-372.69534975863462
30
0
10
-267.84451396905774
20
-372.71052572580186
30
0
10
-267.84568764812019
20
-372.73096103612835
30
0
0
LINE
5
297
100
AcDbEntity
8
0
100
AcDbLine
10
-268.12775756736897
20
-376.01616057412696
30
0
11
-267.33667848775906
21
-376.03347995867216
31
0
0
SPLINE
5
298
100
AcDbEntity
8
0
100
AcDbSpline
70
0
71
3
72
10
73
6
74
0
42
0.000000001
43
0.0000000001
44
0.0000000001
40
0
40
0
40
0
40
0
40
0.020762178052935346
40
0.020762178052935346
40
0.042407636113421597
40
0.042407636113421597
40
0.042407636113421597
40
0.042407636113421597
10
-267.33667848775906
20
-376.03347995867216
30
0
10
-267.26747889424792
20
-376.03451006498688
30
0
10
-267.19827930073671
20
-376.03554017130148
30
0
10
-267.06771116517797
20
-376.00334890508111
30
0
10
-267.02149102579546
20
-375.97229030241812
30
0
10
-266.95639144722963
20
-375.92854526029549
30
0
0
SPLINE
5
299
100
AcDbEntity
8
0
100
AcDbSpline
70
0
71
3
72
10
73
6
74
0
42
0.000000001
43
0.0000000001
44
0.0000000001
40
0
40
0
40
0
40
0
40
0.015272055560093031
40
0.015272055560093031
40
0.030541662814227495
40
0.030541662814227495
40
0.030541662814227495
40
0.030541662814227495
10
-266.95639144722963
20
-375.92854526029549
30
0
10
-266.92567780797049
20
-375.88794747796112
30
0
10
-266.89601199653924
20
-375.84873473130176
30
0
10
-266.86098883651118
20
-375.75892165474261
30
0
10
-266.85593555234931
20
-375.70911288289631
30
0
10
-266.85088226818749
20
-375.65930411105001
30
0
0
SPLINE
5
300
100
AcDbEntity
8
0
100
AcDbSpline
70
0
71
3
72
10
73
6
74
0
42
0.000000001
43
0.0000000001
44
0.0000000001
40
0
40
0
40
0
40
0
40
0.0090224185570123728
40
0.0090224185570123728
40
0.018068687557453653
40
0.018068687557453653
40
0.018068687557453653
40
0.018068687557453653
10
-266.85088226818749
20
-375.65930411105001
30
0
10
-266.85174355049242
20
-375.62924171778957
30
0
10
-266.8526048327974
20
-375.59917932452919
30
0
10
-266.86609195857864
20
-375.54187329647903
30
0
10
-266.87829203884218
20
-375.51657847980823
30
0
10
-266.89215927838848
20
-375.4878270884667
30
0
0
SPLINE
5
301
100
AcDbEntity
8
0
100
AcDbSpline
70
0
71
3
72
10
73
6
74
0
42
0.000000001
43
0.0000000001
44
0.0000000001
40
0
40
0
40
0
40
0
40
0.0081014326092671268
40
0.0081014326092671268
40
0.016207626700976863
40
0.016207626700976863
40
0.016207626700976863
40
0.016207626700976863
10
-266.89215927838848
20
-375.4878270884667
30
0
10
-266.90703601273731
20
-375.46528954939106
30
0
10
-266.9219127470862
20
-375.44275201031542
30
0
10
-266.96062838701539
20
-375.40766213696742
30
0
10
-266.98383095548888
20
-375.39569719189876
30
0
10
-267.00858153899139
20
-375.38293397681065
30
0
0
SPLINE
5
302
100
AcDbEntity
8
0
100
AcDbSpline
70
0
71
3
72
10
73
6
74
0
42
0.000000001
43
0.0000000001
44
0.0000000001
40
0
40
0
40
0
40
0
40
0.012993412579359603
40
0.012993412579359603
40
0.025508072441371439
40
0.025508072441371439
40
0.025508072441371439
40
0.025508072441371439
10
-267.00858153899139
20
-375.38293397681065
30
0
10
-267.05013888655753
20
-375.37073307149274
30
0
10
-267.07987297450819
20
-375.36200338076299
30
0
10
-267.15578361527764
20
-375.35143633552286
30
0
10
-267.19371128568787
20
-375.35041520028744
30
0
10
-267.23163895609798
20
-375.34939406505197
30
0
0
LINE
5
303
100
AcDbEntity
8
0
100
AcDbLine
10
-267.23163895609798
20
-375.34939406505197
30
0
11
-268.1127374758272
21
-375.33010385187509
31
0
0
LINE
5
304
100
AcDbEntity
8
0
100
AcDbLine
10
-268.1127374758272
20
-375.33010385187509
30
0
11
-268.10736251533575
21
-375.08459750680731
31
4.8148248609680896e-34
0
LINE
5
305
100
AcDbEntity
8
0
100
AcDbLine
10
-268.10736251533575
20
-375.08459750680731
30
4.8148248609680896e-34
11
-267.21671657629037
21
-375.10409674513818
31
0
0
SPLINE
5
306
100
AcDbEntity
8
0
100
AcDbSpline
70
0
71
3
72
10
73
6
74
0
42
0.000000001
43
0.0000000001
44
0.0000000001
40
0
40
0
40
0
40
0
40
0.011984165770270727
40
0.011984165770270727
40
0.024722351124956677
40
0.024722351124956677
40
0.024722351124956677
40
0.024722351124956677
10
-267.21671657629037
20
-375.10409674513824
30
0
10
-267.17677710240065
20
-375.10488335175017
30
0
10
-267.1368376285111
20
-375.10566995836223
30
0
10
-267.05482671205846
20
-375.11161127597262
30
0
10
-267.02347607780075
20
-375.11626276800564
30
0
10
-266.97832746331346
20
-375.1229614656736
30
0
0
SPLINE
5
307
100
AcDbEntity
8
0
100
AcDbSpline
70
0
71
3
72
10
73
6
74
0
42
0.000000001
43
0.0000000001
44
0.0000000001
40
0
40
0
40
0
40
0
40
0.0099677552377070745
40
0.0099677552377070745
40
0.01995759676193315
40
0.01995759676193315
40
0.01995759676193315
40
0.01995759676193315
10
-266.97832746331346
20
-375.1229614656736
30
0
10
-266.94627054666239
20
-375.1316970970592
30
0
10
-266.91421363001143
20
-375.14043272844492
30
0
10
-266.85414428286856
20
-375.16704046977043
30
0
10
-266.82801473929197
20
-375.18410279496368
30
0
10
-266.79859690982732
20
-375.20331233727109
30
0
0
SPLINE
5
308
100
AcDbEntity
8
0
100
AcDbSpline
70
0
71
3
72
10
73
6
74
0
42
0.000000001
43
0.0000000001
44
0.0000000001
40
0
40
0
40
0
40
0
40
0.01148456655508652
40
0.01148456655508652
40
0.022885637013149437
40
0.022885637013149437
40
0.022885637013149437
40
0.022885637013149437
10
-266.79859690982732
20
-375.20331233727109
30
0
10
-266.77035574419313
20
-375.22915686381049
30
0
10
-266.7471367103102
20
-375.25040545337583
30
0
10
-266.70773490302759
20
-375.30684877511794
30
0
10
-266.69359568824996
20
-375.33894205924582
30
0
10
-266.67945647347221
20
-375.37103534337371
30
0
0
SPLINE
5
309
100
AcDbEntity
8
0
100
AcDbSpline
70
0
71
3
72
10
73
6
74
0
42
0.000000001
43
0.0000000001
44
0.0000000001
40
0
40
0
40
0
40
0
40
0.012923525577617254
40
0.012923525577617254
40
0.025832353046729942
40
0.025832353046729942
40
0.025832353046729942
40
0.025832353046729942
10
-266.67945647347221
20
-375.37103534337371
30
0
10
-266.66545376320977
20
-375.41177444318816
30
0
10
-266.65262823600807
20
-375.44908867900756
30
0
10
-266.63865723738866
20
-375.52953571496465
30
0
10
-266.63781586388239
20
-375.5708344143751
30
0
10
-266.63697449037619
20
-375.61213311378543
30
0
0
SPLINE
5
310
100
AcDbEntity
8
0
100
AcDbSpline
70
0
71
3
72
12
73
8
74
0
42
0.000000001
43
0.0000000001
44
0.0000000001
40
0
40
0
40
0
40
0
40
0.027986746448596746
40
0.027986746448596746
40
0.040302060289207214
40
0.040302060289207214
40
0.051301915584444253
40
0.051301915584444253
40
0.051301915584444253
40
0.051301915584444253
10
-266.63697449037619
20
-375.61213311378543
30
0
10
-266.64822421539628
20
-375.70474148325394
30
0
10
-266.65947394041643
20
-375.79734985272245
30
0
10
-266.71876706499836
20
-375.90696980358274
30
0
10
-266.74400047358637
20
-375.93973479734365
30
0
10
-266.81280920462149
20
-376.00795857905337
30
0
10
-266.84928221217541
20
-376.03793688228768
30
0
10
-266.88575521972928
20
-376.067915185522
30
0
0
LINE
5
311
100
AcDbEntity
8
0
100
AcDbLine
10
-266.88575521972928
20
-376.067915185522
30
0
11
-266.67980183050321
21
-376.07242419863883
31
-3.8518598887744717e-33
0
LINE
5
312
100
AcDbEntity
8
0
100
AcDbLine
10
-266.67980183050321
20
-376.07242419863883
30
-3.8518598887744717e-33
11
-266.68463930799186
21
-376.29338050510353
31
1.0833355937178202e-33
0
LINE
5
313
100
AcDbEntity
8
0
100
AcDbLine
10
-266.68463930799186
20
-376.29338050510353
30
1.0833355937178202e-33
11
-268.13313255395309
21
-376.26166811100222
31
0
0
LINE
5
314
100
AcDbEntity
8
0
100
AcDbLine
10
-268.13313255395309
20
-376.26166811100222
30
0
11
-268.12775756736897
21
-376.01616057412696
31
0
0
SPLINE
5
315
100
AcDbEntity
8
0
100
AcDbSpline
70
0
71
3
72
10
73
6
74
0
42
0.000000001
43
0.0000000001
44
0.0000000001
40
0
40
0
40
0
40
0
40
0.013133163964196703
40
0.013133163964196703
40
0.026237629460835885
40
0.026237629460835885
40
0.026237629460835885
40
0.026237629460835885
10
-271.13809348957312
20
-381.87800381131501
30
0
10
-271.1615615908334
20
-381.91495908996393
30
0
10
-271.18241921906179
20
-381.94780365010047
30
0
10
-271.20736196032215
20
-382.02434260809588
30
0
10
-271.21071321067848
20
-382.06564905750486
30
0
10
-271.21406446103481
20
-382.10695550691383
30
0
0
SPLINE
5
316
100
AcDbEntity
8
0
100
AcDbSpline
70
0
71
3
72
10
73
6
74
0
42
0.000000001
43
0.0000000001
44
0.0000000001
40
0
40
0
40
0
40
0
40
0.017244806754034829
40
0.017244806754034829
40
0.034492501036200732
40
0.034492501036200732
40
0.034492501036200732
40
0.034492501036200732
10
-271.21406446103481
20
-382.10695550691383
30
0
10
-271.21027697492514
20
-382.16431328323358
30
0
10
-271.20648948881552
20
-382.22167105955339
30
0
10
-271.16661183687376
20
-382.32361438704118
30
0
10
-271.13087456955031
20
-382.36728182038752
30
0
10
-271.09384776625967
20
-382.41252494012826
30
0
0
SPLINE
5
317
100
AcDbEntity
8
0
100
AcDbSpline
70
0
71
3
72
10
73
6
74
0
42
0.000000001
43
0.0000000001
44
0.0000000001
40
0
40
0
40
0
40
0
40
0.02238677074354016
40
0.02238677074354016
40
0.044506372385410636
40
0.044506372385410636
40
0.044506372385410636
40
0.044506372385410636
10
-271.09384776625967
20
-382.41252494012826
30
0
10
-271.03437774502947
20
-382.45760092487296
30
0
10
-270.98743073436924
20
-382.49318495011045
30
0
10
-270.86517387714377
20
-382.53952908334156
30
0
10
-270.79822245887448
20
-382.54754277921506
30
0
10
-270.73127104060524
20
-382.55555647508851
30
0
0
LINE
5
318
100
AcDbEntity
8
0
100
AcDbLine
10
-270.73127104060524
20
-382.55555647508845
30
0
11
-270.70762112311849
21
-381.47532438546415
31
7.7037197775489434e-33
0
SPLINE
5
319
100
AcDbEntity
8
0
100
AcDbSpline
70
0
71
3
72
10
73
6
74
0
42
0.000000001
43
0.0000000001
44
0.0000000001
40
0
40
0
40
0
40
0
40
0.0032751350877873522
40
0.0032751350877873522
40
0.0066869264414541885
40
0.0066869264414541885
40
0.0066869264414541885
40
0.0066869264414541885
10
-270.70762112311849
20
-381.47532438546415
30
0
10
-270.69670445455409
20
-381.47522544023229
30
0
10
-270.6857877859901
20
-381.47512649500061
30
0
10
-270.66349940733357
20
-381.47512921102395
30
0
10
-270.6546166144185
20
-381.47523911163324
30
0
10
-270.64212260341583
20
-381.47539369132852
30
0
0
SPLINE
5
320
100
AcDbEntity
8
0
100
AcDbSpline
70
0
71
3
72
10
73
6
74
0
42
0.000000001
43
0.0000000001
44
0.0000000001
40
0
40
0
40
0
40
0
40
0.0305831691018718
40
0.0305831691018718
40
0.061488981708226989
40
0.061488981708226989
40
0.061488981708226989
40
0.061488981708226989
10
-270.64212260341583
20
-381.47539369132852
30
0
10
-270.54040844141014
20
-381.48223382175814
30
0
10
-270.43869427940456
20
-381.48907395218782
30
0
10
-270.25264883042507
20
-381.55237804160197
30
0
10
-270.18029131339807
20
-381.60535679468177
30
0
10
-270.08967041091876
20
-381.67170763995091
30
0
0
SPLINE
5
321
100
AcDbEntity
8
0
100
AcDbSpline
70
0
71
3
72
10
73
6
74
0
42
0.000000001
43
0.0000000001
44
0.0000000001
40
0
40
0
40
0
40
0
40
0.028034265033636669
40
0.028034265033636669
40
0.056045794673365769
40
0.056045794673365769
40
0.056045794673365769
40
0.056045794673365769
10
-270.08967041091876
20
-381.67170763995091
30
0
10
-270.03014612366508
20
-381.74374446281882
30
0
10
-269.97492879715799
20
-381.81056896341101
30
0
10
-269.91313505582463
20
-381.97056670780671
30
0
10
-269.90771370037567
20
-382.06062579021932
30
0
10
-269.90229234492676
20
-382.15068487263193
30
0
0
SPLINE
5
322
100
AcDbEntity
8
0
100
AcDbSpline
70
0
71
3
72
10
73
6
74
0
42
0.000000001
43
0.0000000001
44
0.0000000001
40
0
40
0
40
0
40
0
40
0.0278112931091412
40
0.0278112931091412
40
0.055652446902345151
40
0.055652446902345151
40
0.055652446902345151
40
0.055652446902345151
10
-269.90229234492676
20
-382.15068487263193
30
0
10
-269.91172327738849
20
-382.24290822473392
30
0
10
-269.92115420985027
20
-382.33513157683598
30
0
10
-269.99124285046446
20
-382.49686373727423
30
0
10
-270.05040388388221
20
-382.56276752474912
30
0
10
-270.11484435774713
20
-382.63455246576575
30
0
0
SPLINE
5
323
100
AcDbEntity
8
0
100
AcDbSpline
70
0
71
3
72
10
73
6
74
0
42
0.000000001
43
0.0000000001
44
0.0000000001
40
0
40
0
40
0
40
0
40
0.034351669566156727
40
0.034351669566156727
40
0.068349960549143746
40
0.068349960549143746
40
0.068349960549143746
40
0.068349960549143746
10
-270.11484435774713
20
-382.63455246576575
30
0
10
-270.21003633994644
20
-382.69819216242934
30
0
10
-270.28613764327065
20
-382.7490689668341
30
0
10
-270.47845983225176
20
-382.80542172375937
30
0
10
-270.58240971718448
20
-382.8078870711231
30
0
10
-270.68635960211714
20
-382.81035241848679
30
0
0
SPLINE
5
324
100
AcDbEntity
8
0
100
AcDbSpline
70
0
71
3
72
10
73
6
74
0
42
0.000000001
43
0.0000000001
44
0.0000000001
40
0
40
0
40
0
40
0
40
0.030295543836114117
40
0.030295543836114117
40
0.060881161333518563
40
0.060881161333518563
40
0.060881161333518563
40
0.060881161333518563
10
-270.68635960211714
20
-382.81035241848679
30
0
10
-270.787100938001
20
-382.80333936057383
30
0
10
-270.88784227388487
20
-382.79632630266087
30
0
10
-271.07147601205975
20
-382.73253372469514
30
0
10
-271.14304397490321
20
-382.67914976682988
30
0
10
-271.23196241016916
20
-382.61282374869154
30
0
0
SPLINE
5
325
100
AcDbEntity
8
0
100
AcDbSpline
70
0
71
3
72
10
73
6
74
0
42
0.000000001
43
0.0000000001
44
0.0000000001
40
0
40
0
40
0
40
0
40
0.030426371927849923
40
0.030426371927849923
40
0.060736111978964877
40
0.060736111978964877
40
0.060736111978964877
40
0.060736111978964877
10
-271.23196241016916
20
-382.61282374869154
30
0
10
-271.29417754927152
20
-382.5327266554807
30
0
10
-271.34769854919921
20
-382.4638225819416
30
0
10
-271.40760873695933
20
-382.29328165378917
30
0
10
-271.41178211547026
20
-382.19859088175122
30
0
10
-271.41595549398124
20
-382.10390010971315
30
0
0
SPLINE
5
326
100
AcDbEntity
8
0
100
AcDbSpline
70
0
71
3
72
10
73
6
74
0
42
0.000000001
43
0.0000000001
44
0.0000000001
40
0
40
0
40
0
40
0
40
0.022312805781755235
40
0.022312805781755235
40
0.044759769629295579
40
0.044759769629295579
40
0.044759769629295579
40
0.044759769629295579
10
-271.41595549398124
20
-382.10390010971315
30
0
10
-271.41071811235599
20
-382.02970872155703
30
0
10
-271.4054807307308
20
-381.95551733340085
30
0
10
-271.36261796239774
20
-381.81738768569829
30
0
10
-271.32691369631368
20
-381.76033171094036
30
0
10
-271.28412397970118
20
-381.69195307559193
30
0
0
SPLINE
5
327
100
AcDbEntity
8
0
100
AcDbSpline
70
0
71
3
72
10
73
6
74
0
42
0.000000001
43
0.0000000001
44
0.0000000001
40
0
40
0
40
0
40
0
40
0.022377842630778258
40
0.022377842630778258
40
0.044708722484054414
40
0.044708722484054414
40
0.044708722484054414
40
0.044708722484054414
10
-271.28412397970118
20
-381.69195307559193
30
0
10
-271.2323712690104
20
-381.63823395370559
30
0
10
-271.18627876088408
20
-381.5903901011028
30
0
10
-271.0691156699034
20
-381.51935880607448
30
0
10
-271.00164909882233
20
-381.49827289484404
30
0
10
-270.93418252774131
20
-381.47718698361365
30
0
0
LINE
5
328
100
AcDbEntity
8
0
100
AcDbLine
10
-270.93418252774131
20
-381.47718698361365
30
0
11
-270.90836652378931
21
-381.73156486365735
31
3.3703774026776627e-33
0
SPLINE
5
329
100
AcDbEntity
8
0
100
AcDbSpline
70
0
71
3
72
10
73
6
74
0
42
0.000000001
43
0.0000000001
44
0.0000000001
40
0
40
0
40
0
40
0
40
0.013970284900798106
40
0.013970284900798106
40
0.028119952867010023
40
0.028119952867010023
40
0.028119952867010023
40
0.028119952867010023
10
-270.90836652378931
20
-381.73156486365735
30
0
10
-270.95201320410803
20
-381.74779786055763
30
0
10
-270.99565988442674
20
-381.76403085745795
30
0
10
-271.07329295691255
20
-381.81229426800451
30
0
10
-271.10179693918769
20
-381.84119809920662
30
0
10
-271.13809348957312
20
-381.87800381131501
30
0
0
LINE
5
330
100
AcDbEntity
8
0
100
AcDbLine
10
-268.24672384229439
20
-381.45005639339843
30
0
11
-267.4951986123819
21
-381.46650981099953
31
0
0
SPLINE
5
331
100
AcDbEntity
8
0
100
AcDbSpline
70
0
71
3
72
10
73
6
74
0
42
0.000000001
43
0.0000000001
44
0.0000000001
40
0
40
0
40
0
40
0
40
0.015408214419995405
40
0.015408214419995405
40
0.031295410131794633
40
0.031295410131794633
40
0.031295410131794633
40
0.031295410131794633
10
-267.49519861238184
20
-381.46650981099947
30
0
10
-267.44384262311735
20
-381.46720650647353
30
0
10
-267.3924866338528
20
-381.46790320194759
30
0
10
-267.28957200755434
20
-381.45776794082161
30
0
10
-267.24829389516208
20
-381.44758511201064
30
0
10
-267.19154028492858
20
-381.43358465840652
30
0
0
SPLINE
5
332
100
AcDbEntity
8
0
100
AcDbSpline
70
0
71
3
72
10
73
6
74
0
42
0.000000001
43
0.0000000001
44
0.0000000001
40
0
40
0
40
0
40
0
40
0.010521535153629462
40
0.010521535153629462
40
0.021054051320430648
40
0.021054051320430648
40
0.021054051320430648
40
0.021054051320430648
10
-267.19154028492858
20
-381.43358465840652
30
0
10
-267.15928984828855
20
-381.41980280952367
30
0
10
-267.12703941164852
20
-381.40602096064083
30
0
10
-267.07273466322397
20
-381.36508798784183
30
0
10
-267.05187708104626
20
-381.33881693012489
30
0
10
-267.02918334631113
20
-381.31023315613038
30
0
0
SPLINE
5
333
100
AcDbEntity
8
0
100
AcDbSpline
70
0
71
3
72
10
73
6
74
0
42
0.000000001
43
0.0000000001
44
0.0000000001
40
0
40
0
40
0
40
0
40
0.010220482771496326
40
0.010220482771496326
40
0.020440991234637024
40
0.020440991234637024
40
0.020440991234637024
40
0.020440991234637024
10
-267.02918334631113
20
-381.31023315613038
30
0
10
-267.01262923650944
20
-381.28045717803036
30
0
10
-266.99607512670775
20
-381.25068119993034
30
0
10
-266.97647584307782
20
-381.18697763790635
30
0
10
-266.97345262683814
20
-381.15312130193433
30
0
10
-266.97041587613535
20
-381.11911339647747
30
0
0
SPLINE
5
334
100
AcDbEntity
8
0
100
AcDbSpline
70
0
71
3
72
10
73
6
74
0
42
0.000000001
43
0.0000000001
44
0.0000000001
40
0
40
0
40
0
40
0
40
0.011394303033799676
40
0.011394303033799676
40
0.022933716909636359
40
0.022933716909636359
40
0.022933716909636359
40
0.022933716909636359
10
-266.97041587613535
20
-381.11911339647747
30
0
10
-266.97148525663874
20
-381.08114744390787
30
0
10
-266.97255463714208
20
-381.04318149133826
30
0
10
-266.99731806954668
20
-380.97617630400242
30
0
10
-267.01959917176765
20
-380.95185925486487
30
0
10
-267.04795164100369
20
-380.92091606449918
30
0
0
SPLINE
5
335
100
AcDbEntity
8
0
100
AcDbSpline
70
0
71
3
72
10
73
6
74
0
42
0.000000001
43
0.0000000001
44
0.0000000001
40
0
40
0
40
0
40
0
40
0.014699635209069372
40
0.014699635209069372
40
0.029035451715674197
40
0.029035451715674197
40
0.029035451715674197
40
0.029035451715674197
10
-267.04795164100369
20
-380.92091606449918
30
0
10
-267.09089813876767
20
-380.89732625385466
30
0
10
-267.12267401895394
20
-380.87987228122159
30
0
10
-267.20549303596766
20
-380.85914358273089
30
0
10
-267.24881901615737
20
-380.85733590320336
30
0
10
-267.29214499634702
20
-380.85552822367595
30
0
0
LINE
5
336
100
AcDbEntity
8
0
100
AcDbLine
10
-267.29214499634702
20
-380.85552822367595
30
0
11
-268.2332565258144
21
-380.83492412365752
31
0
0
LINE
5
337
100
AcDbEntity
8
0
100
AcDbLine
10
-268.2332565258144
20
-380.83492412365752
30
0
11
-268.22788153923022
21
-380.58941658678231
31
-1.4444474582904269e-33
0
LINE
5
338
100
AcDbEntity
8
0
100
AcDbLine
10
-268.22788153923022
20
-380.58941658678231
30
-1.4444474582904269e-33
11
-267.38633686919843
21
-380.60784083301496
31
0
0
SPLINE
5
339
100
AcDbEntity
8
0
100
AcDbSpline
70
0
71
3
72
10
73
6
74
0
42
0.000000001
43
0.0000000001
44
0.0000000001
40
0
40
0
40
0
40
0
40
0.017794281759019002
40
0.017794281759019002
40
0.03602410136345241
40
0.03602410136345241
40
0.03602410136345241
40
0.03602410136345241
10
-267.38633686919843
20
-380.60784083301496
30
0
10
-267.32702294833939
20
-380.60763658291455
30
0
10
-267.26770902748046
20
-380.60743233281414
30
0
10
-267.15673084328535
20
-380.57801594891907
30
0
10
-267.11531383687776
20
-380.55075106876103
30
0
10
-267.05951190955358
20
-380.51401657264353
30
0
0
SPLINE
5
340
100
AcDbEntity
8
0
100
AcDbSpline
70
0
71
3
72
10
73
6
74
0
42
0.000000001
43
0.0000000001
44
0.0000000001
40
0
40
0
40
0
40
0
40
0.014780910504919078
40
0.014780910504919078
40
0.029553382217128717
40
0.029553382217128717
40
0.029553382217128717
40
0.029553382217128717
10
-267.05951190955358
20
-380.51401657264353
30
0
10
-267.02736626183599
20
-380.47667810940845
30
0
10
-266.9972052751155
20
-380.44164490977613
30
0
10
-266.96153839893799
20
-380.35767709281578
30
0
10
-266.95660078060365
20
-380.3101213765234
30
0
10
-266.95166316226926
20
-380.26256566023096
30
0
0
SPLINE
5
341
100
AcDbEntity
8
0
100
AcDbSpline
70
0
71
3
72
10
73
6
74
0
42
0.000000001
43
0.0000000001
44
0.0000000001
40
0
40
0
40
0
40
0
40
0.0078077446059201892
40
0.0078077446059201892
40
0.015633106952152295
40
0.015633106952152295
40
0.015633106952152295
40
0.015633106952152295
10
-266.95166316226926
20
-380.26256566023096
30
0
10
-266.95245375315369
20
-380.23655185561029
30
0
10
-266.95324434403813
20
-380.21053805098961
30
0
10
-266.96513315962483
20
-380.16103326160578
30
0
10
-266.97588061415951
20
-380.13910553341537
30
0
10
-266.98799215855496
20
-380.11439469117715
30
0
0
SPLINE
5
342
100
AcDbEntity
8
0
100
AcDbSpline
70
0
71
3
72
10
73
6
74
0
42
0.000000001
43
0.0000000001
44
0.0000000001
40
0
40
0
40
0
40
0
40
0.0070146003427204503
40
0.0070146003427204503
40
0.014033517199971288
40
0.014033517199971288
40
0.014033517199971288
40
0.014033517199971288
10
-266.98799215855496
20
-380.11439469117715
30
0
10
-267.00139598334022
20
-380.09523599971482
30
0
10
-267.01479980812542
20
-380.07607730825242
30
0
10
-267.04910250816192
20
-380.04655563921472
30
0
10
-267.06942476612704
20
-380.03669829610374
30
0
10
-267.09113343524007
20
-380.02616847209021
30
0
0
SPLINE
5
343
100
AcDbEntity
8
0
100
AcDbSpline
70
0
71
3
72
10
73
6
74
0
42
0.000000001
43
0.0000000001
44
0.0000000001
40
0
40
0
40
0
40
0
40
0.012271813877154876
40
0.012271813877154876
40
0.023953036809251912
40
0.023953036809251912
40
0.023953036809251912
40
0.023953036809251912
10
-267.09113343524007
20
-380.02616847209021
30
0
10
-267.13057076399116
20
-380.01530561236655
30
0
10
-267.15825870172864
20
-380.00767907696968
30
0
10
-267.23045670454616
20
-379.9985536196167
30
0
10
-267.26623090789565
20
-379.99777120121939
30
0
10
-267.30200511124497
20
-379.99698878282209
30
0
0
LINE
5
344
100
AcDbEntity
8
0
100
AcDbLine
10
-267.30200511124497
20
-379.99698878282209
30
0
11
-268.21447393583594
21
-379.97701176805083
31
0
0
LINE
5
345
100
AcDbEntity
8
0
100
AcDbLine
10
-268.21447393583594
20
-379.97701176805083
30
0
11
-268.20912882536413
21
-379.73286885053574
31
2.4074124304840448e-33
0
LINE
5
346
100
AcDbEntity
8
0
100
AcDbLine
10
-268.20912882536413
20
-379.73286885053574
30
2.4074124304840448e-33
11
-267.21482410548947
21
-379.754637528589
31
0
0
SPLINE
5
347
100
AcDbEntity
8
0
100
AcDbSpline
70
0
71
3
72
10
73
6
74
0
42
0.000000001
43
0.0000000001
44
0.0000000001
40
0
40
0
40
0
40
0
40
0.020120984772725396
40
0.020120984772725396
40
0.040647138741765058
40
0.040647138741765058
40
0.040647138741765058
40
0.040647138741765058
10
-267.21482410548947
20
-379.754637528589
30
0
10
-267.14784687967273
20
-379.75816305170952
30
0
10
-267.08086965385593
20
-379.76168857483009
30
0
10
-266.95736955206058
20
-379.80116708024019
30
0
10
-266.91137918412215
20
-379.83448072803179
30
0
10
-266.85046531259337
20
-379.87860438593452
30
0
0
SPLINE
5
348
100
AcDbEntity
8
0
100
AcDbSpline
70
0
71
3
72
10
73
6
74
0
42
0.000000001
43
0.0000000001
44
0.0000000001
40
0
40
0
40
0
40
0
40
0.020291156105348481
40
0.020291156105348481
40
0.040401508129978364
40
0.040401508129978364
40
0.040401508129978364
40
0.040401508129978364
10
-266.85046531259337
20
-379.87860438593452
30
0
10
-266.81018635089225
20
-379.93294032534823
30
0
10
-266.77760090957537
20
-379.97689777833079
30
0
10
-266.74134396051363
20
-380.08928465806838
30
0
10
-266.73951980941979
20
-380.15097563706087
30
0
10
-266.73769565832595
20
-380.2126666160533
30
0
0
SPLINE
5
349
100
AcDbEntity
8
0
100
AcDbSpline
70
0
71
3
72
12
73
8
74
0
42
0.000000001
43
0.0000000001
44
0.0000000001
40
0
40
0
40
0
40
0
40
0.029131172674410573
40
0.029131172674410573
40
0.044139496207462645
40
0.044139496207462645
40
0.059214028609766226
40
0.059214028609766226
40
0.059214028609766226
40
0.059214028609766226
10
-266.73769565832595
20
-380.2126666160533
30
0
10
-266.75270777762
20
-380.3086030814917
30
0
10
-266.7661469034532
20
-380.39448717325507
30
0
10
-266.83371277152395
20
-380.50574499459145
30
0
10
-266.86410613990842
20
-380.53878397873268
30
0
10
-266.92914968132862
20
-380.59856924377698
30
0
10
-266.96516534633838
20
-380.62652550690859
30
0
10
-267.00118101134854
20
-380.65448177004043
30
0
0
SPLINE
5
350
100
AcDbEntity
8
0
100
AcDbSpline
70
0
71
3
72
10
73
6
74
0
42
0.000000001
43
0.0000000001
44
0.0000000001
40
0
40
0
40
0
40
0
40
0.01224396071600038
40
0.01224396071600038
40
0.024489655739839584
40
0.024489655739839584
40
0.024489655739839584
40
0.024489655739839584
10
-267.00118101134854
20
-380.65448177004043
30
0
10
-266.96416072412347
20
-380.67166361577449
30
0
10
-266.92714043689853
20
-380.68884546150855
30
0
10
-266.86584318596965
20
-380.73877178619216
30
0
10
-266.84207532776225
20
-380.77110527593362
30
0
10
-266.81751773600604
20
-380.80451310907517
30
0
0
SPLINE
5
351
100
AcDbEntity
8
0
100
AcDbSpline
70
0
71
3
72
10
73
6
74
0
42
0.000000001
43
0.0000000001
44
0.0000000001
40
0
40
0
40
0
40
0
40
0.015302935030744274
40
0.015302935030744274
40
0.030465510965480613
40
0.030465510965480613
40
0.030465510965480613
40
0.030465510965480613
10
-266.81751773600604
20
-380.80451310907517
30
0
10
-266.79538510303661
20
-380.85047118305579
30
0
10
-266.7775221515052
20
-380.88756332880854
30
0
10
-266.75791933498033
20
-380.976410631227
30
0
10
-266.75718385358618
20
-381.02281249176343
30
0
10
-266.75644837219204
20
-381.06921435229987
30
0
0
SPLINE
5
352
100
AcDbEntity
8
0
100
AcDbSpline
70
0
71
3
72
10
73
6
74
0
42
0.000000001
43
0.0000000001
44
0.0000000001
40
0
40
0
40
0
40
0
40
0.013571736352413993
40
0.013571736352413993
40
0.027161430834606908
40
0.027161430834606908
40
0.027161430834606908
40
0.027161430834606908
10
-266.75644837219204
20
-381.06921435229987
30
0
10
-266.75980296012432
20
-381.1143289267128
30
0
10
-266.76315754805665
20
-381.15944350112585
30
0
10
-266.78658713569388
20
-381.24503159161833
30
0
10
-266.80611125463821
20
-381.28340572576917
30
0
10
-266.82756076996054
20
-381.32556417505941
30
0
0
SPLINE
5
353
100
AcDbEntity
8
0
100
AcDbSpline
70
0
71
3
72
10
73
6
74
0
42
0.000000001
43
0.0000000001
44
0.0000000001
40
0
40
0
40
0
40
0
40
0.012664199199680275
40
0.012664199199680275
40
0.025329838824004913
40
0.025329838824004913
40
0.025329838824004913
40
0.025329838824004913
10
-266.82756076996054
20
-381.32556417505941
30
0
10
-266.85115803356507
20
-381.36056689954108
30
0
10
-266.8747552971696
20
-381.39556962402281
30
0
10
-266.93285779874066
20
-381.45485045836614
30
0
10
-266.96693263563907
20
-381.47868695273127
30
0
10
-267.00202344673716
20
-381.50323415521677
30
0
0
LINE
5
354
100
AcDbEntity
8
0
100
AcDbLine
10
-267.00202344673721
20
-381.50323415521677
30
0
11
-266.79879795544832
21
-381.50768344546316
31
0
0
LINE
5
355
100
AcDbEntity
8
0
100
AcDbLine
10
-266.79879795544832
20
-381.50768344546316
30
0
11
-266.80360556987097
21
-381.72727572847134
31
3.1296361596292583e-33
0
LINE
5
356
100
AcDbEntity
8
0
100
AcDbLine
10
-266.80360556987097
20
-381.72727572847134
30
3.1296361596292583e-33
11
-268.25209881583214
21
-381.69556333437004
31
0
0
LINE
5
357
100
AcDbEntity
8
0
100
AcDbLine
10
-268.25209881583214
20
-381.69556333437004
30
0
11
-268.24672384229439
21
-381.45005639339843
31
0
0
LINE
5
358
100
AcDbEntity
8
0
100
AcDbLine
10
-268.30116045428321
20
-383.93649953442173
30
0
11
-267.5428155540157
21
-383.9531022575681
31
0
0
SPLINE
5
359
100
AcDbEntity
8
0
100
AcDbSpline
70
0
71
3
72
10
73
6
74
0
42
0.000000001
43
0.0000000001
44
0.0000000001
40
0
40
0
40
0
40
0
40
0.014565994640423541
40
0.014565994640423541
40
0.029159713853163211
40
0.029159713853163211
40
0.029159713853163211
40
0.029159713853163211
10
-267.5428155540157
20
-383.9531022575681
30
0
10
-267.49426364330122
20
-383.95273292179758
30
0
10
-267.44571173258669
20
-383.9523635860271
30
0
10
-267.3498196678629
20
-383.94102486617891
30
0
10
-267.30526720697122
20
-383.93036464372159
30
0
10
-267.25549446621392
20
-383.91845534672285
30
0
0
SPLINE
5
360
100
AcDbEntity
8
0
100
AcDbSpline
70
0
71
3
72
10
73
6
74
0
42
0.000000001
43
0.0000000001
44
0.0000000001
40
0
40
0
40
0
40
0
40
0.0083343449509496459
40
0.0083343449509496459
40
0.016685058980831981
40
0.016685058980831981
40
0.016685058980831981
40
0.016685058980831981
10
-267.25549446621392
20
-383.91845534672285
30
0
10
-267.22934210392219
20
-383.90908271460597
30
0
10
-267.20318974163035
20
-383.89971008248915
30
0
10
-267.15777617676065
20
-383.87041865411499
30
0
10
-267.13986727251546
20
-383.85134260889174
30
0
10
-267.11982870902028
20
-383.82999811242172
30
0
0
SPLINE
5
361
100
AcDbEntity
8
0
100
AcDbSpline
70
0
71
3
72
10
73
6
74
0
42
0.000000001
43
0.0000000001
44
0.0000000001
40
0
40
0
40
0
40
0
40
0.0078792304828127421
40
0.0078792304828127421
40
0.015758474602793903
40
0.015758474602793903
40
0.015758474602793903
40
0.015758474602793903
10
-267.11982870902028
20
-383.82999811242172
30
0
10
-267.10503873972988
20
-383.80829419937044
30
0
10
-267.09024877043953
20
-383.78659028631921
30
0
10
-267.07281898956325
20
-383.73875920247627
30
0
10
-267.07019538314199
20
-383.71267643679283
30
0
10
-267.06756202782162
20
-383.68649675175027
30
0
0
SPLINE
5
362
100
AcDbEntity
8
0
100
AcDbSpline
70
0
71
3
72
10
73
6
74
0
42
0.000000001
43
0.0000000001
44
0.0000000001
40
0
40
0
40
0
40
0
40
0.010198293653684676
40
0.010198293653684676
40
0.020367306267005836
40
0.020367306267005836
40
0.020367306267005836
40
0.020367306267005836
10
-267.06756202782162
20
-383.68649675175027
30
0
10
-267.06964274804454
20
-383.65256617757484
30
0
10
-267.07146445459182
20
-383.62285937295616
30
0
10
-267.08821166125949
20
-383.56245287480181
30
0
10
-267.10251261437412
20
-383.53387323311529
30
0
10
-267.1168135674888
20
-383.50529359142877
30
0
0
LINE
5
363
100
AcDbEntity
8
0
100
AcDbLine
10
-267.1168135674888
20
-383.50529359142877
30
0
11
-266.88718604901766
21
-383.42571628655156
31
0
0
SPLINE
5
364
100
AcDbEntity
8
0
100
AcDbSpline
70
0
71
3
72
10
73
6
74
0
42
0.000000001
43
0.0000000001
44
0.0000000001
40
0
40
0
40
0
40
0
40
0.013526278489871261
40
0.013526278489871261
40
0.027116696351046903
40
0.027116696351046903
40
0.027116696351046903
40
0.027116696351046903
10
-266.88718604901766
20
-383.42571628655156
30
0
10
-266.86611447974099
20
-383.4655770465551
30
0
10
-266.84504291046437
20
-383.50543780655869
30
0
10
-266.81988932401038
20
-383.59016496672604
30
0
10
-266.81700346242638
20
-383.63129804379503
30
0
10
-266.81360234053892
20
-383.67977528521726
30
0
0
SPLINE
5
365
100
AcDbEntity
8
0
100
AcDbSpline
70
0
71
3
72
10
73
6
74
0
42
0.000000001
43
0.0000000001
44
0.0000000001
40
0
40
0
40
0
40
0
40
0.0085766812017215449
40
0.0085766812017215449
40
0.017153017578247835
40
0.017153017578247835
40
0.017153017578247835
40
0.017153017578247835
10
-266.81360234053892
20
-383.67977528521726
30
0
10
-266.81633671961288
20
-383.70823315775294
30
0
10
-266.81902324511071
20
-383.73619299730456
30
0
10
-266.8365813989551
20
-383.78856235697862
30
0
10
-266.8513745191533
20
-383.81273932076454
30
0
10
-266.86616763935137
20
-383.83691628455045
30
0
0
SPLINE
5
366
100
AcDbEntity
8
0
100
AcDbSpline
70
0
71
3
72
10
73
6
74
0
42
0.000000001
43
0.0000000001
44
0.0000000001
40
0
40
0
40
0
40
0
40
0.014819336463748936
40
0.014819336463748936
40
0.02898190026968319
40
0.02898190026968319
40
0.02898190026968319
40
0.02898190026968319
10
-266.86616763935137
20
-383.83691628455045
30
0
10
-266.90058562327874
20
-383.87234993892969
30
0
10
-266.92487997103865
20
-383.89736120988943
30
0
10
-266.99612863328633
20
-383.94785562543001
30
0
10
-267.03446303379667
20
-383.96790528212625
30
0
10
-267.07279743430712
20
-383.98795493882255
30
0
0
LINE
5
367
100
AcDbEntity
8
0
100
AcDbLine
10
-267.07279743430712
20
-383.98795493882261
30
0
11
-266.85320470437114
21
-383.99276256302994
31
0
0
LINE
5
368
100
AcDbEntity
8
0
100
AcDbLine
10
-266.85320470437114
20
-383.99276256302994
30
0
11
-266.85804218185979
21
-384.21371886949464
31
1.0833355937178202e-33
0
LINE
5
369
100
AcDbEntity
8
0
100
AcDbLine
10
-266.85804218185979
20
-384.21371886949464
30
1.0833355937178202e-33
11
-268.30653542782102
21
-384.18200647539334
31
0
0
LINE
5
370
100
AcDbEntity
8
0
100
AcDbLine
10
-268.30653542782102
20
-384.18200647539334
30
0
11
-268.30116045428321
21
-383.93649953442173
31
0
0
SPLINE
5
371
100
AcDbEntity
8
0
100
AcDbSpline
70
0
71
3
72
10
73
6
74
0
42
0.000000001
43
0.0000000001
44
0.0000000001
40
0
40
0
40
0
40
0
40
0.014011812325296909
40
0.014011812325296909
40
0.028004684572713174
40
0.028004684572713174
40
0.028004684572713174
40
0.028004684572713174
10
-268.07825540970271
20
-385.53521301673732
30
0
10
-268.10688089180923
20
-385.57211878929314
30
0
10
-268.13291143522963
20
-385.60567900362946
30
0
10
-268.16384956662256
20
-385.68571593930778
30
0
10
-268.16802289844867
20
-385.7302018774684
30
0
10
-268.17219623027472
20
-385.77468781562914
30
0
0
SPLINE
5
372
100
AcDbEntity
8
0
100
AcDbSpline
70
0
71
3
72
10
73
6
74
0
42
0.000000001
43
0.0000000001
44
0.0000000001
40
0
40
0
40
0
40
0
40
0.016976308885390756
40
0.016976308885390756
40
0.033956707114789673
40
0.033956707114789673
40
0.033956707114789673
40
0.033956707114789673
10
-268.17219623027472
20
-385.77468781562914
30
0
10
-268.16822355083622
20
-385.83113589078573
30
0
10
-268.16425087139771
20
-385.88758396594233
30
0
10
-268.12252399855652
20
-385.98596179160103
30
0
10
-268.08520974446901
20
-386.02683162890173
30
0
10
-268.0462852950713
20
-386.06946509305101
30
0
0
SPLINE
5
373
100
AcDbEntity
8
0
100
AcDbSpline
70
0
71
3
72
10
73
6
74
0
42
0.000000001
43
0.0000000001
44
0.0000000001
40
0
40
0
40
0
40
0
40
0.025743429986168288
40
0.025743429986168288
40
0.050728626653367671
40
0.050728626653367671
40
0.050728626653367671
40
0.050728626653367671
10
-268.0462852950713
20
-386.06946509305101
30
0
10
-267.97297230281879
20
-386.1140611382769
30
0
10
-267.91954418061118
20
-386.1465612843096
30
0
10
-267.77595904381764
20
-386.18476173038277
30
0
10
-267.70025542575854
20
-386.18767803616635
30
0
10
-267.62455180769939
20
-386.19059434195003
30
0
0
SPLINE
5
374
100
AcDbEntity
8
0
100
AcDbSpline
70
0
71
3
72
10
73
6
74
0
42
0.000000001
43
0.0000000001
44
0.0000000001
40
0
40
0
40
0
40
0
40
0.022628121299563184
40
0.022628121299563184
40
0.045883645378240065
40
0.045883645378240065
40
0.045883645378240065
40
0.045883645378240065
10
-267.62455180769939
20
-386.19059434195003
30
0
10
-267.54912490994394
20
-386.19075600337032
30
0
10
-267.47369801218872
20
-386.19091766479073
30
0
10
-267.33009842925378
20
-386.15761751037923
30
0
10
-267.27582880851361
20
-386.1263872772264
30
0
10
-267.20192329340335
20
-386.08385728647477
30
0
0
SPLINE
5
375
100
AcDbEntity
8
0
100
AcDbSpline
70
0
71
3
72
10
73
6
74
0
42
0.000000001
43
0.0000000001
44
0.0000000001
40
0
40
0
40
0
40
0
40
0.017862349673363892
40
0.017862349673363892
40
0.03571830921187813
40
0.03571830921187813
40
0.03571830921187813
40
0.03571830921187813
10
-267.20192329340335
20
-386.08385728647477
30
0
10
-267.16044764609455
20
-386.04113819146227
30
0
10
-267.12103675277865
20
-386.00054575215563
30
0
10
-267.07457471678549
20
-385.90088466955166
30
0
10
-267.06811683349412
20
-385.84312000350457
30
0
10
-267.06165895020274
20
-385.78535533745759
30
0
0
SPLINE
5
376
100
AcDbEntity
8
0
100
AcDbSpline
70
0
71
3
72
10
73
6
74
0
42
0.000000001
43
0.0000000001
44
0.0000000001
40
0
40
0
40
0
40
0
40
0.011490476783342042
40
0.011490476783342042
40
0.022991908480731786
40
0.022991908480731786
40
0.022991908480731786
40
0.022991908480731786
10
-267.06165895020274
20
-385.78535533745759
30
0
10
-267.06354749471859
20
-385.7471003359438
30
0
10
-267.06543603923438
20
-385.70884533443001
30
0
10
-267.08819561636165
20
-385.63862098794118
30
0
10
-267.10860871718529
20
-385.60812644732374
30
0
10
-267.13074241568773
20
-385.57506155562379
30
0
0
SPLINE
5
377
100
AcDbEntity
8
0
100
AcDbSpline
70
0
71
3
72
10
73
6
74
0
42
0.000000001
43
0.0000000001
44
0.0000000001
40
0
40
0
40
0
40
0
40
0.014212884416846407
40
0.014212884416846407
40
0.028295288581740186
40
0.028295288581740186
40
0.028295288581740186
40
0.028295288581740186
10
-267.13074241568773
20
-385.57506155562379
30
0
10
-267.1646403953049
20
-385.54196413856187
30
0
10
-267.19199695456149
20
-385.5152536542995
30
0
10
-267.26510454243441
20
-385.47376399719786
30
0
10
-267.30639102891604
20
-385.46131409181658
30
0
10
-267.34767751539766
20
-385.44886418643529
30
0
0
LINE
5
378
100
AcDbEntity
8
0
100
AcDbLine
10
-267.34767751539766
20
-385.44886418643523
30
0
11
-267.30562559443155
21
-385.21098301743967
31
3.8518598887744717e-33
0
SPLINE
5
379
100
AcDbEntity
8
0
100
AcDbSpline
70
0
71
3
72
10
73
6
74
0
42
0.000000001
43
0.0000000001
44
0.0000000001
40
0
40
0
40
0
40
0
40
0.020213836717097755
40
0.020213836717097755
40
0.040496052817977829
40
0.040496052817977829
40
0.040496052817977829
40
0.040496052817977829
10
-267.30562559443155
20
-385.21098301743967
30
0
10
-267.24073541381995
20
-385.22912841668631
30
0
10
-267.17584523320846
20
-385.24727381593277
30
0
10
-267.06380675113269
20
-385.31313450866912
30
0
10
-267.02097399850209
20
-385.35844848872
30
0
10
-266.97158155866907
20
-385.41070214732946
30
0
0
SPLINE
5
380
100
AcDbEntity
8
0
100
AcDbSpline
70
0
71
3
72
10
73
6
74
0
42
0.000000001
43
0.0000000001
44
0.0000000001
40
0
40
0
40
0
40
0
40
0.022632409229413331
40
0.022632409229413331
40
0.045139030745449123
40
0.045139030745449123
40
0.045139030745449123
40
0.045139030745449123
10
-266.97158155866907
20
-385.41070214732946
30
0
10
-266.93280232522523
20
-385.47541358735737
30
0
10
-266.90027323063163
20
-385.52969533475209
30
0
10
-266.86413340877658
20
-385.65994139938982
30
0
10
-266.86206988529341
20
-385.72963186779077
30
0
10
-266.86000636181029
20
-385.79932233619166
30
0
0
SPLINE
5
381
100
AcDbEntity
8
0
100
AcDbSpline
70
0
71
3
72
10
73
6
74
0
42
0.000000001
43
0.0000000001
44
0.0000000001
40
0
40
0
40
0
40
0
40
0.018220270739473503
40
0.018220270739473503
40
0.036441887964736963
40
0.036441887964736963
40
0.036441887964736963
40
0.036441887964736963
10
-266.86000636181029
20
-385.79932233619166
30
0
10
-266.864914301498
20
-385.85985794163196
30
0
10
-266.86982224118572
20
-385.92039354707208
30
0
10
-266.90181333060013
20
-386.03525543271576
30
0
10
-266.92870599500372
20
-386.0888914450386
30
0
10
-266.95624647538574
20
-386.14381949244148
30
0
0
SPLINE
5
382
100
AcDbEntity
8
0
100
AcDbSpline
70
0
71
3
72
10
73
6
74
0
42
0.000000001
43
0.0000000001
44
0.0000000001
40
0
40
0
40
0
40
0
40
0.018796724231418961
40
0.018796724231418961
40
0.037583042123022548
40
0.037583042123022548
40
0.037583042123022548
40
0.037583042123022548
10
-266.95624647538574
20
-386.14381949244148
30
0
10
-266.99228393998914
20
-386.19507418814817
30
0
10
-267.02612748343671
20
-386.24320855442869
30
0
10
-267.11583450120338
20
-386.31971378524293
30
0
10
-267.17024271463066
20
-386.34686488561385
30
0
10
-267.224650928058
20
-386.37401598598473
30
0
0
SPLINE
5
383
100
AcDbEntity
8
0
100
AcDbSpline
70
0
71
3
72
10
73
6
74
0
42
0.000000001
43
0.0000000001
44
0.0000000001
40
0
40
0
40
0
40
0
40
0.022822265494067986
40
0.022822265494067986
40
0.045536953724711379
40
0.045536953724711379
40
0.045536953724711379
40
0.045536953724711379
10
-267.224650928058
20
-386.37401598598473
30
0
10
-267.29677086392536
20
-386.39822345471879
30
0
10
-267.35796994184761
20
-386.41876527505644
30
0
10
-267.4958279044115
20
-386.44105546828831
30
0
10
-267.56636183240516
20
-386.44191363249774
30
0
10
-267.636895760399
20
-386.44277179670718
30
0
0
SPLINE
5
384
100
AcDbEntity
8
0
100
AcDbSpline
70
0
71
3
72
10
73
6
74
0
42
0.000000001
43
0.0000000001
44
0.0000000001
40
0
40
0
40
0
40
0
40
0.030565630521510154
40
0.030565630521510154
40
0.061516097848972842
40
0.061516097848972842
40
0.061516097848972842
40
0.061516097848972842
10
-267.636895760399
20
-386.44277179670718
30
0
10
-267.73857817533553
20
-386.43634308202775
30
0
10
-267.84026059027201
20
-386.42991436734837
30
0
10
-268.02703725981524
20
-386.36810512044042
30
0
10
-268.09914049772135
20
-386.31633389449127
30
0
10
-268.19080126759889
20
-386.25052006191152
30
0
0
SPLINE
5
385
100
AcDbEntity
8
0
100
AcDbSpline
70
0
71
3
72
10
73
6
74
0
42
0.000000001
43
0.0000000001
44
0.0000000001
40
0
40
0
40
0
40
0
40
0.028613070026647369
40
0.028613070026647369
40
0.05717042064070367
40
0.05717042064070367
40
0.05717042064070367
40
0.05717042064070367
10
-268.19080126759889
20
-386.25052006191152
30
0
10
-268.25076570440746
20
-386.17635120464126
30
0
10
-268.30437490105743
20
-386.11004302155277
30
0
10
-268.36443296177669
20
-385.94847944688354
30
0
10
-268.36921546687586
20
-385.8580098942096
30
0
10
-268.37399797197509
20
-385.76754034153566
30
0
0
SPLINE
5
386
100
AcDbEntity
8
0
100
AcDbSpline
70
0
71
3
72
10
73
6
74
0
42
0.000000001
43
0.0000000001
44
0.0000000001
40
0
40
0
40
0
40
0
40
0.022008328118420031
40
0.022008328118420031
40
0.044048403018855743
40
0.044048403018855743
40
0.044048403018855743
40
0.044048403018855743
10
-268.37399797197509
20
-385.76754034153566
30
0
10
-268.36735502214049
20
-385.6944806310895
30
0
10
-268.360712072306
20
-385.62142092064335
30
0
10
-268.311581537883
20
-385.48889201106562
30
0
10
-268.27029407113105
20
-385.43281930629826
30
0
10
-268.22476411667566
20
-385.37098485882319
30
0
0
SPLINE
5
387
100
AcDbEntity
8
0
100
AcDbSpline
70
0
71
3
72
10
73
6
74
0
42
0.000000001
43
0.0000000001
44
0.0000000001
40
0
40
0
40
0
40
0
40
0.024401970165897902
40
0.024401970165897902
40
0.048724087736763413
40
0.048724087736763413
40
0.048724087736763413
40
0.048724087736763413
10
-268.22476411667566
20
-385.37098485882319
30
0
10
-268.16398168343187
20
-385.31693233593165
30
0
10
-268.11117589843826
20
-385.26997327638355
30
0
10
-267.97851883036208
20
-385.20592861425484
30
0
10
-267.90369286695255
20
-385.19112889834838
30
0
10
-267.82886690354303
20
-385.1763291824418
30
0
0
LINE
5
388
100
AcDbEntity
8
0
100
AcDbLine
10
-267.82886690354309
20
-385.1763291824418
30
0
11
-267.80278199606738
21
-385.4184314505419
31
-3.8518598887744717e-33
0
SPLINE
5
389
100
AcDbEntity
8
0
100
AcDbSpline
70
0
71
3
72
10
73
6
74
0
42
0.000000001
43
0.0000000001
44
0.0000000001
40
0
40
0
40
0
40
0
40
0.015497853081145015
40
0.015497853081145015
40
0.031226342153659215
40
0.031226342153659215
40
0.031226342153659215
40
0.031226342153659215
10
-267.80278199606738
20
-385.4184314505419
30
0
10
-267.85383986228334
20
-385.42629270355008
30
0
10
-267.90489772849935
20
-385.43415395655836
30
0
10
-267.99798986532414
20
-385.47205307675227
30
0
10
-268.03304416280349
20
-385.49963685933494
30
0
10
-268.07825540970271
20
-385.53521301673732
30
0
0
LWPOLYLINE
5
390
100
AcDbEntity
8
0
100
AcDbPolyline
90
4
70
1
43
0.0
10
-268.39638722252386
20
-388.28607119369917
10
-266.39686634000174
20
-388.32984743802569
10
-266.40224132006273
20
-388.57535467694908
10
-268.40176220258479
20
-388.53157843262261
0
LWPOLYLINE
5
391
100
AcDbEntity
8
0
100
AcDbPolyline
90
16
70
1
43
0.0
10
-262.40002417564392
20
-352.33704242232244
42
0.95473482055047432
10
-271.10463710594979
20
-368.07057741391327
42
0.0074126120885894793
10
-270.8795036676957
20
-368.26350274467427
42
0.25067289934693532
10
-262.40002417564392
20
-368.5200055559435
10
-262.40002417564386
20
-386.46643115580076
42
-0.41421356237308904
10
-269.40002417564392
20
-393.46643115580082
10
-275.40002436935902
20
-393.46643115580071
10
-275.40002436935902
20
-385.13618901961695
10
-282.4000244140625
20
-385.13618901961701
10
-284.40002441406244
20
-383.13618901961689
10
-284.40002441406244
20
-337.46643029153347
10
-282.40002436935902
20
-335.46643029153347
10
-275.40002436935902
20
-335.46643029153347
10
-275.40002436935902
20
-327.46643017232418
10
-269.40002417564392
20
-327.46643017232418
42
-0.41421356237308904
10
-262.40002417564392
20
-334.46643017232418
0
LWPOLYLINE
5
392
100
AcDbEntity
8
0
100
AcDbPolyline
90
4
70
1
43
0.0
10
-300.67109151223355
20
-373.8340333751579
10
-303.26916772358686
20
-375.33403337515784
10
-307.26916772358686
20
-368.40583014488232
10
-304.6710915122336
20
-366.90583014488232
0
LINE
5
393
100
AcDbEntity
8
0
100
AcDbLine
10
-312.01493083302114
20
-364.00582795590174
30
0
11
-314.97109123730712
21
-364.00582795590174
31
-3.3280069439011436e-30
0
LINE
5
394
100
AcDbEntity
8
0
100
AcDbLine
10
-314.97109123730712
20
-364.00582795590174
30
-3.3280069439011436e-30
11
-314.97109123730712
21
-364.08176036306168
31
-6.798155367233167e-32
0
LINE
5
395
100
AcDbEntity
8
0
100
AcDbLine
10
-314.97109123730712
20
-364.08176036306168
30
-6.798155367233167e-32
11
-311.97109123730712
21
-364.08176036306168
31
6.1629758220391547e-31
0
LINE
5
396
100
AcDbEntity
8
0
100
AcDbLine
10
-311.97109123730712
20
-364.08176036306168
30
6.1629758220391547e-31
11
-301.04728537078665
21
-383.00234713589418
31
-1.9721522630525295e-30
0
LINE
5
397
100
AcDbEntity
8
0
100
AcDbLine
10
-301.04728537078665
20
-383.00234713589418
30
-1.9721522630525295e-30
11
-298.98338159561837
21
-383.00234713589424
31
-3.0814879110195774e-32
0
LINE
5
398
100
AcDbEntity
8
0
100
AcDbLine
10
-298.98338159561837
20
-383.00234713589424
30
-3.0814879110195774e-32
11
-298.98338159561837
21
-385.35404044847093
31
-1.61012663758566e-45
0
LINE
5
399
100
AcDbEntity
8
0
100
AcDbLine
10
-298.98338159561837
20
-385.35404044847093
30
-1.61012663758566e-45
11
-289.86208053558858
21
-392.37569020352248
31
2.4651903288156619e-31
0
LINE
5
400
100
AcDbEntity
8
0
100
AcDbLine
10
-289.86208053558858
20
-392.37569020352248
30
2.4651903288156619e-31
11
-288.13002972801968
21
-391.37569020352237
31
-1.2325951644078309e-31
0
LINE
5
401
100
AcDbEntity
8
0
100
AcDbLine
10
-288.13002972801968
20
-391.37569020352237
30
-1.2325951644078309e-31
11
-309.94301034138272
21
-353.59449951666255
31
-9.8607613152626476e-31
0
LINE
5
402
100
AcDbEntity
8
0
100
AcDbLine
10
-309.94301034138272
20
-353.59449951666255
30
-9.8607613152626476e-31
11
-304.08608053558851
21
-350.21299951666253
31
6.1629758220391547e-31
0
LINE
5
403
100
AcDbEntity
8
0
100
AcDbLine
10
-304.08608053558851
20
-350.21299951666253
30
6.1629758220391547e-31
11
-304.4943663513032
21
-349.5058277398349
31
-2.311115933264683e-32
0
LINE
5
404
100
AcDbEntity
8
0
100
AcDbLine
10
-304.4943663513032
20
-349.5058277398349
30
-2.311115933264683e-32
11
-312.86122308844438
21
-349.5058277398349
31
1.2325951644078309e-31
0
LINE
5
405
100
AcDbEntity
8
0
100
AcDbLine
10
-314.87109128201052
20
-354.00582780689012
30
5.952680987295686e-32
11
-314.97109123730712
21
-354.00582780689012
31
1.4637067577342992e-31
0
LINE
5
406
100
AcDbEntity
8
0
100
AcDbLine
10
-314.97109123730712
20
-354.00582780689012
30
1.4637067577342992e-31
11
-314.97109123730712
21
-361.00582791119825
31
6.435358796195582e-61
0
LINE
5
407
100
AcDbEntity
8
0
100
AcDbLine
10
-320.9710912820106
20
-362.00582795590174
30
0
11
-318.9710912820106
21
-364.00582795590174
31
4.3140830754274083e-31
0
LINE
5
408
100
AcDbEntity
8
0
100
AcDbLine
10
-318.9710912820106
20
-364.00582795590174
30
4.3140830754274083e-31
11
-312.01493083302114
21
-364.00582795590174
31
1.6791920026044708e-24
0
LINE
5
409
100
AcDbEntity
8
0
100
AcDbLine
10
-317.97109132671414
20
-361.00582791119825
30
4.0763276770682412e-23
11
-317.97109132671409
21
-354.00582791119825
31
-5.8990788965126175e-61
0
LINE
5
410
100
AcDbEntity
8
0
100
AcDbLine
10
-317.97109132671409
20
-354.00582791119825
30
-5.8990788965126175e-61
11
-314.87109128201052
21
-354.00582780689012
31
5.0795786232150175e-23
0
LINE
5
411
100
AcDbEntity
8
0
100
AcDbLine
10
-312.86122308844438
20
-349.5058277398349
30
-9.2444637330587321e-32
11
-318.97109123730718
21
-349.5058277398349
31
-6.1629758220391547e-31
0
LINE
5
412
100
AcDbEntity
8
0
100
AcDbLine
10
-318.97109123730718
20
-349.5058277398349
30
-6.1629758220391547e-31
11
-320.9710912820106
21
-351.50582773983496
31
3.0588408853960883e-24
0
LINE
5
413
100
AcDbEntity
8
0
100
AcDbLine
10
-320.9710912820106
20
-351.50582773983496
30
3.0588408853960883e-24
11
-320.9710912820106
21
-362.00582795590174
31
0
0
LWPOLYLINE
5
414
100
AcDbEntity
8
0
100
AcDbPolyline
90
4
70
1
43
0.0
10
-306.70353169778053
20
-324.76320207632961
10
-309.30160790913385
20
-326.26320207632955
10
-313.30160790913385
20
-319.33499884605408
10
-310.70353169778053
20
-317.83499884605408
0
LINE
5
415
100
AcDbEntity
8
0
100
AcDbLine
10
-318.04737101856807
20
-314.9349966570735
30
-2.4651903288156619e-31
11
-321.00353142285405
21
-314.9349966570735
31
-3.3280069439011436e-30
0
LINE
5
416
100
AcDbEntity
8
0
100
AcDbLine
10
-321.00353142285405
20
-314.9349966570735
30
-3.3280069439011436e-30
11
-321.00353142285405
21
-315.01092906423344
31
-6.798155367233167e-32
0
LINE
5
417
100
AcDbEntity
8
0
100
AcDbLine
10
-321.00353142285405
20
-315.01092906423344
30
-6.798155367233167e-32
11
-318.00353142285405
21
-315.01092906423344
31
6.1629758220391547e-31
0
LINE
5
418
100
AcDbEntity
8
0
100
AcDbLine
10
-318.00353142285405
20
-315.01092906423344
30
6.1629758220391547e-31
11
-307.07972555633364
21
-333.93151583706594
31
-1.9721522630525295e-30
0
LINE
5
419
100
AcDbEntity
8
0
100
AcDbLine
10
-307.07972555633364
20
-333.93151583706594
30
-1.9721522630525295e-30
11
-305.0158217811653
21
-333.93151583706594
31
-3.0814879110195774e-32
0
LINE
5
420
100
AcDbEntity
8
0
100
AcDbLine
10
-305.0158217811653
20
-333.93151583706594
30
-3.0814879110195774e-32
11
-305.0158217811653
21
-336.28320914964263
31
2.0110496238111199e-61
0
LINE
5
421
100
AcDbEntity
8
0
100
AcDbLine
10
-305.0158217811653
20
-336.28320914964263
30
2.0110496238111199e-61
11
-295.89452072113551
21
-343.30485890469419
31
2.4651903288156619e-31
0
LINE
5
422
100
AcDbEntity
8
0
100
AcDbLine
10
-295.89452072113551
20
-343.30485890469419
30
2.4651903288156619e-31
11
-294.16246991356667
21
-342.30485890469419
31
-1.2325951644078309e-31
0
LINE
5
423
100
AcDbEntity
8
0
100
AcDbLine
10
-294.16246991356667
20
-342.30485890469419
30
-1.2325951644078309e-31
11
-315.97545052692971
21
-304.52366821783426
31
-9.8607613152626476e-31
0
LINE
5
424
100
AcDbEntity
8
0
100
AcDbLine
10
-315.97545052692971
20
-304.52366821783426
30
-9.8607613152626476e-31
11
-310.1185207211355
21
-301.14216821783424
31
6.1629758220391547e-31
0
LINE
5
425
100
AcDbEntity
8
0
100
AcDbLine
10
-310.1185207211355
20
-301.14216821783424
30
6.1629758220391547e-31
11
-310.52680653685019
21
-300.43499644100666
31
2.2340787354891936e-31
0
LINE
5
426
100
AcDbEntity
8
0
100
AcDbLine
10
-310.52680653685019
20
-300.43499644100666
30
2.2340787354891936e-31
11
-318.89366327399136
21
-300.43499644100666
31
1.2325951644078309e-31
0
LINE
5
427
100
AcDbEntity
8
0
100
AcDbLine
10
-320.90353146755751
20
-304.93499650806189
30
5.952680987295686e-32
11
-321.00353142285417
21
-304.93499650806189
31
1.4637067577342992e-31
0
LINE
5
428
100
AcDbEntity
8
0
100
AcDbLine
10
-321.00353142285417
20
-304.93499650806189
30
1.4637067577342992e-31
11
-321.00353142285405
21
-311.93499661237001
31
6.435358796195582e-61
0
LINE
5
429
100
AcDbEntity
8
0
100
AcDbLine
10
-327.00353146755759
20
-312.9349966570735
30
0
11
-325.00353146755754
21
-314.9349966570735
31
4.3140830754274083e-31
0
LINE
5
430
100
AcDbEntity
8
0
100
AcDbLine
10
-325.00353146755754
20
-314.9349966570735
30
4.3140830754274083e-31
11
-318.04737101856807
21
-314.9349966570735
31
1.6791920026044708e-24
0
LINE
5
431
100
AcDbEntity
8
0
100
AcDbLine
10
-324.00353151226108
20
-311.93499661237001
30
4.0763276770682412e-23
11
-324.00353151226108
21
-304.93499661237001
31
-5.8990788965126175e-61
0
LINE
5
432
100
AcDbEntity
8
0
100
AcDbLine
10
-324.00353151226108
20
-304.93499661237001
30
-5.8990788965126175e-61
11
-320.90353146755751
21
-304.93499650806189
31
5.0795786232150175e-23
0
LINE
5
433
100
AcDbEntity
8
0
100
AcDbLine
10
-318.89366327399136
20
-300.43499644100666
30
-9.2444637330587321e-32
11
-325.00353142285405
21
-300.43499644100666
31
-6.1629758220391547e-31
0
LINE
5
434
100
AcDbEntity
8
0
100
AcDbLine
10
-325.00353142285405
20
-300.43499644100666
30
-6.1629758220391547e-31
11
-327.00353146755759
21
-302.43499644100666
31
3.0588408853960883e-24
0
LINE
5
435
100
AcDbEntity
8
0
100
AcDbLine
10
-327.00353146755759
20
-302.43499644100666
30
3.0588408853960883e-24
11
-327.00353146755759
21
-312.9349966570735
31
0
0
LWPOLYLINE
5
436
100
AcDbEntity
8
0
100
AcDbPolyline
90
4
70
1
43
0.0
10
-289.21942132711411
20
-275.61389154940844
10
-289.21942132711411
20
-282.61389165371656
10
-297.21942144632339
20
-282.61389165371656
10
-297.21942144632339
20
-275.61389154940844
0
LWPOLYLINE
5
437
100
AcDbEntity
8
0
100
AcDbPolyline
90
8
70
1
43
0.0
10
-286.21942128241062
20
-319.1138916015625
10
-286.21942128241062
20
-246.11389110982418
10
-283.21942123770714
20
-246.11389110982418
10
-286.21942128241062
20
-240.11389160156253
10
-300.21942149102688
20
-240.11389160156253
10
-303.21942153573036
20
-246.11389110982418
10
-300.21942149102688
20
-246.11389110982418
10
-300.21942149102688
20
-319.1138916015625
0
LWPOLYLINE
5
438
100
AcDbEntity
8
0
100
AcDbPolyline
90
4
70
1
43
0.0
10
-264.19999732077122
20
-290.04385398328304
10
-269.19999739527702
20
-290.04385398328304
10
-269.19999739527702
20
-285.04385390877724
10
-264.19999732077122
20
-285.04385390877724
0
LWPOLYLINE
5
439
100
AcDbEntity
8
0
100
AcDbPolyline
90
4
70
1
43
0.0
10
-264.19999732077122
20
-260.04385353624821
10
-264.19999732077122
20
-265.04385361075401
10
-269.19999739527702
20
-265.04385361075401
10
-269.19999739527702
20
-260.04385353624821
0
LWPOLYLINE
5
440
100
AcDbEntity
8
0
100
AcDbPolyline
90
7
70
1
43
0.0
10
-256.19999720156193
20
-281.04385384917259
10
-252.19999714195728
20
-281.04385384917259
10
-252.19999714195728
20
-286.0438539236784
10
-249.1999970972538
20
-286.0438539236784
10
-254.19999717175961
20
-290.04385398328304
10
-259.19999724626541
20
-286.0438539236784
10
-256.19999720156193
20
-286.0438539236784
0
CIRCLE
5
441
100
AcDbEntity
8
0
100
AcDbCircle
10
-254.19999717175961
20
-275.04385375976562
30
0
40
2.5
210
5.641527646774051e-49
220
2.5407181807811967e-33
230
1
0
LWPOLYLINE
5
442
100
AcDbEntity
8
0
100
AcDbPolyline
90
7
70
1
43
0.0
10
-243.19999700784683
20
-270.04385368525982
10
-239.19999694824219
20
-275.04385375976562
10
-243.19999700784683
20
-280.04385383427143
10
-243.19999700784683
20
-277.04385378956795
10
-248.19999708235264
20
-277.04385378956795
10
-248.19999708235264
20
-273.0438537299633
10
-243.19999700784683
20
-273.0438537299633
0
LWPOLYLINE
5
443
100
AcDbEntity
8
0
100
AcDbPolyline
90
7
70
1
43
0.0
10
-260.19999726116657
20
-273.0438537299633
10
-260.19999726116657
20
-277.04385378956795
10
-265.19999733567238
20
-277.04385378956795
10
-265.19999733567238
20
-280.04385383427143
10
-269.19999739527702
20
-275.04385375976562
10
-265.19999733567238
20
-270.04385368525982
10
-265.19999733567238
20
-273.0438537299633
0
LWPOLYLINE
5
444
100
AcDbEntity
8
0
100
AcDbPolyline
90
7
70
1
43
0.0
10
-252.19999714195728
20
-269.04385367035866
10
-256.19999720156193
20
-269.04385367035866
10
-256.19999720156193
20
-264.04385359585285
10
-259.19999724626541
20
-264.04385359585285
10
-254.19999717175961
20
-260.04385353624821
10
-249.1999970972538
20
-264.04385359585285
10
-252.19999714195728
20
-264.04385359585285
0
LWPOLYLINE
5
445
100
AcDbEntity
8
0
100
AcDbPolyline
90
20
70
1
43
0.0
10
-233.69999694824219
20
-285.04937126201827
10
-236.69999694824219
20
-285.04937126201827
10
-236.69999694824219
20
-265.04385361075401
10
-233.69999694824219
20
-265.04385361075401
10
-233.69999694824219
20
-242.07703202701322
10
-244.19999702274799
20
-242.07703202701322
10
-244.19999702274799
20
-245.09196087687144
10
-264.22994596449701
20
-245.09196087687141
10
-264.22994596449701
20
-242.07703202701322
10
-274.69999747723341
20
-242.07703202701322
10
-274.69999747723341
20
-265.04385361075401
10
-271.70253719540153
20
-265.04385361075401
10
-271.70253719540153
20
-285.04937126201827
10
-274.69999747723341
20
-285.04937126201827
10
-274.69999747723341
20
-308.04385425150394
10
-264.22994596449701
20
-308.04385425150394
10
-264.22994596449706
20
-305.0546304950708
10
-244.19999702274805
20
-305.05463049507074
10
-244.19999702274799
20
-308.04385425150394
10
-233.69999694824219
20
-308.04385425150394
0
LWPOLYLINE
5
446
100
AcDbEntity
8
0
100
AcDbPolyline
90
4
70
1
43
0.0
10
-258.20001226663589
20
-206.22702031582594
10
-258.20001226663589
20
-199.22702021151781
10
-250.20001214742663
20
-199.22702021151781
10
-250.20001214742663
20
-206.22702031582594
0
LWPOLYLINE
5
447
100
AcDbEntity
8
0
100
AcDbPolyline
90
20
70
1
43
0.0
10
-271.70001220703125
20
-212.68833868490213
10
-274.70001220703131
20
-212.68833868490213
10
-274.70001220703131
20
-235.72702026367185
10
-264.20001257956028
20
-235.72702026367185
10
-264.20001257956028
20
-232.72702026367193
10
-244.20001228153708
20
-232.72702026367188
10
-244.20001228153708
20
-235.72702026367188
10
-233.70001220703128
20
-235.72702026367188
10
-233.70001220703128
20
-212.74857268370923
10
-236.70001220703128
20
-212.7485726837092
10
-236.70001220703128
20
-192.7485726837092
10
-233.70001220703128
20
-192.7485726837092
10
-233.70001220703128
20
-169.72702026367188
10
-244.20001228153708
20
-169.72701977193356
10
-244.20001228153708
20
-172.72702026367188
10
-264.20001257956028
20
-172.72702026367188
10
-264.20001257956028
20
-169.72701977193356
10
-274.70001220703131
20
-169.7270202636719
10
-274.70001220703131
20
-192.68833868490213
10
-271.70001220703125
20
-192.68833868490213
0
LWPOLYLINE
5
448
100
AcDbEntity
8
0
100
AcDbPolyline
90
4
70
1
43
0.0
10
-209.85000615566969
20
-77.349998414516449
10
-202.85000605136156
20
-77.349998414516449
10
-202.85000605136156
20
-85.349998533725739
10
-209.85000615566969
20
-85.349998533725739
0
LWPOLYLINE
5
449
100
AcDbEntity
8
0
100
AcDbPolyline
90
4
70
1
43
0.0
10
-198.85000599175692
20
-55.849998094141483
10
-198.85000599175692
20
-58.849998138844967
10
-213.85000621527433
20
-58.849998138844967
10
-213.85000621527433
20
-55.849998094141483
0
LWPOLYLINE
5
450
100
AcDbEntity
8
0
100
AcDbPolyline
90
4
70
1
43
0.0
10
-216.35000625252724
20
-139.34999933838844
10
-196.35000595450401
20
-139.34999933838844
10
-196.35000595450401
20
-142.34999938309193
10
-216.35000625252724
20
-142.34999938309193
0
LWPOLYLINE
5
451
100
AcDbEntity
8
0
100
AcDbPolyline
90
4
70
1
43
0.0
10
-161.35000610351562
20
-51.349998027086258
10
-164.35000610351562
20
-51.349998027086258
10
-164.35000610351562
20
-43.349997907876968
10
-161.35000610351562
20
-43.349997907876968
0
LWPOLYLINE
5
452
100
AcDbEntity
8
0
100
AcDbPolyline
90
4
70
1
43
0.0
10
-251.35000610351562
20
-43.349997907876968
10
-248.3500061035156
20
-43.349997907876968
10
-248.3500061035156
20
-51.349998027086258
10
-251.35000610351562
20
-51.349998027086258
0
LWPOLYLINE
5
453
100
AcDbEntity
8
0
100
AcDbPolyline
90
4
70
1
43
0.0
10
-251.35000610351562
20
-111.34999892115593
10
-248.3500061035156
20
-111.34999892115593
10
-248.3500061035156
20
-119.34999904036522
10
-251.35000610351562
20
-119.34999904036522
0
LWPOLYLINE
5
454
100
AcDbEntity
8
0
100
AcDbPolyline
90
4
70
1
43
0.0
10
-161.35000610351562
20
-111.34999892115593
10
-161.35000610351562
20
-119.34999904036522
10
-164.35000610351562
20
-119.34999904036522
10
-164.35000610351562
20
-111.34999892115593
0
LWPOLYLINE
5
455
100
AcDbEntity
8
0
100
AcDbPolyline
90
4
70
1
43
0.0
10
-196.35000595450401
20
-124.34999911487103
10
-216.35000625252724
20
-124.34999911487103
10
-216.35000625252724
20
-121.34999907016754
10
-196.35000595450401
20
-121.34999907016754
0
LWPOLYLINE
5
456
100
AcDbEntity
8
0
100
AcDbPolyline
90
4
70
1
43
0.0
10
-216.3284536834783
20
-101.84999847412109
10
-216.3284536834783
20
-98.849998474121094
10
-196.3284536834783
20
-98.849998474121094
10
-196.3284536834783
20
-101.84999847412109
0
LWPOLYLINE
5
457
100
AcDbEntity
8
0
100
AcDbPolyline
90
4
70
1
43
0.0
10
-239.35000659525394
20
-91.349998399615288
10
-239.35000659525394
20
-71.349998101592064
10
-236.35000610351562
20
-71.349998101592064
10
-236.35000610351562
20
-91.349998399615288
0
LWPOLYLINE
5
458
100
AcDbEntity
8
0
100
AcDbPolyline
90
4
70
1
43
0.0
10
-176.35000610351562
20
-91.349998399615288
10
-176.35000610351562
20
-71.349998101592064
10
-173.35000610351562
20
-71.349998101592064
10
-173.35000610351562
20
-91.349998399615288
0
LWPOLYLINE
5
459
100
AcDbEntity
8
0
100
AcDbPolyline
90
4
70
1
43
0.0
10
-231.3458360607853
20
-156.63451661221072
10
-181.50385937219278
20
-156.63451661221072
10
-181.50385937219272
20
-159.60647241086323
10
-231.3458360607853
20
-159.60647241086323
0
LWPOLYLINE
5
460
100
AcDbEntity
8
0
100
AcDbPolyline
90
24
70
1
43
0.0
10
-229.35000644624233
20
-20.849999826401469
10
-229.35000644624233
20
-6.3499984741210991
10
-266.35000610351562
20
-6.3499984741210991
42
0.41421356237309626
10
-281.35000610351562
20
-21.349998474121094
10
-254.35000681877136
20
-21.34999847412109
10
-254.35000681877136
20
-141.34999847412109
10
-281.35000610351562
20
-141.34999847412109
10
-281.35000610351562
20
-143.84999847412109
42
0.41421356237309331
10
-263.85000610351562
20
-161.34999847412109
10
-213.35786578231426
20
-163.98437101261857
42
0.026069227705219432
10
-199.34214642471693
20
-163.9843710126186
10
-148.85000610351562
20
-161.34999847412109
42
0.4142135623730947
10
-131.35000610351562
20
-143.84999847412109
10
-131.35000610351562
20
-141.34999847412109
10
-158.35000538825989
20
-141.34999847412109
10
-158.35000538825989
20
-21.34999847412109
10
-131.35000610351562
20
-21.34999847412109
42
0.41421356237309531
10
-146.35000610351562
20
-6.3499984741211151
10
-183.35000576078892
20
-6.3499984741210991
10
-183.35000576078892
20
-20.849999826401469
10
-186.3500058054924
20
-20.849999826401469
10
-186.3500058054924
20
-6.3499984741210991
10
-226.35000640153885
20
-6.3499984741210991
10
-226.35000640153885
20
-20.849999826401469
0
LWPOLYLINE
5
461
100
AcDbEntity
8
0
100
AcDbPolyline
90
8
70
1
43
0.0
10
-149.95686406550942
20
-108.67586173513901
10
-152.9568641102129
20
-108.67586173513901
10
-149.95686406550942
20
-111.17586177239191
10
-139.95686391649781
20
-111.1758617723919
10
-136.95686387179435
20
-108.67586173513899
10
-139.95686391649784
20
-108.67586173513901
10
-139.95686391649784
20
-90.175861668083826
10
-149.95686406550942
20
-90.175861668083826
0
CIRCLE
5
462
100
AcDbEntity
8
0
100
AcDbCircle
10
-150.50000057369471
20
-127.00000011920929
30
0
40
1.0000000000000009
210
0
220
-0
230
1
0
CIRCLE
5
463
100
AcDbEntity
8
0
100
AcDbCircle
10
-146.00000050663948
20
-127.00000011920929
30
0
40
2.9999999999999982
210
0
220
-0
230
1
0
CIRCLE
5
464
100
AcDbEntity
8
0
100
AcDbCircle
10
-141.50000043958426
20
-127.00000011920929
30
0
40
1.0000000000000009
210
0
220
-0
230
1
0
LWPOLYLINE
5
465
100
AcDbEntity
8
0
100
AcDbPolyline
90
12
70
1
43
0.0
10
-150.00000056624413
20
-122.00000004470348
10
-152.00000059604645
20
-122.00000004470348
10
-152.00000059604645
20
-132.0000001937151
10
-150.00000056624413
20
-132.0000001937151
10
-150.00000056624413
20
-135.00000023841858
10
-142.00000044703484
20
-135.00000023841858
10
-142.00000044703484
20
-132.0000001937151
10
-140.00000041723251
20
-132.0000001937151
10
-140.00000041723251
20
-122.00000004470348
10
-142.00000044703484
20
-122.00000004470348
10
-142.00000044703484
20
-119
10
-150.00000056624413
20
-119
0
LWPOLYLINE
5
466
100
AcDbEntity
8
0
100
AcDbPolyline
90
4
70
1
43
0.0
10
-186.85000621527433
20
-256.19689979404211
10
-186.85000621527433
20
-253.19689974933866
10
-171.85000599175692
20
-253.19689974933866
10
-171.85000599175692
20
-256.19689979404211
0
LWPOLYLINE
5
467
100
AcDbEntity
8
0
100
AcDbPolyline
90
42
70
1
43
0.0
10
-193.35000625252721
20
-203.69689901173118
10
-199.35000640153885
20
-203.69689901173118
10
-199.35000640153885
20
-189.69689880311492
10
-194.35000632703304
20
-189.69689880311492
10
-194.35000632703304
20
-181.69689881801611
10
-221.85000677406788
20
-181.69689881801611
42
0.41421356237309687
10
-227.35000677406791
20
-187.19689881801605
10
-227.35000677406791
20
-270.84259670115716
42
0.28186107212599615
10
-224.35000643879178
20
-275.74157635781836
10
-224.35000677406788
20
-275.69690001010895
10
-202.34960399061481
20
-275.69690001010895
10
-202.34960399061481
20
-273.80045983273396
10
-202.35000662505627
20
-273.80045983273396
10
-202.35000662505627
20
-272.19689999520779
10
-199.35000640153885
20
-272.19689999520779
10
-199.35000640153885
20
-257.69689981639385
10
-189.35000625252724
20
-257.69689981639385
10
-189.35000625252724
20
-269.69689999520779
10
-169.35000595450401
20
-269.69689999520779
10
-169.35000595450401
20
-257.69689981639385
10
-159.3500058054924
20
-257.69689981639385
10
-159.3500058054924
20
-272.19689999520779
10
-156.35000558197498
20
-272.19689999520779
10
-156.35000558197498
20
-275.69690008461475
10
-134.35000543296337
20
-275.69690001010895
10
-134.3500057682395
20
-275.69657635781834
42
0.28186107594184423
10
-131.35000543296337
20
-270.79759653006232
10
-131.35000543296337
20
-187.19689881801611
42
0.41421356237309315
10
-136.85000543296337
20
-181.69689881801605
10
-164.35000587999821
20
-181.69689881801611
10
-164.35000587999821
20
-189.69689880311492
10
-159.3500058054924
20
-189.69689880311492
10
-159.3500058054924
20
-203.69689901173118
10
-164.72500588558614
20
-203.69689901173118
10
-169.35000595450401
20
-199.58578783935974
10
-169.35000595450401
20
-181.58578783935974
10
-170.35000595450401
20
-181.58578783935974
10
-170.35000595450398
20
-169.6968987733126
10
-178.35000608861441
20
-169.6968987733126
10
-178.35000608861446
20
-187.6968987733126
10
-189.35000625252724
20
-187.6968987733126
10
-189.35000625252724
20
-199.6968990117312
0
LWPOLYLINE
5
468
100
AcDbEntity
8
0
100
AcDbPolyline
90
4
70
1
43
0.0
10
-134.35000610351562
20
-260.69689884781843
10
-134.35000610351562
20
-268.69689896702772
10
-137.35000610351562
20
-268.69689896702772
10
-137.35000610351562
20
-260.69689884781843
0
LWPOLYLINE
5
469
100
AcDbEntity
8
0
100
AcDbPolyline
90
4
70
1
43
0.0
10
-134.35000543296337
20
-200.69689941406253
10
-137.35000610351562
20
-200.69689941406253
10
-137.3500061035156
20
-192.74157635781836
10
-134.3500057682395
20
-192.74157635781836
0
LWPOLYLINE
5
470
100
AcDbEntity
8
0
100
AcDbPolyline
90
4
70
1
43
0.0
10
-213.35000661015511
20
-209.69689910113814
10
-145.35000559687614
20
-209.69689910113814
10
-145.35000559687614
20
-251.69689972698691
10
-213.35000661015511
20
-251.69689972698691
0
LWPOLYLINE
5
471
100
AcDbEntity
8
0
100
AcDbPolyline
90
4
70
1
43
0.0
10
-224.35000610351562
20
-260.69689884781843
10
-221.35000610351562
20
-260.69689884781843
10
-221.35000610351562
20
-268.69689896702772
10
-224.35000610351562
20
-268.69689896702772
0
LWPOLYLINE
5
472
100
AcDbEntity
8
0
100
AcDbPolyline
90
4
70
1
43
0.0
10
-224.35000643879175
20
-192.74157635781836
10
-221.35000610351562
20
-192.74157635781836
10
-221.35000610351562
20
-200.69689896702769
10
-224.35000677406788
20
-200.69689896702769
0
LWPOLYLINE
5
473
100
AcDbEntity
8
0
100
AcDbPolyline
90
27
70
1
43
0.0
10
-207.00000004470351
20
-237.72636090959264
10
-205.00000004470351
20
-239.72636090959264
10
-185.00808417461758
20
-239.72636090959264
10
-185.00808417461755
20
-237.67730004810332
10
-192.94135656772326
20
-229.83882937180894
10
-192.40965612297578
20
-229.30069832126176
42
-0.21573537335927698
10
-191.67099191204329
20
-227.34088610403901
10
-191.64429860595121
20
-227.3141927979469
42
0.21570409335393784
10
-192.38298237745309
20
-229.27370197239287
10
-190.95266660768246
20
-227.82608737021522
10
-178.20000050961971
20
-240.42636053631855
10
-179.99582172302783
20
-242.24390115662985
42
0.29615443444357648
10
-177.29003094786412
20
-241.66846045603396
10
-176.97433203664207
20
-241.35276154481193
42
-0.35552632650737992
10
-169.82521668024009
20
-234.20364618840995
10
-166.76669107865274
20
-231.14512058682254
42
0.41421356237309509
10
-166.76669107865274
20
-227.55301813839492
10
-170.2151575718508
20
-224.10455164519681
42
-0.3288030969647262
10
-176.94323952081575
20
-217.37646969623194
10
-177.52885628831217
20
-216.79085292873549
42
0.41421356237309509
10
-181.12095873673979
20
-216.79085292873549
10
-185.00000000000014
20
-220.66989419199584
10
-185.00000000000014
20
-228.7263607605812
10
-187.99999980628508
20
-228.7263607605812
10
-187.99999980628508
20
-219.67797836661327
10
-205.00000004470348
20
-219.67797836661322
10
-207.00000004470348
20
-221.67797836661322
0
CIRCLE
5
474
100
AcDbEntity
8
0
100
AcDbCircle
10
-179.32490751252598
20
-218.2276939081066
30
0
40
1.4700000000000268
210
-2.4651903288156616e-32
220
6.2301186728866617e-33
230
1
0
CIRCLE
5
475
100
AcDbEntity
8
0
100
AcDbCircle
10
-168.20353205802382
20
-229.34906936260873
30
0
40
1.4700000000000264
210
1.3833642393571761e-48
220
6.230118672886648e-33
230
1
0
LWPOLYLINE
5
476
100
AcDbEntity
8
0
100
AcDbPolyline
90
8
70
1
43
0.0
10
-155.17274437099695
20
-218.6402739286423
10
-155.17274437099695
20
-221.64027397334578
10
-159.67274443805218
20
-221.64027397334578
10
-159.67274443805218
20
-231.6402741223574
10
-155.17274437099695
20
-231.6402741223574
10
-155.17274437099695
20
-234.64027416706088
10
-152.67274433374405
20
-231.6402741223574
10
-152.67274433374405
20
-221.64027397334578
0
CIRCLE
5
477
100
AcDbEntity
8
0
100
AcDbCircle
10
-142.16162929683921
20
-290.04666149616241
30
0
40
1.0000000000000009
210
0
220
-0
230
1
0
CIRCLE
5
478
100
AcDbEntity
8
0
100
AcDbCircle
10
-137.66162922978398
20
-290.04666149616241
30
0
40
2.9999999999999982
210
0
220
-0
230
1
0
CIRCLE
5
479
100
AcDbEntity
8
0
100
AcDbCircle
10
-133.16162916272876
20
-290.04666149616241
30
0
40
1.0000000000000009
210
0
220
-0
230
1
0
LWPOLYLINE
5
480
100
AcDbEntity
8
0
100
AcDbPolyline
90
12
70
1
43
0.0
10
-141.66162928938863
20
-285.04666142165661
10
-143.66162931919095
20
-285.04666142165661
10
-143.66162931919095
20
-295.04666157066822
10
-141.66162928938863
20
-295.04666157066822
10
-141.66162928938863
20
-298.0466616153717
10
-133.66162917017934
20
-298.0466616153717
10
-133.66162917017934
20
-295.04666157066822
10
-131.66162914037702
20
-295.04666157066822
10
-131.66162914037702
20
-285.04666142165661
10
-133.66162917017934
20
-285.04666142165661
10
-133.66162917017934
20
-282.04666137695312
10
-141.66162928938863
20
-282.04666137695312
0
LWPOLYLINE
5
481
100
AcDbEntity
8
0
100
AcDbPolyline
90
4
70
1
43
0.0
10
-192.97845473885536
20
-307.04690589010715
10
-172.97845444083214
20
-307.04690589010715
10
-172.97845444083214
20
-312.04690596461296
10
-192.97845473885536
20
-312.04690596461296
0
LWPOLYLINE
5
482
100
AcDbEntity
8
0
100
AcDbPolyline
90
4
70
1
43
0.0
10
-174.97845447063446
20
-279.04690547287464
10
-174.97845447063446
20
-282.04690551757812
10
-190.97845470905304
20
-282.04690551757812
10
-190.97845470905304
20
-279.04690547287464
0
LWPOLYLINE
5
483
100
AcDbEntity
8
0
100
AcDbPolyline
90
22
70
1
43
0.0
10
-172.97845444083214
20
-278.04690551757812
10
-174.97845444083214
20
-276.04690551757818
10
-191.00000700988107
20
-276.04690551757818
10
-193.00000700988107
20
-278.04690551757812
10
-193.00000700988107
20
-288.04690551757812
10
-216.01163285709134
20
-288.04690551757812
10
-216.01163285709134
20
-297.04690574109554
10
-212.97845503687859
20
-297.04690574109554
10
-212.97845503687859
20
-312.09058030600187
10
-216.01163285709134
20
-312.09058030600187
10
-216.01163285709134
20
-318.05628728012061
10
-193.00000700988107
20
-318.05628728012061
10
-193.00000700988107
20
-321.04690609872341
10
-172.97845444083214
20
-321.04690609872341
10
-172.97845444083214
20
-318.05628728012061
10
-150.01163285709134
20
-318.05628728012061
10
-150.01163285709134
20
-312.09058030600193
10
-152.97845414280894
20
-312.09058030600187
10
-152.97845414280891
20
-297.04690574109554
10
-150.01163285709134
20
-297.04690574109554
10
-150.01163285709134
20
-288.04690551757812
10
-172.97845444083214
20
-288.04690551757812
0
LINE
5
484
100
AcDbEntity
8
0
100
AcDbLine
10
-313.8179630190134
20
-162.56387809291482
30
0
11
-313.8179630190134
21
-165.58708076582874
31
6.8422776578360209e-48
0
LINE
5
485
100
AcDbEntity
8
0
100
AcDbLine
10
-313.8179630190134
20
-165.58708076582874
30
6.8422776578360209e-48
11
-313.65913688876316
21
-166.0666791161172
31
0
0
LINE
5
486
100
AcDbEntity
8
0
100
AcDbLine
10
-313.65913688876316
20
-166.0666791161172
30
0
11
-308.4016388742084
21
-169.86387528479099
31
0
0
LINE
5
487
100
AcDbEntity
8
0
100
AcDbLine
10
-308.4016388742084
20
-169.86387528479099
30
0
11
-304.81796276569361
21
-169.86387528479099
31
-4.1036527649562315e-24
0
LINE
5
488
100
AcDbEntity
8
0
100
AcDbLine
10
-304.81796276569361
20
-169.86387528479099
30
-4.1036527649562315e-24
11
-304.81796276569366
21
-233.76387634277341
31
9.5834651564723239e-31
0
LINE
5
489
100
AcDbEntity
8
0
100
AcDbLine
10
-304.81796276569366
20
-233.76387634277341
30
9.5834651564723239e-31
11
-288.81796252727509
21
-233.76387634277341
31
0
0
LINE
5
490
100
AcDbEntity
8
0
100
AcDbLine
10
-288.81796252727509
20
-233.76387634277341
30
0
11
-288.81796252727509
21
-169.86387528479099
31
-9.5834651564723239e-31
0
LINE
5
491
100
AcDbEntity
8
0
100
AcDbLine
10
-288.81796252727509
20
-169.86387528479099
30
-9.5834651564723239e-31
11
-285.51255846583433
21
-169.86387528479099
31
1.3768913825195625e-25
0
LINE
5
492
100
AcDbEntity
8
0
100
AcDbLine
10
-285.51255846583433
20
-169.86387528479099
30
1.3768913825195625e-25
11
-280.29686700750273
21
-166.05308871530963
31
0
0
LINE
5
493
100
AcDbEntity
8
0
100
AcDbLine
10
-280.29686700750273
20
-166.05308871530963
30
0
11
-280.14820429092987
21
-165.58708076582874
31
0
0
LINE
5
494
100
AcDbEntity
8
0
100
AcDbLine
10
-280.14820429092987
20
-165.58708076582874
30
0
11
-280.14820429092987
21
-162.56387809291482
31
-6.8422776578360209e-48
0
LINE
5
495
100
AcDbEntity
8
0
100
AcDbLine
10
-280.14820429092987
20
-162.56387809291482
30
-6.8422776578360209e-48
11
-279.31796238571405
21
-162.56387809291482
31
2.9134843427016145e-24
0
LINE
5
496
100
AcDbEntity
8
0
100
AcDbLine
10
-279.31796238571405
20
-162.56387809291482
30
2.9134843427016145e-24
11
-280.14823722034055
21
-161.58706739205223
31
-1.5407439555097887e-32
0
LINE
5
497
100
AcDbEntity
8
0
100
AcDbLine
10
-280.14820429092987
20
-161.58708076582877
30
0
11
-313.8179630190134
21
-161.58708076582877
31
0
0
LINE
5
498
100
AcDbEntity
8
0
100
AcDbLine
10
-313.81796345394105
20
-161.58706739205223
30
0
11
-314.81796224415302
21
-162.56387809291482
31
1.5407439555097887e-32
0
LINE
5
499
100
AcDbEntity
8
0
100
AcDbLine
10
-314.81796224415302
20
-162.56387809291482
30
1.5407439555097887e-32
11
-313.8179630190134
21
-162.56387809291482
31
0
0
LINE
5
500
100
AcDbEntity
8
0
100
AcDbLine
10
-313.16795443743467
20
-186.02620073747633
30
0
11
-313.16795443743467
21
-237.02420078217983
31
7.6484749597322863e-31
0
LWPOLYLINE
5
501
100
AcDbEntity
8
0
100
AcDbPolyline
90
12
70
1
43
0.0
10
-313.16795443743467
20
-237.02420078217983
10
-313.16795443743467
20
-186.02620073747636
10
-320.1679545417428
20
-186.02620073747633
10
-320.1679545417428
20
-237.02420078217983
10
-322.16795457154512
20
-237.02420078217983
10
-320.16895398989072
20
-241.02420084178448
10
-320.1679545417428
20
-241.02420084178448
10
-320.1679545417428
20
-241.02620073747633
10
-313.16795443743467
20
-241.02620073747633
10
-313.16795443743467
20
-241.02420084178448
10
-313.16695498928675
20
-241.02420084178448
10
-311.16795440763235
20
-237.02420078217983
0
LINE
5
502
100
AcDbEntity
8
0
100
AcDbLine
10
-311.56942793726927
20
-247.37527465820312
30
0
11
-319.56942805647856
21
-247.37527465820312
31
0
0
CIRCLE
5
503
100
AcDbEntity
8
0
100
AcDbCircle
10
-315.56942799687391
20
-255.37527477741241
30
0
40
2.9999999999999982
210
0
220
-0
230
1
0
CIRCLE
5
504
100
AcDbEntity
8
0
100
AcDbCircle
10
-320.06942806392914
20
-255.37527477741241
30
0
40
1.0000000000000009
210
0
220
-0
230
1
0
CIRCLE
5
505
100
AcDbEntity
8
0
100
AcDbCircle
10
-315.56942799687391
20
-255.37527477741241
30
0
40
2.9999999999999982
210
0
220
-0
230
1
0
CIRCLE
5
506
100
AcDbEntity
8
0
100
AcDbCircle
10
-311.06942792981869
20
-255.37527477741241
30
0
40
1.0000000000000009
210
0
220
-0
230
1
0
LWPOLYLINE
5
507
100
AcDbEntity
8
0
100
AcDbPolyline
90
12
70
1
43
0.0
10
-319.56942805647856
20
-250.37527470290661
10
-321.56942808628088
20
-250.37527470290661
10
-321.56942808628088
20
-260.37527485191822
10
-319.56942805647856
20
-260.37527485191822
10
-319.56942805647856
20
-263.3752748966217
10
-311.56942793726927
20
-263.3752748966217
10
-311.56942793726927
20
-260.37527485191822
10
-309.56942790746695
20
-260.37527485191822
10
-309.56942790746695
20
-250.37527470290661
10
-311.56942793726927
20
-250.37527470290661
10
-311.56942793726927
20
-247.37527465820312
10
-319.56942805647856
20
-247.37527465820312
0
CIRCLE
5
508
100
AcDbEntity
8
0
100
AcDbCircle
10
-275.9669499099254
20
-50.176147349179033
30
0
40
1.7500000000000004
210
-4.9303806576313216e-32
220
-4.7676560278168958e-33
230
1
0
LINE
5
509
100
AcDbEntity
8
0
100
AcDbLine
10
-277.53271090009895
20
-64.494553392738368
30
0
11
-277.51830660757292
21
-64.495862873877073
31
-7.6555715289392625e-32
0
SPLINE
5
510
100
AcDbEntity
8
0
100
AcDbSpline
70
0
71
3
72
10
73
6
74
0
42
0.000000001
43
0.0000000001
44
0.0000000001
40
0
40
0
40
0
40
0
40
0.002629430128708306
40
0.002629430128708306
40
0.0052584770845555528
40
0.0052584770845555528
40
0.0052584770845555528
40
0.0052584770845555528
10
-277.51830660757292
20
-64.495862873877073
30
0
10
-277.51645145436032
20
-64.48729668751443
30
0
10
-277.51459630114942
20
-64.478730501159987
30
0
10
-277.51077927517997
20
-64.461625655299301
30
0
10
-277.50881704714868
20
-64.453085330050357
30
0
10
-277.50674769756529
20
-64.444570877581356
30
0
0
ARC
5
511
100
AcDbEntity
8
0
100
AcDbCircle
10
-275.96694879233826
20
-65.276147291064547
30
7.3100114821021551e-46
40
1.7499999999999862
210
7.0966439009013959e-33
220
1.4216661793418803e-32
230
1
100
AcDbArc
50
-206.52735818236343
51
151.62850485040983
0
LWPOLYLINE
5
512
100
AcDbEntity
8
0
100
AcDbPolyline
90
15
70
1
43
0.0
10
-282.70004395392453
20
-77.674589192319502
10
-282.70001172101252
20
-77.674589192319502
10
-282.70001172101252
20
-77.674549573838277
10
-268.7310335283446
20
-77.674549573838334
10
-268.7310335283446
20
-77.674589192319502
10
-260.70000468372479
20
-77.674589192319502
10
-260.70000468372479
20
-37.676549573838251
10
-282.70004395392453
20
-37.676549573838244
10
-282.70004395392453
20
-34.674674497397731
10
-290.70000468372479
20
-34.674674497397731
10
-290.70000468372479
20
-37.676549573838287
10
-290.70000468372479
20
-77.674549573838277
10
-290.70000468372479
20
-77.676549573838273
10
-290.70000468372479
20
-80.674674497397731
10
-282.70004395392453
20
-80.674674497397731
0
LWPOLYLINE
5
513
100
AcDbEntity
8
0
100
AcDbPolyline
90
4
70
1
43
0.0
10
-309.55001838505268
20
-34.324673935770988
10
-309.55001838505268
20
-31.324673891067505
10
-299.55001823604107
20
-31.324673891067508
10
-299.55001823604107
20
-34.324673935770988
0
LWPOLYLINE
5
514
100
AcDbEntity
8
0
100
AcDbPolyline
90
4
70
1
43
0.0
10
-309.55001838505268
20
-12.32467360794544
10
-299.55001823604107
20
-12.324673607945442
10
-299.55001823604107
20
-15.324673652648926
10
-309.55001838505268
20
-15.324673652648924
0
LWPOLYLINE
5
515
100
AcDbEntity
8
0
100
AcDbPolyline
90
20
70
1
43
0.0
10
-310.05001819878817
20
-9.3246736973524058
10
-312.05001819878817
20
-11.324673697352408
10
-312.05001819878817
20
-18.324673697352406
10
-314.55001845955849
20
-18.324673697352406
10
-312.05001819878817
20
-20.824673958122727
10
-312.05001819878817
20
-25.824673585593697
10
-314.55001845955849
20
-28.324673846364021
10
-312.05001819878817
20
-28.324673846364021
10
-312.05001819878817
20
-35.324673697352409
10
-310.05001819878817
20
-37.324673697352409
10
-299.05001819878817
20
-37.324673697352416
10
-297.05001819878817
20
-35.324673697352409
10
-297.05001819878817
20
-28.324673846364021
10
-294.55001816153526
20
-28.324673846364021
10
-297.05001819878817
20
-25.824673809111118
10
-297.05001819878817
20
-20.824673734605312
10
-294.55001816153526
20
-18.324673697352409
10
-297.05001819878817
20
-18.324673697352413
10
-297.05001819878817
20
-11.324673697352408
10
-299.05001819878817
20
-9.3246736973524076
0
LWPOLYLINE
5
516
100
AcDbEntity
8
0
100
AcDbPolyline
90
22
70
1
43
0.0
10
-273.67780009062409
20
-122.02467389404774
10
-273.67780009062409
20
-135.00000155947697
10
-260.70001684687355
20
-135.000001559477
10
-260.7000168468735
20
-115.02467378973962
10
-264.72119118273264
20
-115.02467378973961
10
-268.72119118273258
20
-111.02467378973961
10
-268.72119118273258
20
-96.024673551321044
10
-273.72119125723839
20
-96.024673551321044
10
-273.72119125723839
20
-89.024673387408271
10
-275.72119125723839
20
-87.024673387408285
10
-291.72119155526167
20
-87.024673387408257
10
-293.72119155526161
20
-89.024673387408257
10
-293.72119155526161
20
-96.02467355132103
10
-298.72119162976742
20
-96.024673551321044
10
-298.72119162976742
20
-112.02467378973961
10
-301.72119162976747
20
-115.02467378973961
10
-305.69950316348127
20
-115.02467378973961
10
-305.69950316348127
20
-121.0246739089489
10
-305.69919118273265
20
-121.0246739089489
10
-305.69919118273265
20
-135.000001559477
10
-293.72119155526161
20
-135.00000155947697
10
-293.72119155526161
20
-122.02467389404774
0
CIRCLE
5
517
100
AcDbEntity
8
0
100
AcDbCircle
10
-262.09967347290478
20
-133.59966405858285
30
0
40
0.75000000000000178
210
-2.4651903288156616e-32
220
6.6493687288073373e-33
230
1
0
CIRCLE
5
518
100
AcDbEntity
8
0
100
AcDbCircle
10
-304.29967347290471
20
-116.39966405858286
30
0
40
0.74999999999999734
210
1.4764564523888525e-48
220
6.6493687288072059e-33
230
1
0
CIRCLE
5
519
100
AcDbEntity
8
0
100
AcDbCircle
10
-262.09967347290473
20
-116.39966405858291
30
0
40
0.75000000000000178
210
-2.4651903288156616e-32
220
6.6493687288073373e-33
230
1
0
CIRCLE
5
520
100
AcDbEntity
8
0
100
AcDbCircle
10
-304.29967347290471
20
-133.59966405858276
30
0
40
0.74999999999999734
210
1.4764564523888525e-48
220
6.6493687288072059e-33
230
1
0
LWPOLYLINE
5
521
100
AcDbEntity
8
0
100
AcDbPolyline
90
4
70
1
43
0.0
10
-293.72119155526161
20
-109.02467370033264
10
-293.72119155526161
20
-106.02467346191406
10
-273.72119125723839
20
-106.02467346191406
10
-273.72119125723839
20
-109.02467370033264
0
LWPOLYLINE
5
522
100
AcDbEntity
8
0
100
AcDbPolyline
90
4
70
1
43
0.0
10
-275.72119128704071
20
-93.024673461914062
10
-291.72119152545929
20
-93.024673461914062
10
-291.72119152545929
20
-90.024673417210579
10
-275.72119128704071
20
-90.024673417210579
0
LINE
5
523
100
AcDbEntity
8
0
100
AcDbLine
10
-321.00353142285405
20
-311.93499661237001
30
6.435358796195582e-61
11
-324.00353151226108
21
-311.93499661237001
31
4.0763276770682412e-23
0
LINE
5
524
100
AcDbEntity
8
0
100
AcDbLine
10
-314.97109123730712
20
-361.00582791119825
30
6.435358796195582e-61
11
-317.97109132671414
21
-361.00582791119825
31
4.0763276770682412e-23
0
ENDSEC
0
SECTION
2
OBJECTS
0
DICTIONARY
5
C
100
AcDbDictionary
3
ACAD_GROUP
350
D
3
ACAD_MLINESTYLE
350
17
0
DICTIONARY
5
D
100
AcDbDictionary
0
DICTIONARY
5
1A
330
C
100
AcDbDictionary
0
DICTIONARY
5
17
100
AcDbDictionary
0
ENDSEC
0
EOF
